<svg width="252" height="12" viewBox="0 0 252 12" fill="none" xmlns="http://www.w3.org/2000/svg">
<path d="M65.7398 11.9367C65.7398 11.9018 65.6791 11.8799 65.6049 11.8881C65.5307 11.8963 65.3773 11.8635 65.2642 11.8153C65.1448 11.7644 64.9606 11.7276 64.8255 11.7276C64.6415 11.7276 64.6267 11.7203 64.7547 11.6928C64.8791 11.6661 64.875 11.6556 64.7369 11.6473C64.5956 11.6388 64.6018 11.6269 64.7659 11.5913C64.9249 11.5569 64.9332 11.5437 64.8007 11.5357C64.705 11.53 64.6268 11.5144 64.6268 11.5011C64.6268 11.4878 64.6887 11.4838 64.7643 11.4921C64.8432 11.5008 64.8665 11.4908 64.819 11.4688C64.7734 11.4476 64.8076 11.4303 64.8951 11.4303C65.0108 11.4303 65.0136 11.4169 64.905 11.3808C64.7854 11.341 64.7992 11.3313 64.9752 11.3313C65.1522 11.3313 65.1608 11.3249 65.02 11.2981C64.8399 11.2637 64.4901 11.2944 64.5358 11.3405C64.5476 11.3525 64.4839 11.367 64.3943 11.3729C64.2871 11.38 64.2589 11.3649 64.3118 11.3288C64.3561 11.2986 64.3355 11.2799 64.2661 11.2871C64.1967 11.2944 64.0146 11.2921 63.8616 11.2821C63.641 11.2676 63.7058 11.2601 64.1746 11.2458C64.5433 11.2346 64.7659 11.2147 64.7659 11.1928C64.7659 11.1736 64.8876 11.1579 65.0363 11.1579C65.185 11.1579 65.3923 11.1361 65.4969 11.1095C65.6846 11.0618 66.3932 10.9967 66.623 11.0061C66.6879 11.0087 67.0948 10.995 67.5273 10.9755C67.9597 10.9561 68.705 10.9324 69.1834 10.9228C69.6617 10.9132 70.088 10.8953 70.1307 10.883C70.1733 10.8707 70.3454 10.8604 70.513 10.8601C70.6807 10.8598 71.1935 10.8266 71.6526 10.7863C72.1117 10.7461 72.5932 10.7129 72.7226 10.7126C72.852 10.7123 72.9965 10.7009 73.0438 10.6872C73.0911 10.6736 73.0592 10.6625 72.9728 10.6625C72.78 10.6625 72.8495 10.5517 73.0438 10.5493C73.1203 10.5483 73.4574 10.5336 73.7929 10.5165C74.1284 10.4994 74.5557 10.4922 74.7424 10.5006C74.9291 10.5089 75.2807 10.5048 75.5237 10.4915C75.7666 10.4781 76.3148 10.455 76.7418 10.4402C77.9135 10.3993 78.5392 10.3652 78.5392 10.3422C78.5392 10.3183 71.4023 10.335 69.6353 10.363C68.7043 10.3777 68.3491 10.3737 67.9658 10.344C67.698 10.3233 67.4475 10.3047 67.4093 10.3027C67.371 10.3008 67.1567 10.2857 66.9331 10.2693C66.7095 10.2528 66.4278 10.2462 66.3071 10.2546C66.1864 10.263 64.3346 10.2738 62.1921 10.2787C60.0496 10.2836 58.0149 10.2987 57.6705 10.3123C57.3262 10.3258 56.2943 10.3499 55.3774 10.3657C54.4606 10.3815 53.5906 10.4058 53.4442 10.4198C53.2978 10.4337 52.8722 10.4399 52.4985 10.4335C52.1248 10.4271 51.7852 10.4316 51.744 10.4435C51.7027 10.4554 51.6107 10.4587 51.5395 10.4509C51.4682 10.443 51.4099 10.4484 51.4099 10.4629C51.4099 10.4773 51.363 10.4869 51.3056 10.4842C51.0742 10.4733 49.8796 10.5183 49.8796 10.538C49.8796 10.5621 48.8286 10.6023 48.4313 10.5934C48.2851 10.5901 48.0479 10.6098 47.9041 10.6373C47.7604 10.6648 47.5356 10.6886 47.4047 10.6902C47.2738 10.6918 46.791 10.6955 46.3319 10.6984C45.8728 10.7014 45.2467 10.7167 44.9406 10.7324C44.6346 10.7481 44.1476 10.7672 43.8586 10.7749C43.5695 10.7826 43.3669 10.7986 43.4084 10.8106C43.5379 10.8479 43.2288 10.8576 40.8116 10.8926C40.6832 10.8945 40.5893 10.9066 40.6029 10.9195C40.6166 10.9324 40.5026 10.9495 40.3495 10.9575C40.1965 10.9655 39.9132 10.9912 39.72 11.0146C39.4673 11.0452 38.9404 11.0616 37.8418 11.0731C37.002 11.0819 36.1702 11.0879 35.9933 11.0865C35.8165 11.085 35.4795 11.1016 35.2445 11.1232C35.0018 11.1455 34.7801 11.1527 34.7313 11.1398C34.6115 11.1081 34.1217 11.0777 34.229 11.1086C34.3421 11.1412 34.2067 11.1395 33.8363 11.1038C33.0887 11.0316 29.5492 11.0865 29.18 11.1759C29.0657 11.2036 29.0531 11.2223 29.1452 11.2278C29.2244 11.2325 29.2891 11.2462 29.2891 11.2582C29.2891 11.2703 29.2015 11.2742 29.0945 11.2669C28.9875 11.2596 28.8586 11.2655 28.8081 11.28C28.6731 11.3189 29.5069 11.3133 29.9569 11.2723C30.1635 11.2534 30.6143 11.2298 30.9586 11.2198C31.303 11.2098 31.6942 11.198 31.8281 11.1935C31.9621 11.1891 32.0716 11.2001 32.0716 11.2179C32.0716 11.2409 32.2446 11.248 32.6629 11.2421C33.1199 11.2358 33.1982 11.2397 33.0078 11.2593C32.8723 11.2733 32.7927 11.2938 32.831 11.3048C32.9136 11.3286 32.1357 11.3525 30.6299 11.3725C29.7843 11.3837 29.5084 11.3793 29.4146 11.353C29.3267 11.3282 29.2928 11.3274 29.2913 11.3498C29.2881 11.3954 28.4519 11.3881 28.1523 11.3398C28.0124 11.3173 27.8979 11.3094 27.8979 11.3222C27.8979 11.3365 27.4463 11.339 26.7501 11.3287C26.1188 11.3193 25.1328 11.3055 24.5589 11.298C23.985 11.2905 23.3098 11.2714 23.0585 11.2555C22.8071 11.2397 22.4456 11.232 22.2552 11.2385C22.0647 11.245 21.8694 11.2389 21.8211 11.225C21.7672 11.2095 21.8036 11.2075 21.9155 11.2198C22.0288 11.2323 22.0639 11.2301 22.0083 11.2141C21.9035 11.1839 21.24 11.1566 20.4547 11.1501C19.9915 11.1463 19.8957 11.1366 19.8831 11.0923C19.8696 11.0447 19.9655 11.037 20.7874 11.0201C21.2931 11.0096 21.8633 11.0035 22.0546 11.0065L22.4025 11.0118L22.0333 10.9761C21.3932 10.9141 20.769 10.888 19.5504 10.8721C18.9 10.8636 17.9609 10.8385 17.4635 10.8162C16.3196 10.7651 12.3502 10.7611 12.1771 10.811C12.1175 10.8282 11.9951 10.8341 11.9051 10.8242C11.6727 10.7986 9.11244 10.79 9.19953 10.8151C9.28099 10.8386 9.26026 10.839 7.44028 10.8488C6.15575 10.8557 5.61355 10.8642 3.69019 10.9073C2.81318 10.927 2.30042 10.9157 1.79917 10.8658C1.58925 10.8449 1.63449 10.833 2.14003 10.7762C2.54778 10.7303 3.04593 10.7034 3.79784 10.6865C5.08103 10.6576 6.30534 10.6212 7.18741 10.5857C7.71504 10.5645 7.82027 10.5514 7.76499 10.5138C7.7253 10.4868 7.61687 10.4733 7.50241 10.4811C7.39517 10.4884 7.30743 10.4821 7.30743 10.467C7.30743 10.4519 7.41699 10.4394 7.5509 10.4392C7.75897 10.4389 7.76402 10.4353 7.58568 10.4148C7.4537 10.3996 7.43931 10.3906 7.54653 10.3904C7.64004 10.3902 7.68003 10.3733 7.6357 10.3527C7.57977 10.3268 7.71858 10.3025 8.09222 10.273L8.62911 10.2305L7.26978 10.2155C6.52215 10.2073 5.5361 10.2017 5.07857 10.2031C4.62103 10.2045 4.24669 10.2042 4.24669 10.2025C4.24669 10.2008 4.3719 10.1737 4.52494 10.1423C4.67797 10.1109 4.80319 10.0927 4.80319 10.1019C4.80319 10.1112 4.94417 10.1023 5.11648 10.0821C5.28879 10.062 5.89389 10.0328 6.46115 10.0171C7.02841 10.0014 7.74048 9.97304 8.04353 9.954C8.34658 9.93496 8.82144 9.91899 9.09876 9.9185C9.87356 9.91715 11.8252 9.8268 11.2609 9.81841C11.1907 9.81737 11.0081 9.81139 10.8551 9.80512C10.7021 9.79885 10.5004 9.79074 10.407 9.78709C10.0887 9.77467 10.0683 9.75056 10.3622 9.73395C10.5234 9.72484 10.819 9.69038 11.019 9.65738C11.219 9.62438 11.5224 9.59738 11.6931 9.59738C11.8639 9.59738 12.075 9.58206 12.1623 9.56333C12.2928 9.53535 12.178 9.52638 11.5185 9.51301C11.0771 9.50406 10.5282 9.49133 10.2986 9.48474C9.75248 9.46904 7.57932 9.47131 7.43006 9.48773C7.22869 9.50989 5.63794 9.52034 5.63794 9.49951C5.63794 9.48856 5.73184 9.46572 5.84662 9.44876C5.9614 9.4318 6.05531 9.40629 6.05531 9.39206C6.05531 9.37784 6.01411 9.37353 5.96377 9.3825C5.91342 9.39146 5.78821 9.38638 5.68552 9.37121C5.58213 9.35593 5.49881 9.35419 5.49881 9.3673C5.49881 9.38032 5.4049 9.39097 5.29012 9.39097C4.956 9.39097 5.04765 9.36444 5.5068 9.32826C6.02315 9.28757 5.94921 9.2705 5.11678 9.23822C4.35741 9.20878 4.21266 9.16264 4.7571 9.12357C5.32054 9.08313 7.96772 9.03065 9.48098 9.02992C10.1903 9.02956 10.9367 9.02187 11.1397 9.0128L11.5088 8.99631L11.1124 8.93857C10.8944 8.90682 10.6101 8.88044 10.4807 8.87995C10.151 8.87871 10.0507 8.83931 10.2276 8.78046C10.4144 8.71833 11.6246 8.6066 12.1108 8.6066C12.3158 8.6066 12.4344 8.59591 12.3855 8.58183C12.3382 8.5682 12.1847 8.55706 12.0443 8.55706C11.8086 8.55706 11.5466 8.49522 11.5982 8.45179C11.6507 8.40763 9.44333 8.45701 9.2586 8.50412C9.11751 8.5401 5.56488 8.63412 5.21564 8.61112L4.88306 8.58921L5.20657 8.55839C5.3845 8.54144 6.5404 8.49758 7.77523 8.46093C10.0348 8.39386 10.5847 8.34651 9.1041 8.34651C8.64915 8.34651 8.23061 8.33237 8.09455 8.31239C7.90129 8.28401 7.63371 8.28322 6.50656 8.30773C4.43398 8.3528 3.22947 8.38375 2.947 8.3992C2.75985 8.40944 2.70357 8.4021 2.73831 8.37198C2.78894 8.32808 3.21937 8.27658 3.89416 8.23367C4.47499 8.19674 4.11395 8.16418 3.3713 8.18652C3.04932 8.1962 2.50415 8.21198 2.15982 8.22158L1.53376 8.23903L2.05548 8.15001C2.34242 8.10105 2.57719 8.05701 2.57719 8.05214C2.57719 8.04728 2.18897 8.03547 1.71448 8.02591C0.592592 8.00332 -0.00769716 7.94732 7.45205e-05 7.866C0.00415692 7.82311 0.904193 7.76557 1.74165 7.75466C2.08642 7.75017 2.86935 7.72878 3.4815 7.70714C4.09365 7.6855 5.03282 7.66277 5.56854 7.65664C6.10427 7.65051 6.91814 7.63375 7.37716 7.6194C10.2279 7.53028 10.8695 7.50835 10.9924 7.4958C11.0679 7.48809 10.8488 7.46961 10.5055 7.45473C10.16 7.43975 9.88123 7.41314 9.88123 7.39514C9.88123 7.35346 11.2835 7.26291 12.5561 7.22242C13.1752 7.20273 13.6332 7.17342 13.7832 7.14392C13.9174 7.11751 14.3831 7.08421 14.8439 7.06807C15.8893 7.03145 15.8611 6.99672 14.7252 6.92199C14.4816 6.90597 14.3106 6.87997 14.3451 6.86421C14.4236 6.82835 15.0684 6.77364 15.4126 6.77364C15.5549 6.77364 15.6326 6.76249 15.5853 6.74887C15.5381 6.73525 15.0335 6.7241 14.4641 6.7241C13.526 6.7241 13.1493 6.69878 13.6028 6.6662C14.008 6.63709 11.9777 6.65285 10.9748 6.68659C9.72598 6.72862 9.04649 6.71103 9.04649 6.63667C9.04649 6.60239 9.40989 6.55738 10.4121 6.46753C11.3562 6.38289 11.7212 6.33861 11.5946 6.32406C11.3543 6.29643 11.5915 6.26817 12.5246 6.2133C13.8417 6.13585 14.8865 6.00603 14.7493 5.93687C14.6556 5.88964 15.169 5.86387 17.2898 5.80937C18.344 5.78228 19.3998 5.74295 19.6359 5.72198C19.8721 5.701 20.372 5.6773 20.7469 5.6693C21.7807 5.64724 23.7587 5.55815 24.0681 5.51971C24.2191 5.50096 24.5321 5.48483 24.7637 5.48388C24.9954 5.48292 25.3102 5.47256 25.4632 5.46085C25.6848 5.4439 25.6281 5.43882 25.1849 5.43591C23.9991 5.42814 23.3699 5.40732 23.2126 5.37067C23.1053 5.34565 22.9376 5.33795 22.7257 5.34832C22.4475 5.36193 22.4368 5.36031 22.6484 5.3367C22.7837 5.32161 23.0028 5.31244 23.1354 5.31632C23.2679 5.3202 23.4606 5.31398 23.5635 5.3025C23.6742 5.29014 23.8908 5.29497 24.0938 5.31431C24.3612 5.33979 24.495 5.34055 24.7001 5.31774C24.8667 5.29923 24.9943 5.29739 25.0476 5.31274C25.0939 5.32608 25.4881 5.3374 25.9236 5.33788C26.359 5.33836 26.8718 5.35469 27.0631 5.37416C27.4799 5.41657 27.6196 5.41968 27.6196 5.38654C27.6196 5.37292 27.522 5.36177 27.4027 5.36177C27.2834 5.36177 27.2201 5.35189 27.262 5.33982C27.304 5.32774 27.2071 5.31176 27.0469 5.3043C26.8867 5.29684 26.7828 5.27607 26.816 5.25814C26.8774 5.22505 27.5005 5.20567 29.4282 5.17688C31.1698 5.15087 31.6542 5.13687 31.6542 5.11256C31.6542 5.09977 31.5603 5.08931 31.4456 5.08931C31.3296 5.08931 31.2369 5.06729 31.2369 5.03977C31.2369 5.00344 31.3296 4.99023 31.5847 4.99023C31.9849 4.99023 32.0531 4.95208 31.6837 4.93488C31.5469 4.92851 30.8425 4.92925 30.1185 4.93652C28.0099 4.95771 27.1664 4.95066 26.7253 4.90816C26.5012 4.88657 26.2778 4.87333 26.2287 4.87872C26.1797 4.88412 26.1655 4.85715 26.1971 4.8188C26.2661 4.73512 26.0704 4.72207 24.6419 4.71507C23.787 4.71088 23.7206 4.70712 24.0177 4.67971C24.5065 4.6346 26.2995 4.56988 27.3688 4.55873C27.9152 4.55304 28.4314 4.5327 28.6171 4.50954C29.0123 4.46026 29.2505 4.45964 29.5177 4.50722C29.6379 4.52862 29.9729 4.54414 30.3077 4.54384C31.3389 4.54289 35.1861 4.47323 35.7085 4.44604C36.1962 4.42066 36.211 4.41656 36.1081 4.33532C36.0433 4.28413 36.0579 4.24088 36.1452 4.22533C36.2445 4.20766 36.2402 4.18917 36.1315 4.16585C35.7991 4.09455 36.2219 4.07979 38.2523 4.09181C39.8298 4.10115 40.3219 4.09603 40.642 4.06697C40.9807 4.03622 42.5077 3.9938 43.5494 3.98621C43.7024 3.9851 44.1407 3.97422 44.5233 3.96204L45.2189 3.9399L44.5928 3.92188C44.2485 3.91197 43.2155 3.90954 42.2973 3.91649C41.3791 3.92344 40.0643 3.92764 39.3757 3.92583C38.687 3.92401 37.341 3.94069 36.3845 3.96288C34.4919 4.00679 32.5402 4.0375 31.7 4.0366C31.407 4.03628 31.128 4.04576 31.0799 4.05765C31.0319 4.06955 30.7971 4.08071 30.5582 4.08245C30.3193 4.08419 30.1239 4.09484 30.1239 4.10611C30.1239 4.11739 29.983 4.11957 29.8108 4.11095C29.5658 4.09868 29.5431 4.10092 29.7065 4.12128C29.8864 4.14371 29.8816 4.14735 29.6717 4.14768C29.5378 4.1479 29.4283 4.16048 29.4283 4.17567C29.4283 4.19264 29.2959 4.18786 29.0853 4.16329C28.7045 4.11886 28.5375 4.11188 28.6533 4.14524C28.6952 4.15731 28.605 4.17299 28.4528 4.18008C28.2945 4.18745 28.1761 4.18071 28.1761 4.16431C28.1761 4.14773 27.9564 4.13567 27.6544 4.13567C27.3228 4.13567 27.1446 4.14652 27.1653 4.16545C27.1877 4.18594 27.0378 4.19158 26.6844 4.18352C26.1052 4.17032 25.5338 4.11261 25.5306 4.06698C25.5291 4.04748 25.4802 4.0499 25.3936 4.07375C25.289 4.10258 25.2583 4.09529 25.2566 4.04115C25.2539 3.95182 25.4831 3.87559 25.7545 3.87559C25.8711 3.87559 25.9279 3.86444 25.8806 3.85082C25.8333 3.8372 25.9078 3.8252 26.0463 3.82415C26.5047 3.8207 26.7959 3.80569 27.1059 3.76953C27.3838 3.73711 28.037 3.74959 28.037 3.78732C28.037 3.79414 27.9531 3.79399 27.8506 3.78696C27.7481 3.77996 27.5759 3.79359 27.468 3.81726C27.2989 3.85435 27.2991 3.85737 27.4695 3.8391C27.6215 3.82279 27.6445 3.82838 27.5692 3.86332C27.5106 3.8905 27.543 3.91686 27.6499 3.92893C27.916 3.959 28.1401 3.95335 27.898 3.92267C27.741 3.90277 27.8216 3.89951 28.2237 3.90947C28.5192 3.9168 28.8717 3.91008 29.0124 3.89444C29.2049 3.87303 29.3162 3.87347 29.4704 3.89626C29.6347 3.92054 29.6951 3.91785 29.7821 3.88239C29.8414 3.8582 29.88 3.83005 29.8679 3.81983C29.8557 3.80961 29.9345 3.80125 30.0429 3.80125C30.1513 3.80125 30.2638 3.7885 30.293 3.77292C30.3222 3.75734 30.5297 3.74111 30.7542 3.73685C30.9787 3.73258 31.2323 3.71207 31.3178 3.69125C31.4033 3.67043 31.524 3.66159 31.586 3.6716C31.648 3.6816 31.6594 3.67028 31.6114 3.64644C31.5038 3.59308 31.7699 3.58809 31.8846 3.64132C31.9576 3.67515 31.9971 3.67471 32.2281 3.63748C32.4747 3.59774 32.4893 3.59802 32.4913 3.6426C32.493 3.68213 32.5153 3.68376 32.6283 3.65263C32.8293 3.59724 32.8006 3.58518 32.4283 3.56854C32.1921 3.55799 32.0958 3.53755 32.1112 3.50124C32.1357 3.44338 32.6203 3.40014 33.1787 3.40598C33.6992 3.41142 34.1586 3.37955 34.1586 3.33799C34.1586 3.31124 34.2969 3.30339 34.6804 3.30838C35.2411 3.31566 36.1844 3.28779 36.5238 3.25389C36.6923 3.23707 36.6789 3.23268 36.4542 3.23113C36.3012 3.23008 35.8629 3.22398 35.4803 3.21759C34.2973 3.19785 32.7237 3.19847 32.156 3.21891C31.7663 3.23294 31.6414 3.23057 31.7111 3.2105C31.7709 3.19326 31.7333 3.18768 31.6126 3.19593C31.4982 3.20375 31.3135 3.18107 31.1667 3.14118C30.9875 3.09247 30.9639 3.07025 31.0839 3.06312C31.1967 3.05643 31.1694 3.04166 31.0009 3.01813C30.7723 2.9862 30.787 2.98424 31.1675 2.99601C31.397 3.00311 31.5066 3.00235 31.4109 2.99432C31.0586 2.96475 31.2526 2.93431 31.7935 2.93431C32.1448 2.93431 32.3508 2.94573 32.3521 2.96528C32.3536 2.98806 32.3858 2.98736 32.4739 2.96263C32.549 2.94152 32.626 2.9384 32.681 2.95423C32.7744 2.98114 32.9515 2.97905 33.3863 2.9459C33.5354 2.93454 33.8632 2.92449 34.1147 2.92358C34.6913 2.9215 34.8785 2.86001 34.3083 2.86001C34.0827 2.86001 33.8754 2.8439 33.83 2.82285C33.776 2.79778 33.8368 2.7857 34.0169 2.7857C34.1638 2.7857 34.334 2.77176 34.3952 2.75474C34.5547 2.71033 35.1217 2.65774 35.2677 2.6738C35.3358 2.68129 35.4308 2.67611 35.4789 2.66225C35.527 2.64841 35.739 2.63708 35.9502 2.63708C36.1613 2.63708 36.6741 2.61898 37.0898 2.59686C37.7458 2.56193 37.8047 2.55391 37.5367 2.53601C37.3669 2.52468 36.2053 2.51691 34.9552 2.51876C33.7052 2.52062 32.6006 2.51312 32.5007 2.50212C32.3971 2.49073 32.2779 2.49392 32.2237 2.50954C32.1119 2.54174 27.787 2.56615 27.6795 2.53519C27.6418 2.5243 27.5137 2.52203 27.3949 2.53015C27.2487 2.54014 27.2295 2.55045 27.3353 2.56209C27.4213 2.57155 27.3013 2.57928 27.0687 2.57928C26.8362 2.57928 26.6459 2.56863 26.6459 2.55561C26.6459 2.54259 26.5505 2.54604 26.4338 2.56327C26.3172 2.5805 26.1773 2.58667 26.1229 2.57699C26.0685 2.5673 26.1796 2.5383 26.3697 2.51253L26.7154 2.46567L26.3676 2.47757C26.0628 2.488 26.0542 2.48657 26.2981 2.46594C26.6993 2.432 27.3587 2.43551 27.7453 2.47365C28.122 2.51082 28.5936 2.49857 28.5936 2.45162C28.5936 2.42999 28.8683 2.42027 29.4979 2.41964C30.0653 2.41907 30.4022 2.42887 30.4022 2.44595C30.4022 2.46091 30.4805 2.4549 30.5761 2.43257C30.7018 2.40325 31.0784 2.38757 31.9326 2.37609C32.583 2.36734 33.5103 2.34447 33.9933 2.32525C34.4763 2.30603 35.0711 2.28923 35.315 2.28793C35.559 2.28661 36.0716 2.27033 36.4542 2.25173C37.1065 2.22001 37.0328 2.21875 35.2716 2.23142C34.2386 2.23885 33.2995 2.24511 33.1847 2.24534C33.07 2.24556 31.63 2.27187 29.9849 2.3038C28.3397 2.33574 26.5461 2.36527 25.9991 2.36943C25.4521 2.37359 25.0332 2.38536 25.0682 2.39557C25.1033 2.40579 24.8622 2.4142 24.5324 2.41425C24.2027 2.41425 23.3695 2.4305 22.6808 2.45023C21.4999 2.48408 18.722 2.51898 19.0992 2.49523C19.1954 2.48918 19.2386 2.47403 19.1954 2.46158C19.1521 2.44912 19.2926 2.43839 19.5075 2.43773C19.7225 2.4371 20.1175 2.41539 20.3853 2.38954C20.6531 2.36369 20.9974 2.33214 21.1505 2.31944C21.6535 2.27768 29.8589 2.036 31.7935 2.00596C32.3674 1.99705 34.0264 1.96768 35.4803 1.9407C36.9341 1.91371 38.8531 1.88082 39.7445 1.8676C40.636 1.85438 41.6666 1.82742 42.0348 1.8077C42.5184 1.78178 42.7308 1.7795 42.8001 1.79946C42.888 1.82478 44.3517 1.81785 46.1233 1.78373C46.3911 1.77857 47.2363 1.76738 48.0015 1.75887C49.3745 1.7436 51.4664 1.69222 52.6373 1.64501C52.9679 1.63168 53.297 1.62722 53.3687 1.6351C53.4403 1.64298 54.4096 1.62487 55.5227 1.59485C57.1696 1.55043 57.6058 1.54591 57.8648 1.5706C58.1254 1.59542 58.459 1.59126 59.7008 1.54769C61.7679 1.47516 64.4653 1.38087 65.8095 1.33415C66.4216 1.31288 67.311 1.27966 67.7858 1.26034C68.2606 1.24102 68.8554 1.22527 69.1075 1.22533C69.3596 1.22533 69.8476 1.2094 70.1919 1.18978C70.7722 1.15672 71.9603 1.12001 75.1308 1.0372C76.7596 0.994662 77.0877 0.984842 78.7481 0.928964C79.5132 0.903212 80.7654 0.863747 81.5306 0.841261C82.2957 0.818775 83.1096 0.79485 83.3392 0.788093C84.9636 0.740296 85.273 0.741185 85.596 0.794579C85.7704 0.823389 85.913 0.859615 85.913 0.875081C85.913 0.890548 85.9599 0.901882 86.0173 0.900269C86.0747 0.898672 86.2647 0.898672 86.4396 0.900269C86.7055 0.902719 86.7347 0.910781 86.6184 0.949484C86.4481 1.00614 86.5843 1.03671 86.8393 0.999034C87.1261 0.956648 87.0608 0.994773 86.7308 1.06235C86.5577 1.0978 86.21 1.12958 85.89 1.13921C85.4228 1.15326 85.3695 1.161 85.5191 1.19309C85.7436 1.24126 85.5539 1.24425 94.4691 1.05219C95.0813 1.039 96.1769 1.02287 96.9038 1.01634C97.6307 1.0098 98.9455 0.992725 99.8254 0.978385C100.705 0.964047 101.864 0.947899 102.399 0.942501C102.935 0.937105 103.621 0.921141 103.923 0.907026C104.226 0.892914 105.426 0.880679 106.591 0.879842C107.755 0.879008 108.791 0.873352 108.893 0.86728C109.143 0.852297 112.403 0.82189 113.179 0.827303C113.522 0.829704 113.898 0.847079 114.015 0.865932C114.278 0.908178 114.945 0.912412 118.051 0.891528C119.478 0.881924 120.789 0.860092 121.22 0.83875C121.781 0.810901 122.713 0.803278 125.185 0.806305C126.962 0.808495 129.918 0.80185 131.755 0.791573C135.476 0.770741 135.277 0.770505 139.128 0.800268C141.621 0.819538 143.06 0.820338 145.25 0.803674C145.632 0.800762 145.836 0.793281 145.702 0.78705C145.568 0.780822 145.458 0.764071 145.458 0.749831C145.458 0.73275 145.849 0.728849 146.606 0.738368C147.237 0.746305 149.131 0.764094 150.815 0.7779C152.498 0.791708 154.658 0.814439 155.614 0.828414C159.457 0.884562 160.923 0.904351 162.918 0.927033C167.91 0.983768 170.541 1.00637 173.283 1.01609C174.546 1.02056 176.111 1.03181 176.761 1.04109C177.412 1.05037 178.382 1.05697 178.918 1.05575C179.453 1.05454 180.518 1.06449 181.283 1.07789C182.048 1.09129 184.526 1.10716 186.79 1.11316C189.054 1.11916 191.182 1.13493 191.52 1.14821C191.858 1.16149 192.627 1.17839 193.228 1.18577C193.829 1.19315 194.518 1.20492 194.758 1.21193C195.581 1.23589 196.865 1.25218 198.743 1.26248C200.397 1.27155 202.004 1.29331 204.378 1.3388C204.76 1.34613 205.292 1.35524 205.56 1.35904C205.828 1.36284 206.517 1.3731 207.091 1.38185C207.664 1.39059 208.635 1.40457 209.247 1.4129C209.859 1.42123 210.391 1.43149 210.429 1.43569C210.468 1.43988 210.855 1.45005 211.29 1.45829C211.725 1.46652 212.173 1.47953 212.285 1.48719C212.397 1.49484 213.043 1.50443 213.72 1.50849C215.58 1.51963 215.577 1.51956 215.577 1.5596C215.577 1.58003 215.643 1.59675 215.724 1.59675C215.806 1.59675 215.827 1.58371 215.771 1.56778C215.703 1.54802 215.748 1.54408 215.914 1.55539C216.047 1.56452 216.294 1.57198 216.463 1.57198C216.67 1.57198 216.777 1.58809 216.791 1.62152C216.816 1.68074 216.741 1.68358 216.462 1.63391C216.17 1.58206 215.845 1.58595 215.942 1.6401C215.991 1.66677 215.976 1.6728 215.903 1.65577C215.823 1.6369 215.431 1.63336 214.673 1.64465C213.367 1.66408 212.382 1.65873 210.569 1.62238C209.842 1.6078 208.903 1.58989 208.482 1.58256C208.061 1.57524 207.644 1.56499 207.554 1.55979C207.465 1.55459 207.355 1.56725 207.311 1.5879C207.251 1.61573 207.119 1.62112 206.802 1.60872C206.303 1.58923 205.983 1.58182 204.656 1.55908C204.12 1.5499 203.645 1.53829 203.599 1.53328C203.501 1.5226 201.64 1.52085 199.091 1.52903C197.473 1.53422 196.333 1.52004 195.482 1.48416C195.002 1.46395 191.648 1.4552 191.648 1.47417C191.648 1.48393 192.07 1.49996 192.587 1.5098C193.103 1.51964 193.651 1.53209 193.804 1.53747C194.878 1.57517 197.753 1.61741 200.065 1.62947C200.6 1.63227 201.105 1.6421 201.186 1.65132C201.32 1.66666 205.58 1.7258 205.809 1.71551C205.863 1.71305 206.378 1.71885 206.951 1.72838C207.839 1.74311 210.104 1.77276 210.673 1.77708C210.879 1.77864 210.903 1.81061 210.714 1.83137C210.579 1.84626 209.53 1.8497 208.581 1.83836C208.291 1.8349 208.003 1.81739 207.941 1.79946C207.857 1.77521 207.618 1.77116 207.007 1.78365C206.556 1.79288 206.144 1.80486 206.093 1.81028C206.042 1.8157 205.905 1.80323 205.789 1.78256C205.673 1.7619 205.545 1.75454 205.504 1.7662C205.426 1.78884 202.618 1.7792 201.804 1.7535C201.536 1.74504 201.064 1.73582 200.755 1.73302C200.446 1.73021 200.054 1.71472 199.885 1.69861C199.639 1.67519 199.578 1.67595 199.578 1.7024C199.578 1.72186 199.392 1.73814 199.126 1.74197C198.026 1.75777 196.486 1.75627 195.265 1.73821C194.387 1.72522 194.012 1.72684 194.148 1.74306C194.696 1.80843 193.667 1.84068 192.065 1.80833C190.645 1.77965 190.391 1.77814 189.777 1.79472C189.46 1.80328 189.016 1.80146 188.79 1.79066C188.194 1.76224 185.097 1.71191 183.718 1.70823C183.067 1.7065 182.128 1.69746 181.631 1.68815C181.133 1.67883 180.132 1.66549 179.405 1.6585C178.678 1.65151 176.956 1.6294 175.579 1.60937C174.201 1.58934 172.153 1.56546 171.026 1.55631C169.19 1.54139 168.969 1.54394 168.889 1.58091C168.813 1.61608 168.571 1.62201 167.251 1.62111C166.398 1.62054 165.419 1.62909 165.075 1.64014L164.449 1.66024L165.492 1.68786C166.066 1.70305 166.755 1.71517 167.023 1.7148C167.29 1.7144 168.386 1.73138 169.457 1.75248C170.529 1.77357 172.563 1.80328 173.979 1.81849C175.394 1.8337 176.692 1.85147 176.862 1.858C177.032 1.86452 178.441 1.8807 179.992 1.89396C182.781 1.9178 184.735 1.93725 186.222 1.95599C186.643 1.96129 188.086 1.97691 189.43 1.99071C190.774 2.00451 191.963 2.02076 192.074 2.02683C192.184 2.0329 192.399 2.04629 192.552 2.05659C192.705 2.0669 193.071 2.07842 193.365 2.0822C193.659 2.08599 193.973 2.10675 194.061 2.12835C194.189 2.15954 194.552 2.16895 195.822 2.17403C196.702 2.17755 197.484 2.18729 197.561 2.19566C197.637 2.20404 198.169 2.21743 198.743 2.22543C201.486 2.26364 204.229 2.29468 205.491 2.3018C206.256 2.30611 207.884 2.32911 209.108 2.3529C210.332 2.37669 211.897 2.39985 212.586 2.40437C217.352 2.43567 221.159 2.47508 223.159 2.51384C223.848 2.52719 225.055 2.54528 225.842 2.55404C226.629 2.5628 227.305 2.5795 227.346 2.59114C227.386 2.60279 227.212 2.61322 226.959 2.61433C226.706 2.61545 226.322 2.61862 226.106 2.62142C225.89 2.62421 225.686 2.61866 225.652 2.60907C225.619 2.59949 225.361 2.60302 225.078 2.61692C224.791 2.63102 224.161 2.63496 223.653 2.62584C223.152 2.61684 220.488 2.60512 217.734 2.59979C214.979 2.59445 211.692 2.58289 210.43 2.5741C208.179 2.55842 207.541 2.56801 209.018 2.59533C209.427 2.60291 209.793 2.6145 209.83 2.62109C209.929 2.63876 209.42 2.68246 208.998 2.69252C208.506 2.70425 208.351 2.73563 208.772 2.73831C208.957 2.7395 209.922 2.75085 210.916 2.76355C211.911 2.77625 213.868 2.79322 215.264 2.80127C217.56 2.8145 217.803 2.82007 217.803 2.85932C217.803 2.9138 218.363 2.92668 221.739 2.94984C223.1 2.95919 224.246 2.97623 224.286 2.98773C224.326 2.99922 224.633 3.00863 224.968 3.00863C226.111 3.00863 225.791 3.07703 224.387 3.13275C223.99 3.14848 223.458 3.1593 223.204 3.15679C221.51 3.14007 221.954 3.18884 223.855 3.22822C224.62 3.24407 225.685 3.26244 226.22 3.26903C226.756 3.27563 227.726 3.29214 228.377 3.30572C229.027 3.3193 230.342 3.33776 231.298 3.34674C232.476 3.35781 233.082 3.37355 233.176 3.39553C233.253 3.41352 233.75 3.43518 234.289 3.44412C234.825 3.45299 235.326 3.47386 235.402 3.49049C235.479 3.50713 235.999 3.52825 236.558 3.53744C237.116 3.54664 237.714 3.57053 237.886 3.59053C238.082 3.61346 238.684 3.63094 239.513 3.63781C241.3 3.65262 242.701 3.68054 242.779 3.7029C242.86 3.7264 241.642 3.75997 241.455 3.73938C241.378 3.73094 241.315 3.73459 241.315 3.7475C241.315 3.76041 241.534 3.7783 241.802 3.78724C242.331 3.8049 242.431 3.83571 242.046 3.8623C241.591 3.89368 242.227 3.94338 243.658 3.98821C244.859 4.02587 245.618 4.07241 245.065 4.07448C244.545 4.07642 245.347 4.12008 246.183 4.13531C246.68 4.14435 247.158 4.1625 247.247 4.17564C247.336 4.18878 247.805 4.21088 248.289 4.22476C249.633 4.26331 249.619 4.29429 248.247 4.31349C247.735 4.32066 247.266 4.34191 247.125 4.36436C246.927 4.39587 246.686 4.39964 245.803 4.38497C244.01 4.35514 243.654 4.36095 243.385 4.42449C243.253 4.45559 243.173 4.48884 243.206 4.49837C243.239 4.5079 243.688 4.52349 244.204 4.53303C244.719 4.54257 245.204 4.55912 245.28 4.56981C245.357 4.5805 245.717 4.59714 246.08 4.60677C247.078 4.63321 246.873 4.6682 245.721 4.6682C245.16 4.6682 244.653 4.67656 244.595 4.68678C244.537 4.69699 243.954 4.70535 243.298 4.70535C242.47 4.70535 242.089 4.71478 242.047 4.73632C242.006 4.75753 242.155 4.76732 242.521 4.76742C242.814 4.76746 243.273 4.77778 243.541 4.79028C243.809 4.80277 244.558 4.82005 245.206 4.82867C245.853 4.83729 246.454 4.85477 246.54 4.86752C246.627 4.88027 246.734 4.8842 246.778 4.87627C246.823 4.86833 247.005 4.87109 247.183 4.88241C247.433 4.8983 247.284 4.90658 246.532 4.91877C245.645 4.93314 244.633 4.96929 244.098 5.00573C243.758 5.02886 244.286 5.05428 245.872 5.09107C246.656 5.10927 247.298 5.13078 247.298 5.13886C247.298 5.14694 247.705 5.14894 248.202 5.1433C248.929 5.13506 249.106 5.14016 249.106 5.16925C249.106 5.21415 248.666 5.28757 248.4 5.28706C248.236 5.28675 248.238 5.28253 248.41 5.26267C248.588 5.24224 248.582 5.2386 248.371 5.23828C248.235 5.23806 248.086 5.2552 248.041 5.27634C247.97 5.30909 247.718 5.31286 246.341 5.30183C244.614 5.288 244.19 5.30439 244.508 5.37262C245.041 5.48691 247.213 5.60945 248.706 5.60945C249.609 5.60945 250.08 5.63949 250.08 5.69701C250.08 5.72581 249.857 5.73317 249.002 5.73271C248.409 5.73239 247.673 5.72037 247.367 5.70603C247.061 5.69168 245.619 5.67489 244.162 5.66872C241.587 5.6578 241.513 5.65886 241.493 5.70729C241.473 5.75493 241.643 5.78924 241.941 5.79783C242.018 5.80004 242.618 5.81988 243.275 5.84192C245.425 5.91406 247.335 5.958 249.289 5.98033C251.099 6.00102 251.717 6.02939 251.53 6.08328C251.487 6.09558 251.392 6.09907 251.319 6.09102C251.246 6.08297 251.203 6.09115 251.224 6.10919C251.245 6.12733 251.154 6.14048 251.021 6.1386C250.887 6.13673 250.809 6.14387 250.845 6.15446C250.882 6.16505 250.7 6.18082 250.44 6.18949C249.879 6.20824 249.745 6.25289 250.033 6.32599C250.186 6.36494 250.203 6.38816 250.093 6.41161C249.914 6.45007 250.031 6.47639 250.381 6.47639C250.522 6.47639 250.636 6.48105 250.636 6.48674C250.636 6.49244 250.678 6.51639 250.729 6.53995C250.814 6.57931 250.72 6.58146 249.581 6.56637C248.899 6.55734 248.106 6.54332 247.819 6.53523C247.404 6.52351 247.297 6.52839 247.297 6.55914C247.297 6.58039 247.197 6.60783 247.073 6.62012C246.755 6.65185 246.946 6.79457 247.345 6.82325C247.631 6.84376 247.632 6.84495 247.367 6.8481C247.089 6.85141 247.089 6.85141 247.367 6.8727C247.638 6.89347 247.259 6.90234 245.837 6.90853C245.243 6.91111 244.793 6.94445 244.793 6.98583C244.793 7.00795 244.649 7.02145 244.411 7.02166C244.2 7.02188 243.886 7.02878 243.712 7.03708C243.415 7.05123 243.411 7.05424 243.642 7.08549C243.778 7.10382 244.06 7.11918 244.269 7.11961C244.479 7.12006 245.063 7.15941 245.568 7.20709C246.077 7.25518 246.688 7.29379 246.941 7.29379C247.784 7.29379 249.099 7.32532 249.034 7.34398C248.999 7.35417 249.076 7.36097 249.207 7.3591C249.337 7.35724 249.466 7.37492 249.493 7.39839C249.556 7.45289 248.735 7.54685 248.311 7.53357C248.141 7.52826 247.98 7.53608 247.952 7.55094C247.887 7.58598 246.263 7.59588 245.613 7.5652C245.338 7.55218 243.913 7.5385 242.448 7.5348C239.972 7.52856 239.241 7.54121 240.167 7.5743C240.378 7.58182 240.832 7.59932 241.176 7.61319C241.52 7.62706 242.068 7.63889 242.393 7.63948C242.719 7.64008 242.985 7.65171 242.985 7.66533C242.985 7.67895 243.083 7.6901 243.202 7.6901C243.322 7.6901 243.549 7.70235 243.706 7.71731C243.988 7.74423 243.988 7.74484 243.662 7.77378C243.091 7.82444 243.268 7.87223 244.227 7.92653C244.719 7.95438 245.151 7.9934 245.187 8.01322C245.223 8.03304 245.308 8.05572 245.375 8.06363C245.588 8.08848 245.333 8.16491 245.093 8.14845C244.971 8.14014 244.91 8.14017 244.957 8.14854C245.004 8.1569 244.884 8.19183 244.691 8.22617C244.438 8.27134 244.176 8.28974 243.745 8.29271C243.418 8.29497 243.175 8.3041 243.206 8.31301C243.237 8.32192 242.663 8.32375 241.931 8.31707C240.866 8.30737 240.552 8.31246 240.366 8.34249C240.107 8.38418 238.74 8.40137 238.028 8.3719C237.756 8.36065 237.557 8.36412 237.498 8.38117C237.446 8.39616 237.255 8.40843 237.075 8.40843C236.656 8.40843 236.307 8.43219 236.307 8.46062C236.307 8.47279 236.397 8.48274 236.508 8.48274C236.619 8.48274 236.763 8.49964 236.828 8.5203C236.901 8.5436 237.445 8.57514 238.261 8.6034C239.869 8.65908 241.052 8.74421 240.94 8.79612C240.897 8.81605 240.773 8.82628 240.664 8.81884C240.555 8.8114 240.501 8.81539 240.544 8.8277C240.586 8.84002 240.457 8.88482 240.257 8.92726C239.988 8.98407 239.818 9.00027 239.612 8.98863C239.457 8.97987 239.367 8.98289 239.411 8.99539C239.454 9.00779 239.271 9.01904 239.005 9.02039C238.739 9.02173 238.082 9.042 237.545 9.06543L236.568 9.10804L236.879 9.16694C237.05 9.19933 237.248 9.22583 237.318 9.22583C237.389 9.22583 237.662 9.24398 237.925 9.26617C238.382 9.30485 238.393 9.30887 238.191 9.36396C238.057 9.40016 238.031 9.4271 238.119 9.43679C238.196 9.44526 238.219 9.46375 238.17 9.47788C238.112 9.49447 238.037 9.49166 237.959 9.46998C237.88 9.44817 237.8 9.44525 237.733 9.46165C237.675 9.47555 237.44 9.50305 237.211 9.52276L236.794 9.5586L237.234 9.56701C237.711 9.57613 237.965 9.63969 237.62 9.6633C237.503 9.67128 237.373 9.67165 237.331 9.66412C237.288 9.65659 237.045 9.67127 236.791 9.69674C236.536 9.72221 236.09 9.75099 235.799 9.76071C235.508 9.77042 235.186 9.79338 235.083 9.81172C234.839 9.85517 234.743 9.85421 233.451 9.79535C232.29 9.74252 231.963 9.74745 231.487 9.82491C231.219 9.8686 231.11 9.87076 230.384 9.84683C229.43 9.81545 227.634 9.81143 227.736 9.84091C227.775 9.85224 228.264 9.87538 228.822 9.89232C230.245 9.9355 230.405 9.94477 230.171 9.97047C229.766 10.015 231.579 10.1202 233.35 10.1549C233.829 10.1643 234.251 10.1807 234.288 10.1914C234.325 10.2021 234.224 10.2405 234.063 10.2768C233.794 10.3378 233.789 10.3462 233.996 10.387C234.119 10.4112 234.22 10.4372 234.22 10.4446C234.22 10.4752 231.864 10.4312 231.089 10.3861C229.976 10.3212 227.721 10.2739 227.512 10.311C227.402 10.3306 227.401 10.3475 227.509 10.3706C227.654 10.4018 227.878 10.4152 229.733 10.5037C230.312 10.5313 230.602 10.5576 230.602 10.5825C230.602 10.6138 230.438 10.6171 229.57 10.6031C228.909 10.5924 228.506 10.5957 228.449 10.6121C228.4 10.6262 228.437 10.6377 228.531 10.6377C228.624 10.6377 228.669 10.6435 228.629 10.6505C228.536 10.6671 226.565 10.5935 226.37 10.5661C226.215 10.5445 224.184 10.4888 223.751 10.4943C223.617 10.496 223.507 10.5113 223.507 10.5283C223.507 10.5454 223.475 10.5744 223.435 10.5927C223.367 10.6245 225.066 10.6886 227.994 10.7648C228.433 10.7762 229.02 10.8025 229.298 10.8231C229.575 10.8438 229.997 10.8607 230.237 10.8608C230.867 10.861 231.772 10.91 231.626 10.9361C231.558 10.9481 230.711 10.9612 229.743 10.965C228.775 10.9689 227.994 10.974 228.006 10.9763C228.019 10.9786 228.339 11.0021 228.717 11.0286C229.375 11.0746 229.391 11.0779 229.09 11.1066C228.855 11.129 228.603 11.1299 228.083 11.11C227.236 11.0777 227.124 11.0773 227.124 11.1064C227.124 11.1189 227.311 11.1365 227.54 11.1454C228.301 11.1752 228.136 11.2074 227.223 11.2074C226.692 11.2074 226.155 11.2231 225.895 11.2463C225.631 11.2697 225.335 11.2783 225.149 11.2678C224.752 11.2453 218.22 11.2368 218.296 11.2588C218.458 11.3054 216.633 11.3052 215.076 11.2583C211.922 11.1636 209.239 11.1097 207.508 11.1064C206.551 11.1046 205.111 11.0878 204.308 11.069C203.504 11.0503 202.073 11.0235 201.127 11.0095C200.181 10.9954 199.367 10.9796 199.318 10.9744C199.27 10.9692 198.76 10.9578 198.186 10.9491C197.613 10.9404 196.924 10.9285 196.656 10.9228C196.099 10.9108 193.56 10.8856 191.717 10.8737C190.384 10.8652 188.358 10.8424 186.987 10.8205C186.528 10.8132 184.743 10.8025 183.022 10.7967C181.3 10.7909 179.265 10.777 178.5 10.7658C177.735 10.7546 175.619 10.7466 173.797 10.748C171.043 10.75 170.464 10.7566 170.354 10.7869C170.242 10.8179 170.203 10.8182 170.097 10.7889C170.014 10.7659 169.835 10.7592 169.561 10.769C169.334 10.777 169.082 10.7714 168.998 10.7565C168.914 10.7416 168.639 10.727 168.386 10.7242C168.133 10.7213 167.802 10.7123 167.649 10.7043C166.815 10.6603 165.946 10.6475 165.596 10.6741C165.315 10.6954 164.614 10.6702 164.711 10.6423C164.747 10.632 164.076 10.6206 163.221 10.6169C160.918 10.6071 160.679 10.6026 160.419 10.5641C160.207 10.5328 160.186 10.5342 160.228 10.5771C160.26 10.6098 160.208 10.6225 160.066 10.6165C159.951 10.6116 159.717 10.6075 159.545 10.6072C159.372 10.6069 159.232 10.5981 159.232 10.5877C159.232 10.5772 159.131 10.5618 159.007 10.5533C158.845 10.5422 158.806 10.5486 158.867 10.5768C158.924 10.6034 158.896 10.6094 158.778 10.596C158.683 10.5853 158.011 10.573 157.284 10.5687C155.755 10.5597 155.982 10.5598 148.797 10.5643C145.775 10.5662 142.915 10.5597 142.442 10.5499C141.968 10.5401 141.476 10.5392 141.347 10.548C141.111 10.5642 136.566 10.5961 135.169 10.5914C134.077 10.5877 132.839 10.702 133.528 10.7429C133.631 10.749 133.56 10.7665 133.354 10.7858C133.163 10.8038 132.972 10.8279 132.929 10.8394C132.776 10.8809 131.594 10.9041 131.259 10.8722C131.048 10.852 130.487 10.8448 129.606 10.8508C128.873 10.8558 126.466 10.8658 124.256 10.873C122.047 10.8802 120.087 10.8929 119.901 10.9012C119.715 10.9095 118.926 10.918 118.146 10.9201C117.367 10.9222 116.604 10.9364 116.451 10.9517C116.177 10.9791 114.887 11.0241 114.671 11.0138C114.404 11.001 113.91 11.0042 113.459 11.0216C113.192 11.0319 112.847 11.0385 112.694 11.0362C112.541 11.0339 112.291 11.0301 112.138 11.0277C111.985 11.0253 111.265 11.0364 110.538 11.0524C109.811 11.0684 108.946 11.0813 108.615 11.081C108.284 11.0807 107.94 11.091 107.85 11.1039C107.759 11.1168 107.482 11.1351 107.234 11.1446C106.864 11.1586 106.782 11.1542 106.782 11.1198C106.782 11.0827 106.666 11.0799 105.773 11.0955C105.218 11.1051 103.762 11.1156 102.538 11.1187C101.314 11.1218 99.975 11.1375 99.5628 11.1535C99.1507 11.1695 98.783 11.1826 98.7458 11.1826C98.7086 11.1826 98.7561 11.1993 98.8514 11.2198C98.9467 11.2402 99.236 11.2569 99.4945 11.2569C99.7529 11.2569 99.9644 11.2616 99.9644 11.2673C99.9644 11.273 100.002 11.2953 100.049 11.3168C100.165 11.3705 99.7729 11.3679 99.4638 11.3129C99.2887 11.2817 99.2056 11.2783 99.1637 11.3006C99.1319 11.3176 99.0486 11.3252 98.9786 11.3175C98.9087 11.3098 98.8514 11.3125 98.8514 11.3236C98.8514 11.3346 98.7105 11.345 98.5384 11.3466C98.3662 11.3483 97.4115 11.3623 96.4167 11.3777C95.422 11.3931 93.4186 11.4102 91.9647 11.4157C90.5109 11.4211 89.1649 11.4317 88.9736 11.4392C88.3254 11.4645 84.7617 11.5232 82.8521 11.54C79.3135 11.5711 76.6308 11.6612 76.0776 11.7675C75.9046 11.8008 75.5997 11.8276 75.3808 11.8289C73.5804 11.8393 71.0803 11.8727 69.983 11.9009C69.5239 11.9128 68.7185 11.9293 68.1933 11.9376C67.668 11.946 66.9238 11.9634 66.5396 11.9764C66.1553 11.9894 65.8181 12 65.7903 12C65.7625 12 65.7397 11.9715 65.7397 11.9366L65.7398 11.9367ZM65.7398 11.7113C65.7398 11.6842 65.6782 11.6822 65.4667 11.7023C65.3036 11.7179 65.2261 11.7434 65.2743 11.7657C65.3364 11.7946 65.3991 11.7966 65.5473 11.7747C65.6532 11.7591 65.7398 11.7305 65.7398 11.7113ZM89.1823 11.3429C89.7266 11.3081 89.7129 11.3076 88.5562 11.3197C85.9076 11.3473 85.0781 11.3613 85.0781 11.3784C85.0781 11.4107 88.5969 11.3803 89.1823 11.3429ZM24.5589 11.0438C24.5589 11.0384 24.465 11.034 24.3502 11.034C24.2354 11.034 24.1415 11.0448 24.1415 11.058C24.1415 11.0712 24.2354 11.0756 24.3502 11.0678C24.465 11.0599 24.5589 11.0491 24.5589 11.0438ZM34.6454 10.9597C34.694 10.9457 34.58 10.9349 34.3836 10.9349C34.1923 10.9349 33.9971 10.9461 33.9498 10.9597C33.9012 10.9737 34.0152 10.9845 34.2116 10.9845C34.4029 10.9845 34.5981 10.9733 34.6454 10.9597ZM28.037 10.833C28.037 10.8074 27.8704 10.805 27.5615 10.8261C27.2123 10.85 27.306 10.8797 27.6892 10.8667C27.8805 10.8602 28.037 10.845 28.037 10.833ZM106.759 10.8289C107.233 10.8054 107.299 10.7964 107.065 10.7865C106.693 10.7708 102.267 10.8039 99.8949 10.8401C99.2503 10.8499 104.228 10.874 105.251 10.8659C105.749 10.862 106.427 10.8454 106.759 10.8289ZM111.581 10.7527C111.734 10.7463 111.453 10.7419 110.955 10.743C109.768 10.7457 109.298 10.7684 110.051 10.7868C110.357 10.7943 110.764 10.7923 110.955 10.7824C111.147 10.7725 111.428 10.7592 111.581 10.7527V10.7527ZM22.7964 10.76C23.0829 10.7585 23.081 10.7572 22.7593 10.7343C22.38 10.7073 22.0546 10.7208 22.0546 10.7634C22.0546 10.779 22.1535 10.7849 22.2747 10.7766C22.3957 10.7683 22.6305 10.7609 22.7964 10.76ZM113.671 10.7321C113.709 10.7255 113.461 10.7182 113.121 10.7159C112.781 10.7136 112.46 10.7242 112.407 10.7394C112.339 10.7589 112.503 10.7637 112.957 10.7556C113.313 10.7493 113.634 10.7387 113.671 10.7321ZM222.464 10.4396C222.517 10.4242 222.295 10.4159 221.881 10.4177C221.287 10.4203 221.258 10.4228 221.629 10.4396C222.238 10.4671 222.368 10.4671 222.464 10.4396ZM8.02915 10.0759C7.92871 10.0687 7.80872 10.0696 7.76249 10.0778C7.71626 10.086 7.79843 10.0919 7.94509 10.0908C8.10717 10.0896 8.14013 10.0838 8.02915 10.0759V10.0759ZM9.67255 10.0432C9.95216 10.0273 9.9658 10.0233 9.74212 10.0227C9.58908 10.0223 9.33866 10.0315 9.18562 10.0432C8.8311 10.0704 9.19686 10.0704 9.67255 10.0432ZM11.5394 10.053C11.6604 10.0447 11.7594 10.0179 11.7594 9.99341C11.7594 9.95547 11.6719 9.95082 11.1681 9.96203C10.5289 9.97626 10.1117 10.0185 10.6104 10.0185C10.7742 10.0185 10.9469 10.0296 10.9942 10.0432C11.0932 10.0718 11.229 10.0742 11.5394 10.053ZM237.559 9.62216C237.559 9.60853 237.449 9.59756 237.315 9.59777C237.107 9.59808 237.102 9.60163 237.28 9.62216C237.543 9.65237 237.559 9.65237 237.559 9.62216ZM14.9854 8.61445C14.8849 8.60729 14.7649 8.60817 14.7187 8.61641C14.6725 8.62464 14.7547 8.63049 14.9013 8.62941C15.0634 8.62822 15.0964 8.62236 14.9854 8.61445V8.61445ZM13.8463 8.54218C13.8463 8.50181 13.4594 8.49727 12.951 8.53168C12.3977 8.56914 12.529 8.59549 13.2202 8.58571C13.6402 8.57976 13.8463 8.56543 13.8463 8.54218ZM16.4305 8.56005C16.2916 8.52003 15.794 8.50982 15.794 8.547C15.794 8.56785 15.9369 8.58183 16.1501 8.58183C16.3459 8.58183 16.4721 8.57203 16.4305 8.56005ZM15.3767 8.53229C15.5319 8.51443 15.4517 8.50818 15.0636 8.5079C14.7767 8.50768 14.5419 8.51867 14.5419 8.53229C14.5419 8.56384 15.1025 8.56384 15.3767 8.53229ZM247.297 5.63424C247.297 5.62062 247.235 5.60947 247.158 5.60947C247.082 5.60947 247.019 5.62062 247.019 5.63424C247.019 5.64786 247.082 5.65901 247.158 5.65901C247.235 5.65901 247.297 5.64786 247.297 5.63424ZM248.306 5.17198C248.21 5.16511 248.054 5.16511 247.958 5.17198C247.863 5.17885 247.941 5.18447 248.132 5.18447C248.324 5.18447 248.402 5.17885 248.306 5.17198ZM246.219 4.87367C246.047 4.86776 245.765 4.86776 245.593 4.87367C245.421 4.87957 245.562 4.8844 245.906 4.8844C246.251 4.8844 246.391 4.87957 246.219 4.87367ZM239.785 4.67371C239.785 4.66311 239.268 4.64121 238.637 4.62505C238.006 4.6089 237.339 4.58795 237.154 4.57851C236.946 4.56785 236.852 4.57063 236.905 4.58585C236.951 4.59933 237.54 4.62453 238.213 4.64187C238.886 4.6592 239.5 4.67691 239.576 4.68123C239.653 4.68555 239.731 4.68996 239.75 4.69104C239.769 4.69211 239.785 4.68431 239.785 4.67371ZM36.8714 4.44529C37.1199 4.42629 37.1096 4.42382 36.7753 4.42227C36.5694 4.42131 36.3622 4.43167 36.3149 4.44529C36.2123 4.47487 36.4849 4.47487 36.8714 4.44529ZM238.811 4.30017C238.811 4.28847 238.183 4.26618 237.415 4.25064C235.685 4.21562 235.374 4.21491 235.551 4.2464C235.625 4.25961 236.374 4.28034 237.214 4.29247C238.054 4.3046 238.757 4.31608 238.776 4.31799C238.795 4.31989 238.811 4.31188 238.811 4.30018V4.30017ZM29.0661 4.00357C29.1055 3.99222 29.0466 3.98293 28.9352 3.98293C28.8238 3.98293 28.7326 3.99222 28.7326 4.00357C28.7326 4.01492 28.7915 4.02421 28.8635 4.02421C28.9355 4.02421 29.0267 4.01492 29.0661 4.00357ZM47.6797 3.95775C47.5792 3.9506 47.4592 3.95147 47.413 3.9597C47.3668 3.96793 47.449 3.97379 47.5956 3.97271C47.7577 3.97152 47.7907 3.96565 47.6797 3.95775V3.95775ZM26.0893 3.92513C26.0893 3.91151 25.9797 3.90053 25.8458 3.90074C25.6377 3.90105 25.6327 3.90461 25.811 3.92513C26.0736 3.95534 26.0893 3.95534 26.0893 3.92513ZM26.6458 3.88652C26.6458 3.88051 26.5832 3.87559 26.5066 3.87559C26.4301 3.87559 26.3675 3.8874 26.3675 3.90182C26.3675 3.91625 26.4301 3.92117 26.5066 3.91275C26.5832 3.90433 26.6458 3.89252 26.6458 3.88652ZM34.5759 3.71405C34.7672 3.70453 35.3619 3.68744 35.8976 3.67607C36.4332 3.6647 37.0905 3.64361 37.3584 3.62921C37.6262 3.61481 37.8453 3.60397 37.8453 3.6051C37.8453 3.6146 38.7983 3.5616 39.2713 3.52579C39.9891 3.47147 40.0344 3.42974 39.3757 3.42974C39.0356 3.42974 38.8887 3.41853 38.8887 3.39258C38.8887 3.35449 39.5114 3.33943 40.545 3.35253C40.9953 3.35823 42.28 3.31554 42.5741 3.2851C42.7938 3.26237 42.0917 3.23673 41.1759 3.23405C40.5801 3.2323 40.0724 3.24974 39.4452 3.2935C38.9571 3.32756 38.4287 3.3556 38.2711 3.35581C38.0428 3.35612 38.0255 3.36082 38.1865 3.37894C38.2976 3.39146 38.4384 3.3962 38.4995 3.38949C38.5605 3.38277 38.6105 3.38782 38.6105 3.4007C38.6105 3.42287 38.3059 3.43853 37.2433 3.471C36.9888 3.47878 36.7467 3.50083 36.7054 3.52C36.6439 3.5485 36.5904 3.54909 36.4118 3.52326C36.2288 3.4968 36.2066 3.49801 36.2752 3.53069C36.3351 3.55924 36.2767 3.56861 36.0578 3.56558C35.8931 3.56331 35.5507 3.57156 35.2968 3.58392C34.9766 3.5995 34.7741 3.59737 34.6359 3.57695C34.5239 3.5604 34.4367 3.55822 34.4367 3.57196C34.4367 3.59928 33.3767 3.67744 33.0061 3.67744C32.8747 3.67744 32.7672 3.69268 32.7672 3.7113C32.7672 3.73651 32.9538 3.7434 33.4977 3.73826C33.8994 3.73447 34.3846 3.72358 34.5759 3.71405V3.71405ZM40.299 2.81575C40.1986 2.8098 40.0504 2.81669 39.9695 2.83109C39.8663 2.84947 39.9206 2.8527 40.152 2.84192C40.3401 2.83316 40.4032 2.82194 40.299 2.81575ZM208.342 2.71761C208.342 2.70739 208.152 2.69666 207.92 2.69377C207.678 2.69075 207.533 2.6987 207.581 2.71235C207.678 2.74029 208.343 2.74489 208.342 2.71761ZM40.6973 2.56157L41.0452 2.55966L40.7206 2.5365C40.354 2.51034 39.7235 2.53049 39.7235 2.56837C39.7235 2.58218 39.8634 2.58667 40.0365 2.57841C40.2087 2.5702 40.5061 2.56262 40.6973 2.56157ZM207.23 2.56693C207.23 2.55558 207.136 2.54629 207.021 2.54629C206.906 2.54629 206.812 2.55558 206.812 2.56693C206.812 2.57828 206.906 2.58757 207.021 2.58757C207.136 2.58757 207.23 2.57828 207.23 2.56693ZM207.812 2.57065C207.712 2.56349 207.592 2.56437 207.545 2.5726C207.499 2.58083 207.581 2.58669 207.728 2.58561C207.89 2.58443 207.923 2.57855 207.812 2.57065V2.57065ZM43.0886 2.52111C42.9881 2.51395 42.8681 2.51483 42.8219 2.52306C42.7757 2.53129 42.8578 2.53715 43.0045 2.53607C43.1666 2.53489 43.1995 2.52901 43.0886 2.52111V2.52111ZM27.4805 2.48849C27.4805 2.47487 27.4179 2.46372 27.3414 2.46372C27.2649 2.46372 27.2023 2.47487 27.2023 2.48849C27.2023 2.50211 27.2649 2.51326 27.3414 2.51326C27.4179 2.51326 27.4805 2.50211 27.4805 2.48849ZM31.0978 2.42353C31.0978 2.39578 30.8365 2.42011 30.7616 2.45484C30.6884 2.48883 30.7087 2.49037 30.8859 2.46419C31.0024 2.44697 31.0978 2.42868 31.0978 2.42353ZM32.489 2.42657C32.489 2.40613 32.4644 2.38941 32.4343 2.38941C32.4042 2.38941 32.3436 2.40613 32.2996 2.42657C32.2555 2.447 32.2801 2.46372 32.3542 2.46372C32.4284 2.46372 32.489 2.447 32.489 2.42657ZM214.629 1.57986C214.529 1.57271 214.409 1.57359 214.363 1.58181C214.316 1.59004 214.399 1.5959 214.545 1.59482C214.707 1.59364 214.74 1.58777 214.629 1.57986V1.57986ZM86.533 1.07833C86.577 1.06564 86.556 1.04899 86.4862 1.04132C86.4165 1.03364 86.3235 1.04402 86.2796 1.06437C86.1931 1.1045 86.4022 1.11602 86.533 1.07833ZM20.4967 11.709C20.4166 11.692 20.4057 11.6777 20.4725 11.6773C20.5392 11.6769 20.4768 11.6644 20.3337 11.6496C19.9666 11.6116 20.2918 11.5791 21.0112 11.5818C21.3869 11.5832 21.4773 11.5891 21.2895 11.6C21.0244 11.6153 20.8268 11.6784 21.046 11.6777C21.4545 11.6764 21.7495 11.644 21.6859 11.6075C21.6237 11.5718 21.6403 11.5721 21.8152 11.6099C22.0528 11.6613 23.1115 11.6707 23.203 11.6223C23.2495 11.5977 23.306 11.5979 23.4778 11.6231C23.7486 11.6629 23.9084 11.7596 23.6784 11.7445C23.5888 11.7386 23.5357 11.7188 23.5605 11.7004C23.5921 11.6771 23.5282 11.6795 23.3481 11.7085C23.1425 11.7417 22.8441 11.749 21.8665 11.745C21.089 11.7418 20.5891 11.7287 20.4967 11.709L20.4967 11.709ZM18.5868 11.6544C18.4015 11.634 18.4906 11.579 18.709 11.579C18.8677 11.579 19.007 11.6489 18.8768 11.6632C18.8191 11.6696 18.6886 11.6656 18.5868 11.6544ZM21.5304 11.4551C21.3766 11.4112 21.3926 11.4051 21.6709 11.4018C21.8437 11.3997 22.079 11.3962 22.1938 11.394C22.5649 11.3868 22.6347 11.4094 22.39 11.4576C22.0808 11.5184 21.7491 11.5174 21.5304 11.4551ZM105.808 11.2708C105.808 11.2648 105.87 11.253 105.947 11.2446C106.023 11.2361 106.086 11.2411 106.086 11.2555C106.086 11.2699 106.023 11.2817 105.947 11.2817C105.87 11.2817 105.808 11.2768 105.808 11.2708ZM107.44 11.2539C107.534 11.2369 107.647 11.2293 107.69 11.237C107.732 11.2446 107.655 11.2584 107.518 11.2677C107.32 11.2812 107.304 11.2783 107.44 11.2539ZM32.7672 11.1857C32.7672 11.1737 32.8638 11.1497 32.9818 11.1322C33.1487 11.1076 33.2335 11.1071 33.3633 11.1302C33.493 11.1533 33.4839 11.1651 33.3226 11.1833C33.0602 11.2128 32.7672 11.2141 32.7672 11.1857V11.1857ZM189.839 10.9597C189.839 10.9461 189.929 10.9349 190.039 10.9349C190.15 10.9349 190.279 10.9461 190.326 10.9597C190.373 10.9733 190.283 10.9845 190.125 10.9845C189.968 10.9845 189.839 10.9733 189.839 10.9597ZM187.474 10.9334C187.474 10.9052 187.848 10.9023 187.943 10.9298C187.98 10.9406 187.89 10.9511 187.742 10.953C187.595 10.955 187.474 10.9462 187.474 10.9334ZM49.5031 10.8934C49.3779 10.8354 49.5687 10.8268 50.0496 10.869C50.3004 10.891 50.443 10.9107 50.3665 10.9128C49.7802 10.9285 49.5684 10.9237 49.5031 10.8934ZM169.805 10.8359C169.805 10.8222 169.833 10.8111 169.866 10.8111C169.9 10.8111 169.966 10.8222 170.014 10.8359C170.061 10.8495 170.033 10.8606 169.952 10.8606C169.871 10.8606 169.805 10.8495 169.805 10.8359ZM167.799 10.8144C167.739 10.7972 167.728 10.7763 167.774 10.7682C167.898 10.746 168.034 10.7786 167.967 10.8145C167.92 10.8397 167.887 10.8397 167.799 10.8144V10.8144ZM168.309 10.8195C168.025 10.799 168.112 10.7651 168.414 10.7792C168.567 10.7863 168.692 10.802 168.692 10.814C168.692 10.8376 168.584 10.8392 168.309 10.8195ZM235.008 10.6955C234.848 10.667 234.907 10.6377 235.124 10.6377C235.239 10.6377 235.333 10.6544 235.333 10.6749C235.333 10.7135 235.168 10.724 235.008 10.6955ZM62.3491 10.5438C62.3116 10.533 62.4032 10.5225 62.5526 10.5205C62.702 10.5185 62.7878 10.5273 62.7434 10.5401C62.6448 10.5685 62.4415 10.5704 62.3491 10.5438ZM63.6031 10.5012C63.6469 10.4809 63.7855 10.4635 63.9113 10.4624C64.037 10.4614 64.4216 10.4555 64.7659 10.4493C65.2174 10.4413 65.3338 10.4452 65.1833 10.4633C65.0111 10.4839 65.0091 10.4884 65.1717 10.4887C65.2801 10.4889 65.3298 10.496 65.2821 10.5045C65.2344 10.513 64.8192 10.524 64.3595 10.529C63.6631 10.5366 63.5369 10.532 63.6031 10.5012ZM6.82644 10.4413C6.72355 10.4116 6.98527 10.3823 7.17058 10.4026C7.32617 10.4198 7.22403 10.4643 7.02919 10.4643C6.9617 10.4643 6.87047 10.4539 6.82644 10.4413ZM8.14218 9.797C8.14218 9.78418 8.20407 9.76688 8.27972 9.75856C8.35858 9.74988 8.3819 9.75983 8.33439 9.78187C8.24191 9.82478 8.14218 9.83263 8.14218 9.797ZM9.16243 9.78424C9.16243 9.76441 9.21562 9.75403 9.28064 9.76119C9.34565 9.76834 9.36283 9.78457 9.3188 9.79725C9.2063 9.82966 9.16243 9.82601 9.16243 9.78424ZM251.61 6.55071C251.496 6.53751 251.464 6.5267 251.541 6.5267C251.617 6.5267 251.774 6.53751 251.889 6.55071C252.003 6.56392 252.035 6.57472 251.958 6.57472C251.882 6.57472 251.725 6.56392 251.61 6.55071ZM23.0285 4.71249C23.0285 4.70176 23.1537 4.69299 23.3068 4.69299C23.4598 4.69299 23.585 4.70344 23.585 4.71622C23.585 4.72899 23.4598 4.73777 23.3068 4.73572C23.1537 4.73366 23.0285 4.72321 23.0285 4.71249ZM28.8546 4.34872L28.5284 4.30169L29.3609 4.28201C29.8188 4.27119 30.522 4.2617 30.9237 4.26093C31.3253 4.26015 31.654 4.25194 31.6541 4.24267C31.6542 4.22339 32.4829 4.26179 32.6122 4.28708C32.6592 4.29627 32.5046 4.29726 32.2685 4.28929C32.0043 4.28036 31.6834 4.28946 31.4338 4.31294C31.2107 4.33394 30.6995 4.35219 30.2978 4.35351C29.8961 4.35483 29.5674 4.36487 29.5674 4.37583C29.5674 4.41134 29.1891 4.39695 28.8546 4.34872V4.34872ZM27.1008 4.35602C27.147 4.34779 27.267 4.34691 27.3675 4.35406C27.4785 4.36197 27.4455 4.36784 27.2834 4.36903C27.1368 4.3701 27.0546 4.36425 27.1008 4.35602V4.35602ZM24.5699 4.01389C24.5639 3.98777 24.5967 3.97314 24.6429 3.98138C24.6892 3.98961 24.6941 4.01097 24.6539 4.02885C24.6095 4.04861 24.5766 4.04274 24.5699 4.01389H24.5699ZM28.3695 3.8057C28.4083 3.7945 28.312 3.76582 28.1554 3.74195C27.8753 3.69924 27.8845 3.69738 28.7315 3.62606C29.7517 3.54017 29.8456 3.53823 29.8456 3.60312C29.8456 3.63364 29.7522 3.65281 29.6022 3.65304C29.4048 3.65335 29.396 3.65762 29.5555 3.6756C29.6638 3.6878 29.8672 3.69384 30.0077 3.68903C30.1481 3.68422 30.263 3.69163 30.263 3.70552C30.263 3.7194 30.0595 3.72878 29.8108 3.72636C29.5622 3.72394 29.2335 3.72325 29.0804 3.72485C28.8486 3.72725 28.837 3.73174 29.0109 3.75175C29.1892 3.77227 29.1842 3.77581 28.9761 3.77613C28.8422 3.77636 28.7326 3.78766 28.7326 3.80129C28.7326 3.81491 28.635 3.82605 28.5157 3.82605C28.3964 3.82605 28.3306 3.8169 28.3695 3.8057V3.8057ZM30.1484 3.60582C30.0085 3.59043 30.014 3.5801 30.1745 3.55639C30.3996 3.52312 30.579 3.55218 30.4241 3.5968C30.3688 3.61272 30.2472 3.61669 30.1484 3.60582ZM25.3241 2.5628C25.2768 2.54917 25.332 2.53803 25.4468 2.53803C25.5616 2.53803 25.6942 2.54917 25.7414 2.5628C25.7887 2.57642 25.7335 2.58757 25.6187 2.58757C25.504 2.58757 25.3714 2.57642 25.3241 2.5628ZM28.1735 2.4519C28.3738 2.40892 28.4544 2.40445 28.4544 2.4363C28.4544 2.44846 28.3516 2.46544 28.226 2.47402C28.0351 2.48706 28.0265 2.48344 28.1735 2.4519ZM224.798 2.05217C224.962 2.02314 225.852 2.00038 226.032 2.02066C226.135 2.03233 226.157 2.04315 226.081 2.04471C225.332 2.06 224.735 2.06347 224.798 2.05217ZM223.954 2.02161C223.838 2.00855 223.925 2.00135 224.197 2.00135C224.43 2.00135 224.62 2.01064 224.62 2.02199C224.62 2.04835 224.188 2.04811 223.954 2.02159V2.02161ZM220.377 1.98999C219.781 1.96625 218.335 1.94923 215.634 1.93414C214.709 1.92897 213.818 1.91199 213.654 1.89641C213.476 1.87945 212.853 1.87082 212.102 1.87491C211.412 1.87868 210.847 1.87923 210.847 1.87612C210.847 1.8675 211.656 1.79492 211.752 1.79492C211.799 1.79492 211.798 1.80606 211.751 1.81969C211.701 1.83414 211.842 1.84446 212.091 1.84446C212.325 1.84446 212.516 1.83331 212.516 1.81969C212.516 1.80606 212.583 1.79492 212.664 1.79492C212.745 1.79492 212.764 1.80885 212.707 1.82588C212.629 1.84877 212.654 1.85031 212.803 1.83176C212.913 1.81796 213.128 1.80795 213.282 1.80952C213.435 1.81107 213.892 1.81401 214.298 1.81602C214.705 1.81804 215.008 1.82805 214.972 1.83826C214.937 1.84848 215.293 1.85521 215.764 1.85322C216.235 1.8512 216.73 1.85998 216.864 1.87267C217.026 1.88807 217.107 1.88673 217.107 1.86864C217.107 1.85373 217.183 1.84986 217.276 1.86004C217.368 1.87022 217.979 1.88159 218.632 1.88531C219.286 1.88902 219.82 1.89338 219.82 1.895C219.82 1.89662 220.133 1.90154 220.516 1.90596C220.899 1.91037 221.227 1.91646 221.246 1.91947C221.279 1.92462 221.422 1.93213 221.664 1.94132C221.774 1.94554 221.121 2.01748 221.003 2.01412C220.965 2.01303 220.683 2.00217 220.377 1.98997L220.377 1.98999ZM214.742 1.86615C214.742 1.85423 214.621 1.84447 214.472 1.84447C214.324 1.84447 214.168 1.85423 214.127 1.86615C214.086 1.87807 214.207 1.88782 214.397 1.88782C214.587 1.88782 214.742 1.87807 214.742 1.86615ZM222.184 1.79453C222.136 1.78069 222.038 1.77577 221.967 1.78361C221.896 1.79145 221.838 1.78671 221.838 1.77309C221.838 1.72513 222.062 1.72437 222.228 1.77178C222.321 1.79814 222.368 1.81971 222.334 1.81971C222.3 1.81971 222.232 1.80838 222.184 1.79454V1.79453ZM219.206 1.69792C219.059 1.67181 218.91 1.65562 218.875 1.66193C218.839 1.66825 218.505 1.67715 218.133 1.68172C217.487 1.68963 216.687 1.63861 216.89 1.60248C217.052 1.57356 218.013 1.58033 218.223 1.61187C218.438 1.64416 218.829 1.64523 219.005 1.61399C219.152 1.58771 219.862 1.59347 219.96 1.62176C220.094 1.66025 219.895 1.74538 219.672 1.74538C219.562 1.74538 219.353 1.72402 219.206 1.69791V1.69792ZM220.642 1.7168C220.583 1.69973 220.603 1.6949 220.694 1.70482C220.777 1.71396 220.884 1.71011 220.932 1.69626C221.062 1.65892 221.235 1.66577 221.235 1.70824C221.235 1.75187 220.786 1.75835 220.642 1.7168ZM57.9865 1.53228C58.0327 1.52404 58.1527 1.52316 58.2531 1.53032C58.3641 1.53823 58.3312 1.5441 58.1691 1.54529C58.0224 1.54636 57.9403 1.54051 57.9865 1.53228V1.53228ZM86.052 0.828918C86.052 0.815296 86.0796 0.804149 86.1133 0.804149C86.1471 0.804149 86.2134 0.815296 86.2607 0.828918C86.308 0.842542 86.2804 0.853688 86.1993 0.853688C86.1183 0.853688 86.052 0.842542 86.052 0.828918ZM89.2961 0.831425C89.0715 0.802047 89.1252 0.759832 89.3725 0.771344C89.5303 0.77869 89.6314 0.768585 89.646 0.744037C89.6588 0.722605 89.6797 0.688351 89.6924 0.667916C89.7052 0.647481 89.8304 0.62937 89.9707 0.627666C90.1109 0.625956 90.2727 0.622269 90.3301 0.619456C90.3875 0.616638 90.6222 0.605352 90.8518 0.594365C91.3623 0.569939 91.6395 0.533451 91.5377 0.504108C91.4957 0.492029 91.5851 0.482146 91.7363 0.482146C91.8875 0.482146 92.0429 0.496077 92.0817 0.513107C92.1308 0.53462 92.1874 0.535956 92.2672 0.517494C92.4715 0.470265 92.8974 0.455524 93.1221 0.487914C93.3025 0.513911 93.3194 0.513263 93.2208 0.484127C93.1303 0.457411 93.1601 0.452944 93.3446 0.46555C93.4782 0.474679 93.672 0.482144 93.7754 0.482144C93.8788 0.482144 94.001 0.503292 94.0471 0.529141C94.101 0.55935 94.2203 0.571973 94.3811 0.564485C94.7362 0.547952 94.6995 0.486707 94.3415 0.498437C94.0586 0.507703 94.0583 0.507364 94.3299 0.484393C94.4829 0.471448 94.8201 0.460073 95.0791 0.459116C95.338 0.458151 95.9328 0.446442 96.4007 0.433079C97.6135 0.39845 100.662 0.337766 102.051 0.320608C102.702 0.312577 103.516 0.301586 103.86 0.296184C104.585 0.284805 106.018 0.266692 107.895 0.245157C108.621 0.236817 109.623 0.223854 110.121 0.216353C111.316 0.198324 113.198 0.196979 113.46 0.213976C113.574 0.221424 113.934 0.236075 114.26 0.246538C114.585 0.256998 114.851 0.27376 114.851 0.283784C114.851 0.293807 114.696 0.329566 114.507 0.363245C114.227 0.413099 114.033 0.424028 113.463 0.422043C113.047 0.420576 112.782 0.429774 112.81 0.444689C112.836 0.458481 113.339 0.470686 113.928 0.471806C114.853 0.47356 115.469 0.505609 115.259 0.541017C115.165 0.556861 113.32 0.572515 113.321 0.55747C113.321 0.550102 112.898 0.547562 112.382 0.551823C111.865 0.556085 111.083 0.54945 110.644 0.537049C110.205 0.524661 109.816 0.519813 109.78 0.526278C109.744 0.532738 109.445 0.540377 109.117 0.543252C108.789 0.546128 108.348 0.557089 108.136 0.567618C107.908 0.579003 107.68 0.576182 107.575 0.560654C107.478 0.546296 106.793 0.531972 106.053 0.528822C105.137 0.524927 104.737 0.514587 104.798 0.496431C104.847 0.481768 104.781 0.485116 104.651 0.503875C104.489 0.527335 104.238 0.532953 103.849 0.521868C103.477 0.511286 103.313 0.514459 103.371 0.531108C103.469 0.559487 103.451 0.56003 102.19 0.566061C101.693 0.568439 101.145 0.579151 100.973 0.589863C100.801 0.600576 100.66 0.600229 100.66 0.589095C100.66 0.57796 100.504 0.568849 100.312 0.568849C100.121 0.568849 99.9645 0.577209 99.9645 0.587426C99.9645 0.597644 99.8668 0.606004 99.7476 0.606004C99.6283 0.606004 99.5633 0.59659 99.6033 0.585078C99.6999 0.557263 98.2706 0.598113 98.1669 0.626135C97.977 0.677433 95.3733 0.729416 95.3733 0.681911C95.3733 0.667413 95.307 0.655543 95.226 0.655543C95.145 0.655543 95.1147 0.665921 95.1587 0.678603C95.2846 0.714857 94.9645 0.737178 94.7574 0.706585C94.6185 0.686062 94.5533 0.687317 94.5011 0.711507C94.4561 0.732394 94.2272 0.741934 93.8588 0.738267C93.544 0.735135 93.2865 0.742981 93.2865 0.755705C93.2865 0.796667 92.5717 0.769767 92.4329 0.723582C92.359 0.699022 92.2381 0.685582 92.1642 0.693716C92.0903 0.70185 92.0618 0.717715 92.1008 0.728969C92.1399 0.740222 92.0803 0.755687 91.9684 0.76333C91.8565 0.770976 91.7274 0.766395 91.6814 0.753149C91.6304 0.738466 91.4522 0.743511 91.2248 0.766071C90.7969 0.808527 89.4658 0.853636 89.2961 0.831436L89.2961 0.831425ZM87.3041 0.718919C87.3041 0.675411 87.3876 0.669006 87.5069 0.703361C87.5509 0.716043 87.5233 0.733422 87.4455 0.741976C87.3677 0.750533 87.3041 0.740181 87.3041 0.718919ZM87.8284 0.676131C87.9092 0.661736 88.0575 0.654833 88.1579 0.660789C88.2621 0.666974 88.199 0.678202 88.0109 0.68696C87.7795 0.697734 87.7252 0.694509 87.8284 0.676131ZM135.754 0.613282C135.582 0.607378 135.441 0.594039 135.441 0.583642C135.441 0.553329 136.046 0.569807 136.106 0.601749C136.136 0.617707 136.139 0.629243 136.114 0.627388C136.088 0.625526 135.926 0.619187 135.754 0.613282H135.754ZM132.867 0.556452C133.25 0.527193 133.47 0.527193 133.215 0.556452C133.1 0.56966 132.913 0.579854 132.798 0.579103C132.66 0.578206 132.684 0.57049 132.867 0.556452ZM133.71 0.558758C133.667 0.546405 133.758 0.542133 133.911 0.549264C134.236 0.564389 134.277 0.58122 133.989 0.58122C133.878 0.58122 133.753 0.571111 133.71 0.558758ZM115.8 0.502704C115.581 0.463517 115.68 0.460799 117.4 0.458954C118.408 0.45786 119.373 0.452184 119.543 0.446315C119.714 0.440446 119.886 0.445 119.926 0.456429C119.965 0.46786 120.189 0.474852 120.423 0.471964C121.057 0.464163 121.06 0.500225 120.427 0.51097C120.127 0.516051 119.912 0.51163 119.949 0.501174C120.063 0.468273 119.849 0.48048 119.631 0.519295C119.394 0.561433 118.806 0.56902 118.676 0.531614C118.619 0.515122 118.499 0.515505 118.318 0.532753C118.01 0.562102 117.72 0.542157 117.861 0.501364C117.923 0.483525 117.889 0.481829 117.759 0.496318C117.652 0.50833 117.219 0.524082 116.799 0.531322C116.196 0.54168 115.984 0.535589 115.8 0.5027V0.502704ZM126.955 0.531677C126.955 0.518054 126.982 0.506909 127.016 0.506909C127.05 0.506909 127.116 0.518054 127.163 0.531677C127.211 0.545301 127.183 0.556447 127.102 0.556447C127.021 0.556447 126.955 0.545301 126.955 0.531677ZM121.39 0.482138C121.264 0.467711 121.247 0.457974 121.347 0.457747C121.438 0.457522 121.551 0.468514 121.598 0.482138C121.705 0.512891 121.657 0.512891 121.39 0.482138ZM175.73 0.47876C175.802 0.458023 175.271 0.43363 175.164 0.452744C175.015 0.479374 174.396 0.484405 174.396 0.458989C174.396 0.443268 174 0.43948 173.318 0.448674C172.481 0.459948 172.131 0.454138 171.753 0.422765C171.485 0.400527 171.371 0.387441 171.5 0.393687C171.629 0.399933 171.755 0.395352 171.779 0.383522C171.803 0.371688 171.916 0.358383 172.031 0.353953C172.146 0.349529 172.286 0.334758 172.342 0.321133C172.398 0.307509 172.445 0.320774 172.446 0.350627C172.448 0.401923 172.469 0.402944 172.831 0.369306C173.174 0.337385 173.233 0.338173 173.406 0.376967C173.589 0.418097 173.595 0.418093 173.515 0.376967C173.45 0.343514 173.508 0.33362 173.768 0.33362C173.953 0.33362 174.168 0.353127 174.246 0.376967C174.325 0.401023 174.39 0.406534 174.392 0.389352C174.396 0.356917 174.814 0.34466 174.814 0.376967C174.814 0.387184 175.287 0.3949 175.865 0.394113C176.444 0.393323 176.948 0.401684 176.986 0.41269C177.025 0.423694 177.19 0.432697 177.354 0.432697C177.592 0.432697 177.617 0.438891 177.478 0.463659C177.304 0.49466 175.624 0.509266 175.73 0.478861V0.47876ZM178.013 0.478015C178.013 0.466661 178.06 0.456621 178.118 0.455701C178.175 0.454781 178.422 0.449363 178.667 0.443663C179.218 0.430841 179.414 0.473334 178.884 0.490695C178.361 0.507859 178.013 0.502805 178.013 0.478015ZM167.997 0.395447C167.997 0.381825 167.762 0.370679 167.475 0.370679C167.188 0.370679 166.907 0.381825 166.851 0.395447C166.783 0.411961 166.748 0.411961 166.746 0.395447C166.743 0.364415 165.91 0.357074 165.91 0.388082C165.91 0.400554 165.853 0.404497 165.783 0.396845C165.651 0.382265 164.427 0.358857 163.127 0.346039C162.706 0.341889 162.362 0.335991 162.362 0.33293C162.362 0.316329 160.531 0.316072 160.414 0.332661C160.205 0.362269 158.814 0.382925 158.814 0.356419C158.814 0.343827 158.72 0.333526 158.605 0.333526C158.491 0.333526 158.397 0.344281 158.397 0.357429C158.397 0.372353 157.417 0.376927 155.788 0.36961C154.354 0.363165 153.029 0.358007 152.844 0.35815C152.659 0.358374 152.299 0.348132 152.044 0.335577C151.765 0.32185 151.58 0.321764 151.58 0.335353C151.58 0.357862 151.093 0.354216 150.961 0.330716C150.923 0.323938 150.29 0.322354 149.554 0.327199C148.667 0.333037 148.15 0.326213 148.02 0.306958C147.867 0.284332 147.823 0.285427 147.821 0.311904C147.82 0.333382 147.781 0.336373 147.717 0.320023C147.656 0.304493 146.864 0.292917 145.736 0.291066C144.703 0.289379 141.573 0.281601 138.78 0.273811C135.987 0.266023 132.403 0.258164 130.815 0.25635C129.228 0.254555 127.928 0.246077 127.928 0.237553C127.928 0.229025 127.584 0.222049 127.163 0.222049C126.742 0.222049 126.398 0.230409 126.398 0.240626C126.398 0.250844 126.332 0.259204 126.251 0.259204C126.17 0.259204 126.142 0.248058 126.189 0.234434C126.237 0.220811 126.178 0.209665 126.059 0.209665C125.939 0.209677 125.842 0.19853 125.842 0.184908C125.842 0.171284 125.775 0.160137 125.694 0.160137C125.613 0.160137 125.586 0.171284 125.633 0.184908C125.684 0.199538 125.53 0.209523 125.259 0.209297C124.91 0.208983 124.849 0.20308 125.007 0.184908C125.161 0.167174 125.168 0.160797 125.032 0.160517C124.89 0.160203 124.896 0.151596 125.057 0.122983C125.171 0.102548 125.395 0.0858282 125.553 0.0858282C125.712 0.0858282 125.842 0.0739302 125.842 0.0593882C125.842 0.0437049 125.962 0.039747 126.137 0.0496601C126.336 0.0609026 126.402 0.0573972 126.338 0.0389447C126.285 0.0238595 126.28 0.011519 126.325 0.011519C126.37 0.011519 126.455 0.0344429 126.513 0.0624621L126.619 0.113407L126.986 0.062026C127.237 0.026808 127.383 0.0194054 127.449 0.0384977C127.518 0.0582445 127.58 0.0565712 127.663 0.0327429C127.757 0.00543125 128.712 -0.00069205 132.758 5.94542e-05C135.496 0.000584386 138.864 0.00814134 140.241 0.0168951C141.618 0.0256471 143.903 0.0392709 145.319 0.0471709C150.431 0.0756895 151.747 0.0860543 151.862 0.0986576C152.118 0.126819 153.239 0.1518 153.409 0.133122C153.513 0.121612 153.635 0.125721 153.698 0.142868C153.778 0.164997 153.84 0.163093 153.943 0.135367C154.018 0.114932 154.081 0.109359 154.082 0.122983C154.083 0.138616 154.944 0.146648 156.414 0.144759C158.738 0.141771 162.71 0.181756 162.71 0.20815C162.71 0.215802 163.195 0.220807 163.788 0.219278C164.804 0.216653 167.145 0.250551 167.56 0.273904C167.713 0.28252 167.716 0.29178 167.575 0.322003C167.433 0.352461 167.437 0.357404 167.594 0.348546C167.701 0.342561 167.962 0.330832 168.176 0.322483C168.415 0.313129 168.533 0.295697 168.484 0.277067C168.44 0.260437 168.476 0.26428 168.566 0.2856C168.697 0.316955 168.875 0.320801 169.5 0.305707C169.94 0.295093 170.378 0.297066 170.517 0.310282C170.651 0.323067 170.937 0.335043 171.152 0.336898C171.513 0.340003 171.518 0.34116 171.209 0.351532C170.949 0.360247 170.917 0.367802 171.069 0.384934C171.284 0.409174 171.104 0.41221 169.144 0.417262C168.461 0.419016 167.996 0.410202 167.997 0.395449L167.997 0.395447ZM127.562 0.172664C127.518 0.152305 127.426 0.141819 127.357 0.149357C127.161 0.170971 127.212 0.209674 127.437 0.209674C127.561 0.209674 127.61 0.195145 127.562 0.172664ZM119.448 0.257336C119.591 0.209703 119.582 0.204294 119.385 0.217747C119.189 0.231167 119.18 0.225743 119.322 0.178664L119.486 0.123999L119.624 0.179223C119.783 0.242581 120.07 0.251793 120.188 0.19729C120.232 0.176855 120.218 0.160135 120.156 0.160135C120.095 0.160135 120.045 0.14328 120.045 0.122676C120.045 0.0922211 120.17 0.0881851 120.717 0.101097C121.177 0.111946 121.39 0.108119 121.39 0.0890205C121.39 0.0734883 121.61 0.061058 121.885 0.061058C122.209 0.061058 122.347 0.0704405 122.285 0.0882989C122.218 0.107665 122.275 0.107501 122.483 0.0877293C122.725 0.0646193 122.761 0.0662954 122.693 0.0976423C122.649 0.118391 122.556 0.135369 122.488 0.135369C122.419 0.135369 122.364 0.146515 122.364 0.160137C122.364 0.21177 122.615 0.181928 122.781 0.110598C122.974 0.0274095 122.979 0.0269522 123.328 0.0601831C123.504 0.0769468 123.558 0.103121 123.51 0.147904C123.473 0.183011 123.497 0.208486 123.564 0.204512C123.63 0.200542 123.716 0.208182 123.755 0.221499C123.796 0.235817 123.465 0.247422 122.945 0.249908C122.142 0.253749 122.053 0.249011 121.914 0.194739C121.765 0.136221 121.251 0.110559 121.251 0.161598C121.251 0.176029 121.312 0.181021 121.388 0.172698C121.466 0.164156 121.491 0.173641 121.446 0.194441C121.4 0.21599 121.275 0.225072 121.147 0.216288C121.004 0.206519 120.961 0.211146 121.025 0.229513C121.137 0.261754 120.674 0.28556 120.138 0.275191C119.946 0.271499 119.675 0.278381 119.536 0.290489C119.308 0.310216 119.299 0.306775 119.448 0.257337V0.257336ZM123.253 0.164265C123.293 0.152912 123.237 0.143624 123.129 0.143624C123.021 0.143624 122.965 0.152912 123.004 0.164265C123.043 0.175617 123.099 0.184906 123.129 0.184906C123.158 0.184906 123.214 0.175617 123.253 0.164265ZM117.574 0.26203C117.532 0.249955 117.622 0.234269 117.775 0.227169C117.959 0.218571 118.023 0.201086 117.967 0.174815C117.92 0.153118 117.941 0.135366 118.013 0.135366C118.203 0.135366 118.173 0.216279 117.968 0.252728C117.76 0.289699 117.676 0.291675 117.574 0.26203ZM118.427 0.193162C118.466 0.174997 118.516 0.160135 118.538 0.160135C118.559 0.160135 118.609 0.174997 118.649 0.193162C118.688 0.211328 118.638 0.22619 118.538 0.22619C118.437 0.22619 118.387 0.211328 118.427 0.193162ZM118.963 0.123769C119.112 0.103768 119.37 0.0870486 119.538 0.0866148C119.87 0.0857399 120.081 0.123318 119.873 0.146196C119.802 0.154032 119.72 0.14764 119.691 0.131969C119.651 0.11057 119.563 0.110529 119.34 0.131745C118.912 0.172494 118.643 0.166752 118.963 0.1237V0.123769ZM117.114 0.1204C117.161 0.112169 117.281 0.111289 117.381 0.118448C117.492 0.126354 117.459 0.132224 117.297 0.133411C117.15 0.134484 117.068 0.128633 117.114 0.120403V0.1204ZM124.45 0.110594C124.272 0.0900757 124.277 0.086527 124.485 0.0862027C124.619 0.0859783 124.729 0.0969698 124.729 0.110594C124.729 0.140804 124.713 0.140804 124.45 0.110594ZM123.703 0.072868C123.637 0.0420859 123.673 0.0399657 123.897 0.0613537C124.22 0.0920829 124.25 0.110594 123.978 0.110594C123.872 0.110594 123.748 0.0936163 123.703 0.072868Z" fill="url(#paint0_linear_10934_4363)"/>
<defs>
<linearGradient id="paint0_linear_10934_4363" x1="4.69387e-07" y1="6" x2="252" y2="6.00001" gradientUnits="userSpaceOnUse">
<stop stop-color="#00E283"/>
<stop offset="1" stop-color="#0085FF"/>
</linearGradient>
</defs>
</svg>
