<svg width="218" height="12" viewBox="0 0 218 12" fill="none" xmlns="http://www.w3.org/2000/svg">
	<path d="M56.8701 11.9367C56.8701 11.9018 56.8176 11.8799 56.7534 11.8881C56.6892 11.8963 56.5566 11.8635 56.4587 11.8153C56.3554 11.7644 56.1961 11.7276 56.0792 11.7276C55.9201 11.7276 55.9072 11.7203 56.0179 11.6928C56.1256 11.6661 56.122 11.6556 56.0026 11.6473C55.8803 11.6388 55.8856 11.6269 56.0277 11.5913C56.1652 11.5569 56.1724 11.5437 56.0577 11.5357C55.975 11.53 55.9073 11.5144 55.9073 11.5011C55.9073 11.4878 55.9608 11.4838 56.0263 11.4921C56.0945 11.5008 56.1147 11.4908 56.0736 11.4688C56.0342 11.4476 56.0638 11.4303 56.1394 11.4303C56.2395 11.4303 56.2419 11.4169 56.148 11.3808C56.0445 11.341 56.0565 11.3313 56.2087 11.3313C56.3618 11.3313 56.3693 11.3249 56.2475 11.2981C56.0917 11.2637 55.789 11.2944 55.8285 11.3405C55.8388 11.3525 55.7837 11.367 55.7061 11.3729C55.6134 11.38 55.589 11.3649 55.6348 11.3288C55.6732 11.2986 55.6554 11.2799 55.5953 11.2871C55.5352 11.2944 55.3777 11.2921 55.2453 11.2821C55.0545 11.2676 55.1105 11.2601 55.5161 11.2458C55.8351 11.2346 56.0276 11.2147 56.0276 11.1928C56.0276 11.1736 56.1329 11.1579 56.2615 11.1579C56.3902 11.1579 56.5695 11.1361 56.66 11.1095C56.8224 11.0618 57.4354 10.9967 57.6341 11.0061C57.6903 11.0087 58.0423 10.995 58.4164 10.9755C58.7906 10.9561 59.4353 10.9324 59.8491 10.9228C60.2629 10.9132 60.6317 10.8953 60.6686 10.883C60.7055 10.8707 60.8543 10.8604 60.9994 10.8601C61.1444 10.8598 61.588 10.8266 61.9852 10.7863C62.3823 10.7461 62.7989 10.7129 62.9108 10.7126C63.0227 10.7123 63.1478 10.7009 63.1887 10.6872C63.2296 10.6736 63.202 10.6625 63.1273 10.6625C62.9605 10.6625 63.0206 10.5517 63.1887 10.5493C63.2549 10.5483 63.5465 10.5336 63.8367 10.5165C64.1269 10.4994 64.4966 10.4922 64.6581 10.5006C64.8196 10.5089 65.1238 10.5048 65.334 10.4915C65.5442 10.4781 66.0183 10.455 66.3877 10.4402C67.4014 10.3993 67.9427 10.3652 67.9427 10.3422C67.9427 10.3183 61.7686 10.335 60.24 10.363C59.4347 10.3777 59.1274 10.3737 58.7958 10.344C58.5641 10.3233 58.3475 10.3047 58.3144 10.3027C58.2813 10.3008 58.0959 10.2857 57.9025 10.2693C57.709 10.2528 57.4653 10.2462 57.3609 10.2546C57.2565 10.263 55.6545 10.2738 53.8011 10.2787C51.9477 10.2836 50.1875 10.2987 49.8896 10.3123C49.5917 10.3258 48.699 10.3499 47.9059 10.3657C47.1127 10.3815 46.3601 10.4058 46.2335 10.4198C46.1068 10.4337 45.7387 10.4399 45.4154 10.4335C45.0921 10.4271 44.7983 10.4316 44.7626 10.4435C44.727 10.4554 44.6473 10.4587 44.5857 10.4509C44.5241 10.443 44.4737 10.4484 44.4737 10.4629C44.4737 10.4773 44.4331 10.4869 44.3834 10.4842C44.1832 10.4733 43.1498 10.5183 43.1498 10.538C43.1498 10.5621 42.2406 10.6023 41.8969 10.5934C41.7704 10.5901 41.5652 10.6098 41.4409 10.6373C41.3165 10.6648 41.1221 10.6886 41.0088 10.6902C40.8956 10.6918 40.4779 10.6955 40.0808 10.6984C39.6836 10.7014 39.142 10.7167 38.8772 10.7324C38.6124 10.7481 38.1912 10.7672 37.9411 10.7749C37.6911 10.7826 37.5158 10.7986 37.5517 10.8106C37.6638 10.8479 37.3963 10.8576 35.3053 10.8926C35.1942 10.8945 35.1129 10.9066 35.1248 10.9195C35.1366 10.9324 35.0379 10.9495 34.9055 10.9575C34.7732 10.9655 34.5281 10.9912 34.361 11.0146C34.1424 11.0452 33.6866 11.0616 32.7362 11.0731C32.0097 11.0819 31.2901 11.0879 31.1371 11.0865C30.9841 11.085 30.6926 11.1016 30.4893 11.1232C30.2793 11.1455 30.0875 11.1527 30.0453 11.1398C29.9417 11.1081 29.518 11.0777 29.6108 11.1086C29.7087 11.1412 29.5915 11.1395 29.2711 11.1038C28.6243 11.0316 25.5624 11.0865 25.243 11.1759C25.1441 11.2036 25.1333 11.2223 25.2129 11.2278C25.2814 11.2325 25.3374 11.2462 25.3374 11.2582C25.3374 11.2703 25.2617 11.2742 25.1691 11.2669C25.0765 11.2596 24.9649 11.2655 24.9212 11.28C24.8045 11.3189 25.5258 11.3133 25.9151 11.2723C26.0938 11.2534 26.4838 11.2298 26.7817 11.2198C27.0795 11.2098 27.418 11.198 27.5339 11.1935C27.6497 11.1891 27.7445 11.2001 27.7445 11.2179C27.7445 11.2409 27.8942 11.248 28.256 11.2421C28.6514 11.2358 28.7191 11.2397 28.5543 11.2593C28.4371 11.2733 28.3683 11.2938 28.4014 11.3048C28.4729 11.3286 27.8 11.3525 26.4973 11.3725C25.7658 11.3837 25.5271 11.3793 25.446 11.353C25.3699 11.3282 25.3406 11.3274 25.3393 11.3498C25.3365 11.3954 24.6131 11.3881 24.354 11.3398C24.2329 11.3173 24.1339 11.3094 24.1339 11.3222C24.1339 11.3365 23.7432 11.339 23.141 11.3287C22.5949 11.3193 21.7418 11.3055 21.2454 11.298C20.7489 11.2905 20.1648 11.2714 19.9474 11.2555C19.73 11.2397 19.4173 11.232 19.2525 11.2385C19.0877 11.245 18.9188 11.2389 18.877 11.225C18.8304 11.2095 18.8618 11.2075 18.9587 11.2198C19.0567 11.2323 19.087 11.2301 19.0389 11.2141C18.9483 11.1839 18.3743 11.1566 17.6949 11.1501C17.2942 11.1463 17.2113 11.1366 17.2005 11.0923C17.1888 11.0447 17.2718 11.037 17.9828 11.0201C18.4202 11.0096 18.9135 11.0035 19.079 11.0065L19.3799 11.0118L19.0606 10.9761C18.5068 10.9141 17.9668 10.888 16.9126 10.8721C16.35 10.8636 15.5376 10.8385 15.1073 10.8162C14.1177 10.7651 10.6839 10.7611 10.5342 10.811C10.4826 10.8282 10.3767 10.8341 10.2989 10.8242C10.0978 10.7986 7.88298 10.79 7.95832 10.8151C8.02879 10.8386 8.01086 10.839 6.43643 10.8488C5.32521 10.8557 4.85617 10.8642 3.19231 10.9073C2.43362 10.927 1.99004 10.9157 1.55642 10.8658C1.37483 10.8449 1.41397 10.833 1.8513 10.7762C2.20404 10.7303 2.63497 10.7034 3.28544 10.6865C4.39549 10.6576 5.45462 10.6212 6.21768 10.5857C6.67412 10.5645 6.76516 10.5514 6.71733 10.5138C6.683 10.4868 6.58919 10.4733 6.49018 10.4811C6.39741 10.4884 6.32151 10.4821 6.32151 10.467C6.32151 10.4519 6.41628 10.4394 6.53212 10.4392C6.71212 10.4389 6.71649 10.4353 6.56222 10.4148C6.44804 10.3996 6.43559 10.3906 6.52835 10.3904C6.60924 10.3902 6.64383 10.3733 6.60549 10.3527C6.5571 10.3268 6.67718 10.3025 7.00041 10.273L7.46487 10.2305L6.28894 10.2155C5.64218 10.2073 4.78917 10.2017 4.39336 10.2031C3.99756 10.2045 3.67372 10.2042 3.67372 10.2025C3.67372 10.2008 3.78204 10.1737 3.91443 10.1423C4.04682 10.1109 4.15514 10.0927 4.15514 10.1019C4.15514 10.1112 4.2771 10.1023 4.42616 10.0821C4.57522 10.062 5.09868 10.0328 5.58941 10.0171C6.08013 10.0014 6.69613 9.97304 6.95829 9.954C7.22046 9.93496 7.63124 9.91899 7.87115 9.9185C8.54141 9.91715 10.2298 9.8268 9.74156 9.81841C9.68088 9.81737 9.52292 9.81139 9.39053 9.80512C9.25814 9.79885 9.08369 9.79074 9.00286 9.78709C8.7275 9.77467 8.70991 9.75056 8.9641 9.73395C9.10361 9.72484 9.35932 9.69038 9.53234 9.65738C9.70536 9.62438 9.96778 9.59738 10.1155 9.59738C10.2632 9.59738 10.4459 9.58206 10.5214 9.56333C10.6342 9.53535 10.535 9.52638 9.96443 9.51301C9.58259 9.50406 9.1077 9.49133 8.90911 9.48474C8.43667 9.46904 6.55671 9.47131 6.42759 9.48773C6.25339 9.50989 4.87726 9.52034 4.87726 9.49951C4.87726 9.48856 4.9585 9.46572 5.05779 9.44876C5.15708 9.4318 5.23832 9.40629 5.23832 9.39206C5.23832 9.37784 5.20268 9.37353 5.15913 9.3825C5.11557 9.39146 5.00726 9.38638 4.91842 9.37121C4.82899 9.35593 4.75691 9.35419 4.75691 9.3673C4.75691 9.38032 4.67567 9.39097 4.57638 9.39097C4.28733 9.39097 4.36662 9.36444 4.76382 9.32826C5.2105 9.28757 5.14654 9.2705 4.42642 9.23822C3.76951 9.20878 3.64428 9.16264 4.11527 9.12357C4.60269 9.08313 6.89271 9.03065 8.2018 9.02992C8.81541 9.02956 9.46113 9.02187 9.63673 9.0128L9.95601 8.99631L9.61309 8.93857C9.42449 8.90682 9.1786 8.88044 9.06666 8.87995C8.78138 8.87871 8.69467 8.83931 8.8477 8.78046C9.00927 8.71833 10.0562 8.6066 10.4768 8.6066C10.6542 8.6066 10.7567 8.59591 10.7144 8.58183C10.6735 8.5682 10.5407 8.55706 10.4193 8.55706C10.2154 8.55706 9.9887 8.49522 10.0334 8.45179C10.0788 8.40763 8.16923 8.45701 8.00942 8.50412C7.88737 8.5401 4.81407 8.63412 4.51194 8.61112L4.22423 8.58921L4.5041 8.55839C4.65802 8.54144 5.65796 8.49758 6.72619 8.46093C8.68091 8.39386 9.15664 8.34651 7.87577 8.34651C7.4822 8.34651 7.12013 8.33237 7.00242 8.31239C6.83524 8.28401 6.60376 8.28322 5.62869 8.30773C3.83575 8.3528 2.79375 8.38375 2.54939 8.3992C2.38749 8.40944 2.3388 8.4021 2.36886 8.37198C2.41266 8.32808 2.78501 8.27658 3.36876 8.23367C3.87122 8.19674 3.55889 8.16418 2.91644 8.18652C2.6379 8.1962 2.16629 8.21198 1.86841 8.22158L1.32682 8.23903L1.77815 8.15001C2.02638 8.10105 2.22948 8.05701 2.22948 8.05214C2.22948 8.04728 1.89363 8.03547 1.48316 8.02591C0.512639 8.00332 -0.00665865 7.94732 6.44661e-05 7.866C0.00359607 7.82311 0.782199 7.76557 1.50667 7.75466C1.80492 7.75017 2.48222 7.72878 3.01177 7.70714C3.54133 7.6855 4.35379 7.66277 4.81723 7.65664C5.28068 7.65051 5.98474 7.63375 6.38183 7.6194C8.84795 7.53028 9.403 7.50835 9.5093 7.4958C9.57462 7.48809 9.38506 7.46961 9.08806 7.45473C8.78918 7.43975 8.54805 7.41314 8.54805 7.39514C8.54805 7.35346 9.7611 7.26291 10.862 7.22242C11.3976 7.20273 11.7938 7.17342 11.9235 7.14392C12.0397 7.11751 12.4425 7.08421 12.8412 7.06807C13.7455 7.03145 13.7211 6.99672 12.7384 6.92199C12.5278 6.90597 12.3798 6.87997 12.4096 6.86421C12.4775 6.82835 13.0354 6.77364 13.3331 6.77364C13.4562 6.77364 13.5235 6.76249 13.4826 6.74887C13.4416 6.73525 13.0052 6.7241 12.5126 6.7241C11.7011 6.7241 11.3752 6.69878 11.7675 6.6662C12.1181 6.63709 10.3616 6.65285 9.49409 6.68659C8.41374 6.72862 7.82593 6.71103 7.82593 6.63667C7.82593 6.60239 8.1403 6.55738 9.00727 6.46753C9.82399 6.38289 10.1397 6.33861 10.0303 6.32406C9.82236 6.29643 10.0276 6.26817 10.8348 6.2133C11.9741 6.13585 12.878 6.00603 12.7593 5.93687C12.6783 5.88964 13.1224 5.86387 14.9571 5.80937C15.869 5.78228 16.7823 5.74295 16.9866 5.72198C17.1909 5.701 17.6234 5.6773 17.9477 5.6693C18.842 5.64724 20.5532 5.55815 20.8208 5.51971C20.9514 5.50096 21.2222 5.48483 21.4226 5.48388C21.623 5.48292 21.8953 5.47256 22.0277 5.46085C22.2194 5.4439 22.1703 5.43882 21.787 5.43591C20.7611 5.42814 20.2168 5.40732 20.0808 5.37067C19.9879 5.34565 19.8429 5.33795 19.6595 5.34832C19.4189 5.36193 19.4096 5.36031 19.5927 5.3367C19.7097 5.32161 19.8993 5.31244 20.0139 5.31632C20.1286 5.3202 20.2952 5.31398 20.3843 5.3025C20.4801 5.29014 20.6674 5.29497 20.8431 5.31431C21.0744 5.33979 21.1901 5.34055 21.3676 5.31774C21.5117 5.29923 21.622 5.29739 21.6681 5.31274C21.7082 5.32608 22.0492 5.3374 22.4259 5.33788C22.8027 5.33836 23.2463 5.35469 23.4118 5.37416C23.7723 5.41657 23.8932 5.41968 23.8932 5.38654C23.8932 5.37292 23.8087 5.36177 23.7055 5.36177C23.6023 5.36177 23.5476 5.35189 23.5838 5.33982C23.6201 5.32774 23.5363 5.31176 23.3977 5.3043C23.2591 5.29684 23.1692 5.27607 23.198 5.25814C23.2511 5.22505 23.7902 5.20567 25.4578 5.17688C26.9644 5.15087 27.3834 5.13687 27.3834 5.11256C27.3834 5.09977 27.3022 5.08931 27.2029 5.08931C27.1026 5.08931 27.0224 5.06729 27.0224 5.03977C27.0224 5.00344 27.1026 4.99023 27.3233 4.99023C27.6695 4.99023 27.7285 4.95208 27.4089 4.93488C27.2905 4.92851 26.6812 4.92925 26.0549 4.93652C24.2308 4.95771 23.5011 4.95066 23.1195 4.90816C22.9257 4.88657 22.7324 4.87333 22.6899 4.87872C22.6475 4.88412 22.6352 4.85715 22.6626 4.8188C22.7222 4.73512 22.553 4.72207 21.3172 4.71507C20.5776 4.71088 20.5202 4.70712 20.7772 4.67971C21.2001 4.6346 22.7512 4.56988 23.6762 4.55873C24.1489 4.55304 24.5954 4.5327 24.756 4.50954C25.0979 4.46026 25.304 4.45964 25.5351 4.50722C25.6391 4.52862 25.9289 4.54414 26.2186 4.54384C27.1106 4.54289 30.4388 4.47323 30.8906 4.44604C31.3126 4.42066 31.3254 4.41656 31.2364 4.33532C31.1803 4.28413 31.1929 4.24088 31.2685 4.22533C31.3543 4.20766 31.3506 4.18917 31.2566 4.16585C30.9691 4.09455 31.3348 4.07979 33.0912 4.09181C34.4559 4.10115 34.8817 4.09603 35.1586 4.06697C35.4516 4.03622 36.7725 3.9938 37.6737 3.98621C37.8061 3.9851 38.1852 3.97422 38.5162 3.96204L39.1179 3.9399L38.5763 3.92188C38.2785 3.91197 37.3848 3.90954 36.5905 3.91649C35.7962 3.92344 34.6588 3.92764 34.0631 3.92583C33.4673 3.92401 32.3029 3.94069 31.4755 3.96288C29.8383 4.00679 28.1499 4.0375 27.423 4.0366C27.1696 4.03628 26.9282 4.04576 26.8866 4.05765C26.845 4.06955 26.6419 4.08071 26.4353 4.08245C26.2286 4.08419 26.0595 4.09484 26.0595 4.10611C26.0595 4.11739 25.9377 4.11957 25.7887 4.11095C25.5768 4.09868 25.5572 4.10092 25.6985 4.12128C25.8541 4.14371 25.85 4.14735 25.6684 4.14768C25.5526 4.1479 25.4578 4.16048 25.4578 4.17567C25.4578 4.19264 25.3433 4.18786 25.1611 4.16329C24.8317 4.11886 24.6872 4.11188 24.7874 4.14524C24.8236 4.15731 24.7456 4.17299 24.6139 4.18008C24.477 4.18745 24.3746 4.18071 24.3746 4.16431C24.3745 4.14773 24.1845 4.13567 23.9232 4.13567C23.6364 4.13567 23.4822 4.14652 23.5001 4.16545C23.5195 4.18594 23.3898 4.19158 23.0841 4.18352C22.5831 4.17032 22.0888 4.11261 22.086 4.06698C22.0847 4.04748 22.0424 4.0499 21.9675 4.07375C21.877 4.10258 21.8504 4.09529 21.849 4.04115C21.8466 3.95182 22.0449 3.87559 22.2797 3.87559C22.3806 3.87559 22.4297 3.86444 22.3887 3.85082C22.3478 3.8372 22.4123 3.8252 22.5321 3.82415C22.9287 3.8207 23.1806 3.80569 23.4487 3.76953C23.6892 3.73711 24.2542 3.74959 24.2542 3.78732C24.2542 3.79414 24.1817 3.79399 24.093 3.78696C24.0043 3.77996 23.8554 3.79359 23.762 3.81726C23.6157 3.85435 23.6159 3.85737 23.7633 3.8391C23.8948 3.82279 23.9147 3.82838 23.8495 3.86332C23.7988 3.8905 23.8269 3.91686 23.9193 3.92893C24.1496 3.959 24.3435 3.95335 24.134 3.92267C23.9982 3.90277 24.0679 3.89951 24.4157 3.90947C24.6714 3.9168 24.9763 3.91008 25.098 3.89444C25.2645 3.87303 25.3608 3.87347 25.4943 3.89626C25.6364 3.92054 25.6886 3.91785 25.7638 3.88239C25.8152 3.8582 25.8486 3.83005 25.8381 3.81983C25.8276 3.80961 25.8957 3.80125 25.9895 3.80125C26.0832 3.80125 26.1806 3.7885 26.2059 3.77292C26.2311 3.75734 26.4106 3.74111 26.6048 3.73685C26.799 3.73258 27.0184 3.71207 27.0924 3.69125C27.1663 3.67043 27.2707 3.66159 27.3244 3.6716C27.378 3.6816 27.3879 3.67028 27.3463 3.64644C27.2533 3.59308 27.4835 3.58809 27.5827 3.64132C27.6458 3.67515 27.68 3.67471 27.8799 3.63748C28.0932 3.59774 28.1058 3.59802 28.1075 3.6426C28.1091 3.68213 28.1283 3.68376 28.226 3.65263C28.4 3.59724 28.3751 3.58518 28.053 3.56854C27.8487 3.55799 27.7654 3.53755 27.7787 3.50124C27.7999 3.44338 28.2192 3.40014 28.7022 3.40598C29.1525 3.41142 29.5499 3.37955 29.5499 3.33799C29.5499 3.31124 29.6696 3.30339 30.0013 3.30838C30.4863 3.31566 31.3024 3.28779 31.596 3.25389C31.7417 3.23707 31.7302 3.23268 31.5358 3.23113C31.4034 3.23008 31.0243 3.22398 30.6933 3.21759C29.6699 3.19785 28.3086 3.19847 27.8175 3.21891C27.4804 3.23294 27.3723 3.23057 27.4326 3.2105C27.4844 3.19326 27.4518 3.18768 27.3474 3.19593C27.2484 3.20375 27.0887 3.18107 26.9617 3.14118C26.8066 3.09247 26.7862 3.07025 26.8901 3.06312C26.9876 3.05643 26.964 3.04166 26.8183 3.01813C26.6205 2.9862 26.6332 2.98424 26.9623 2.99601C27.1609 3.00311 27.2557 3.00235 27.1729 2.99432C26.8681 2.96475 27.036 2.93431 27.5039 2.93431C27.8078 2.93431 27.986 2.94573 27.9871 2.96528C27.9885 2.98806 28.0163 2.98736 28.0925 2.96263C28.1575 2.94152 28.2241 2.9384 28.2716 2.95423C28.3524 2.98114 28.5056 2.97905 28.8818 2.9459C29.0108 2.93454 29.2943 2.92449 29.5119 2.92358C30.0107 2.9215 30.1727 2.86001 29.6794 2.86001C29.4842 2.86001 29.3049 2.8439 29.2657 2.82285C29.2189 2.79778 29.2715 2.7857 29.4273 2.7857C29.5544 2.7857 29.7016 2.77176 29.7545 2.75474C29.8926 2.71033 30.383 2.65774 30.5093 2.6738C30.5682 2.68129 30.6505 2.67611 30.6921 2.66225C30.7336 2.64841 30.9171 2.63708 31.0998 2.63708C31.2824 2.63708 31.726 2.61898 32.0856 2.59686C32.6531 2.56193 32.7041 2.55391 32.4722 2.53601C32.3254 2.52468 31.3204 2.51691 30.239 2.51876C29.1577 2.52062 28.2021 2.51312 28.1156 2.50212C28.0261 2.49073 27.9229 2.49392 27.876 2.50954C27.7793 2.54174 24.038 2.56615 23.945 2.53519C23.9123 2.5243 23.8015 2.52203 23.6988 2.53015C23.5723 2.54014 23.5557 2.55045 23.6472 2.56209C23.7216 2.57155 23.6178 2.57928 23.4166 2.57928C23.2154 2.57928 23.0508 2.56863 23.0508 2.55561C23.0508 2.54259 22.9682 2.54604 22.8674 2.56327C22.7665 2.5805 22.6454 2.58667 22.5984 2.57699C22.5513 2.5673 22.6474 2.5383 22.8119 2.51253L23.111 2.46567L22.8101 2.47757C22.5464 2.488 22.539 2.48657 22.7499 2.46594C23.097 2.432 23.6675 2.43551 24.0018 2.47365C24.3278 2.51082 24.7358 2.49857 24.7358 2.45162C24.7358 2.42999 24.9734 2.42027 25.5181 2.41964C26.0089 2.41907 26.3004 2.42887 26.3004 2.44595C26.3004 2.46091 26.368 2.4549 26.4508 2.43257C26.5595 2.40325 26.8853 2.38757 27.6242 2.37609C28.1869 2.36734 28.9891 2.34447 29.4069 2.32525C29.8248 2.30603 30.3393 2.28923 30.5503 2.28793C30.7613 2.28661 31.2048 2.27033 31.5357 2.25173C32.1 2.22001 32.0363 2.21875 30.5127 2.23142C29.6191 2.23885 28.8067 2.24511 28.7074 2.24534C28.6081 2.24556 27.3625 2.27187 25.9393 2.3038C24.5161 2.33574 22.9645 2.36527 22.4913 2.36943C22.0181 2.37359 21.6557 2.38536 21.686 2.39557C21.7163 2.40579 21.5077 2.4142 21.2225 2.41425C20.9373 2.41425 20.2165 2.4305 19.6207 2.45023C18.5991 2.48408 16.196 2.51898 16.5224 2.49523C16.6055 2.48918 16.6429 2.47403 16.6055 2.46158C16.5681 2.44912 16.6896 2.43839 16.8756 2.43773C17.0615 2.4371 17.4032 2.41539 17.6349 2.38954C17.8666 2.36369 18.1644 2.33214 18.2968 2.31944C18.732 2.27768 25.8303 2.036 27.5039 2.00596C28.0003 1.99705 29.4356 1.96768 30.6933 1.9407C31.951 1.91371 33.611 1.88082 34.3822 1.8676C35.1534 1.85438 36.0449 1.82742 36.3634 1.8077C36.7818 1.78178 36.9656 1.7795 37.0255 1.79946C37.1015 1.82478 38.3677 1.81785 39.9003 1.78373C40.132 1.77857 40.8632 1.76738 41.5251 1.75887C42.7129 1.7436 44.5225 1.69222 45.5354 1.64501C45.8214 1.63168 46.1062 1.62722 46.1681 1.6351C46.2301 1.64298 47.0686 1.62487 48.0315 1.59485C49.4562 1.55043 49.8336 1.54591 50.0577 1.5706C50.283 1.59542 50.5717 1.59126 51.6459 1.54769C53.4341 1.47516 55.7676 1.38087 56.9304 1.33415C57.46 1.31288 58.2293 1.27966 58.6401 1.26034C59.0509 1.24102 59.5654 1.22527 59.7835 1.22533C60.0015 1.22533 60.4237 1.2094 60.7216 1.18978C61.2236 1.15672 62.2514 1.12001 64.9941 1.0372C66.4032 0.994662 66.687 0.984842 68.1233 0.928964C68.7853 0.903212 69.8685 0.863747 70.5304 0.841261C71.1923 0.818775 71.8964 0.79485 72.095 0.788093C73.5003 0.740296 73.7679 0.741185 74.0474 0.794579C74.1982 0.823389 74.3215 0.859615 74.3215 0.875081C74.3215 0.890548 74.3622 0.901882 74.4118 0.900269C74.4614 0.898672 74.6258 0.898672 74.7771 0.900269C75.0071 0.902719 75.0324 0.910781 74.9318 0.949484C74.7844 1.00614 74.9023 1.03671 75.1229 0.999034C75.371 0.956648 75.3145 0.994773 75.029 1.06235C74.8792 1.0978 74.5785 1.12958 74.3017 1.13921C73.8975 1.15326 73.8514 1.161 73.9808 1.19309C74.175 1.24126 74.0109 1.24425 81.7233 1.05219C82.2529 1.039 83.2006 1.02287 83.8295 1.01634C84.4583 1.0098 85.5957 0.992725 86.3569 0.978385C87.1182 0.964047 88.1201 0.947899 88.5835 0.942501C89.0468 0.937105 89.6401 0.921141 89.9019 0.907026C90.1637 0.892914 91.2021 0.880679 92.2096 0.879842C93.217 0.879008 94.1131 0.873352 94.2009 0.86728C94.4175 0.852297 97.2377 0.82189 97.9088 0.827303C98.2056 0.829704 98.5312 0.847079 98.6324 0.865932C98.8592 0.908178 99.4369 0.912412 102.123 0.891528C103.358 0.881924 104.492 0.860092 104.865 0.83875C105.35 0.810901 106.156 0.803278 108.295 0.806305C109.832 0.808495 112.389 0.80185 113.978 0.791573C117.198 0.770741 117.025 0.770505 120.357 0.800268C122.514 0.819538 123.758 0.820338 125.652 0.803674C125.983 0.800762 126.159 0.793281 126.044 0.78705C125.928 0.780822 125.833 0.764071 125.833 0.749831C125.833 0.73275 126.171 0.728849 126.826 0.738368C127.372 0.746305 129.01 0.764094 130.467 0.7779C131.923 0.791708 133.791 0.814439 134.619 0.828414C137.943 0.884562 139.211 0.904351 140.937 0.927033C145.255 0.983768 147.531 1.00637 149.904 1.01609C150.996 1.02056 152.35 1.03181 152.913 1.04109C153.475 1.05037 154.315 1.05697 154.778 1.05575C155.241 1.05454 156.162 1.06449 156.824 1.07789C157.486 1.09129 159.63 1.10716 161.588 1.11316C163.546 1.11916 165.388 1.13493 165.68 1.14821C165.973 1.16149 166.637 1.17839 167.157 1.18577C167.677 1.19315 168.273 1.20492 168.481 1.21193C169.193 1.23589 170.304 1.25218 171.929 1.26248C173.359 1.27155 174.749 1.29331 176.803 1.3388C177.134 1.34613 177.594 1.35524 177.826 1.35904C178.058 1.36284 178.653 1.3731 179.15 1.38185C179.646 1.39059 180.486 1.40457 181.015 1.4129C181.545 1.42123 182.005 1.43149 182.038 1.43569C182.071 1.43988 182.406 1.45005 182.783 1.45829C183.159 1.46652 183.547 1.47953 183.644 1.48719C183.741 1.49484 184.299 1.50443 184.885 1.50849C186.493 1.51963 186.491 1.51956 186.491 1.5596C186.491 1.58003 186.549 1.59675 186.619 1.59675C186.689 1.59675 186.707 1.58371 186.659 1.56778C186.6 1.54802 186.639 1.54408 186.782 1.55539C186.898 1.56452 187.112 1.57198 187.258 1.57198C187.437 1.57198 187.529 1.58809 187.541 1.62152C187.563 1.68074 187.498 1.68358 187.256 1.63391C187.005 1.58206 186.723 1.58595 186.807 1.6401C186.849 1.66677 186.836 1.6728 186.773 1.65577C186.704 1.6369 186.365 1.63336 185.709 1.64465C184.58 1.66408 183.727 1.65873 182.159 1.62238C181.53 1.6078 180.717 1.58989 180.353 1.58256C179.989 1.57524 179.628 1.56499 179.551 1.55979C179.474 1.55459 179.379 1.56725 179.34 1.5879C179.288 1.61573 179.174 1.62112 178.9 1.60872C178.469 1.58923 178.191 1.58182 177.044 1.55908C176.58 1.5499 176.169 1.53829 176.129 1.53328C176.045 1.5226 174.435 1.52085 172.229 1.52903C170.83 1.53422 169.843 1.52004 169.107 1.48416C168.692 1.46395 165.79 1.4552 165.79 1.47417C165.79 1.48393 166.156 1.49996 166.603 1.5098C167.05 1.51964 167.524 1.53209 167.656 1.53747C168.585 1.57517 171.072 1.61741 173.072 1.62947C173.535 1.63227 173.972 1.6421 174.042 1.65132C174.158 1.66666 177.843 1.7258 178.041 1.71551C178.088 1.71305 178.533 1.71885 179.029 1.72838C179.797 1.74311 181.757 1.77276 182.249 1.77708C182.427 1.77864 182.448 1.81061 182.284 1.83137C182.167 1.84626 181.26 1.8497 180.439 1.83836C180.188 1.8349 179.939 1.81739 179.885 1.79946C179.813 1.77521 179.606 1.77116 179.078 1.78365C178.687 1.79288 178.331 1.80486 178.287 1.81028C178.243 1.8157 178.124 1.80323 178.024 1.78256C177.923 1.7619 177.813 1.75454 177.778 1.7662C177.71 1.78884 175.28 1.7792 174.576 1.7535C174.345 1.74504 173.936 1.73582 173.669 1.73302C173.401 1.73021 173.063 1.71472 172.917 1.69861C172.704 1.67519 172.651 1.67595 172.651 1.7024C172.651 1.72186 172.49 1.73814 172.26 1.74197C171.308 1.75777 169.976 1.75627 168.92 1.73821C168.16 1.72522 167.836 1.72684 167.953 1.74306C168.428 1.80843 167.538 1.84068 166.152 1.80833C164.923 1.77965 164.703 1.77814 164.172 1.79472C163.898 1.80328 163.514 1.80146 163.318 1.79066C162.803 1.76224 160.123 1.71191 158.93 1.70823C158.368 1.7065 157.555 1.69746 157.125 1.68815C156.695 1.67883 155.828 1.66549 155.199 1.6585C154.57 1.65151 153.081 1.6294 151.89 1.60937C150.698 1.58934 148.926 1.56546 147.951 1.55631C146.363 1.54139 146.171 1.54394 146.102 1.58091C146.037 1.61608 145.828 1.62201 144.685 1.62111C143.948 1.62054 143.101 1.62909 142.803 1.64014L142.261 1.66024L143.164 1.68786C143.66 1.70305 144.256 1.71517 144.488 1.7148C144.72 1.7144 145.667 1.73138 146.594 1.75248C147.521 1.77357 149.281 1.80328 150.506 1.81849C151.73 1.8337 152.853 1.85147 153 1.858C153.147 1.86452 154.366 1.8807 155.708 1.89396C158.12 1.9178 159.81 1.93725 161.097 1.95599C161.461 1.96129 162.71 1.97691 163.872 1.99071C165.035 2.00451 166.064 2.02076 166.159 2.02683C166.254 2.0329 166.44 2.04629 166.573 2.05659C166.705 2.0669 167.022 2.07842 167.276 2.0822C167.531 2.08599 167.802 2.10675 167.878 2.12835C167.989 2.15954 168.303 2.16895 169.402 2.17403C170.163 2.17755 170.839 2.18729 170.906 2.19566C170.972 2.20404 171.432 2.21743 171.929 2.22543C174.302 2.26364 176.674 2.29468 177.766 2.3018C178.428 2.30611 179.836 2.32911 180.895 2.3529C181.954 2.37669 183.308 2.39985 183.904 2.40437C188.027 2.43567 191.32 2.47508 193.051 2.51384C193.646 2.52719 194.691 2.54528 195.371 2.55404C196.052 2.5628 196.637 2.5795 196.672 2.59114C196.707 2.60279 196.556 2.61322 196.337 2.61433C196.118 2.61545 195.786 2.61862 195.599 2.62142C195.412 2.62421 195.236 2.61866 195.207 2.60907C195.178 2.59949 194.955 2.60302 194.71 2.61692C194.462 2.63102 193.917 2.63496 193.478 2.62584C193.044 2.61684 190.74 2.60512 188.357 2.59979C185.974 2.59445 183.13 2.58289 182.038 2.5741C180.091 2.55842 179.54 2.56801 180.817 2.59533C181.171 2.60291 181.487 2.6145 181.519 2.62109C181.605 2.63876 181.165 2.68246 180.8 2.69252C180.375 2.70425 180.24 2.73563 180.604 2.73831C180.764 2.7395 181.599 2.75085 182.459 2.76355C183.32 2.77625 185.012 2.79322 186.221 2.80127C188.206 2.8145 188.417 2.82007 188.417 2.85932C188.417 2.9138 188.902 2.92668 191.822 2.94984C192.999 2.95919 193.991 2.97623 194.025 2.98773C194.06 2.99922 194.325 3.00863 194.615 3.00863C195.604 3.00863 195.327 3.07703 194.112 3.13275C193.769 3.14848 193.309 3.1593 193.089 3.15679C191.623 3.14007 192.008 3.18884 193.652 3.22822C194.314 3.24407 195.235 3.26244 195.698 3.26903C196.162 3.27563 197.001 3.29214 197.564 3.30572C198.127 3.3193 199.264 3.33776 200.091 3.34674C201.11 3.35781 201.635 3.37355 201.716 3.39553C201.783 3.41352 202.212 3.43518 202.679 3.44412C203.142 3.45299 203.576 3.47386 203.642 3.49049C203.708 3.50713 204.158 3.52825 204.641 3.53744C205.125 3.54664 205.642 3.57053 205.79 3.59053C205.96 3.61346 206.48 3.63094 207.198 3.63781C208.744 3.65262 209.956 3.68054 210.023 3.7029C210.093 3.7264 209.039 3.75997 208.878 3.73938C208.811 3.73094 208.757 3.73459 208.757 3.7475C208.757 3.76041 208.946 3.7783 209.178 3.78724C209.635 3.8049 209.722 3.83571 209.389 3.8623C208.995 3.89368 209.546 3.94338 210.783 3.98821C211.822 4.02587 212.479 4.07241 212 4.07448C211.55 4.07642 212.245 4.12008 212.968 4.13531C213.397 4.14435 213.812 4.1625 213.888 4.17564C213.965 4.18878 214.371 4.21088 214.79 4.22476C215.953 4.26331 215.94 4.29429 214.754 4.31349C214.31 4.32066 213.905 4.34191 213.783 4.36436C213.612 4.39587 213.403 4.39964 212.64 4.38497C211.088 4.35514 210.78 4.36095 210.547 4.42449C210.433 4.45559 210.364 4.48884 210.392 4.49837C210.421 4.5079 210.809 4.52349 211.255 4.53303C211.702 4.54257 212.121 4.55912 212.187 4.56981C212.253 4.5805 212.564 4.59714 212.879 4.60677C213.742 4.63321 213.565 4.6682 212.568 4.6682C212.083 4.6682 211.644 4.67656 211.594 4.68678C211.544 4.69699 211.039 4.70535 210.472 4.70535C209.756 4.70535 209.426 4.71478 209.39 4.73632C209.355 4.75753 209.484 4.76732 209.8 4.76742C210.054 4.76746 210.451 4.77778 210.682 4.79028C210.914 4.80277 211.562 4.82005 212.122 4.82867C212.683 4.83729 213.202 4.85477 213.277 4.86752C213.352 4.88027 213.444 4.8842 213.483 4.87627C213.521 4.86833 213.679 4.87109 213.833 4.88241C214.049 4.8983 213.921 4.90658 213.27 4.91877C212.502 4.93314 211.627 4.96929 211.164 5.00573C210.87 5.02886 211.327 5.05428 212.698 5.09107C213.377 5.10927 213.932 5.13078 213.932 5.13886C213.932 5.14694 214.284 5.14894 214.714 5.1433C215.343 5.13506 215.497 5.14016 215.497 5.16925C215.497 5.21415 215.116 5.28757 214.885 5.28706C214.744 5.28675 214.746 5.28253 214.895 5.26267C215.048 5.24224 215.043 5.2386 214.861 5.23828C214.743 5.23806 214.614 5.2552 214.575 5.27634C214.514 5.30909 214.296 5.31286 213.104 5.30183C211.611 5.288 211.244 5.30439 211.519 5.37262C211.98 5.48691 213.859 5.60945 215.151 5.60945C215.931 5.60945 216.339 5.63949 216.339 5.69701C216.339 5.72581 216.146 5.73317 215.406 5.73271C214.893 5.73239 214.257 5.72037 213.992 5.70603C213.727 5.69168 212.48 5.67489 211.22 5.66872C208.992 5.6578 208.928 5.65886 208.911 5.70729C208.893 5.75493 209.04 5.78924 209.298 5.79783C209.365 5.80004 209.884 5.81988 210.452 5.84192C212.312 5.91406 213.964 5.958 215.655 5.98033C217.221 6.00102 217.755 6.02939 217.593 6.08328C217.556 6.09558 217.474 6.09907 217.411 6.09102C217.348 6.08297 217.311 6.09115 217.329 6.10919C217.347 6.12733 217.268 6.14048 217.153 6.1386C217.038 6.13673 216.969 6.14387 217.001 6.15446C217.033 6.16505 216.875 6.18082 216.65 6.18949C216.165 6.20824 216.05 6.25289 216.298 6.32599C216.431 6.36494 216.445 6.38816 216.35 6.41161C216.195 6.45007 216.297 6.47639 216.6 6.47639C216.721 6.47639 216.82 6.48105 216.82 6.48674C216.82 6.49244 216.856 6.51639 216.9 6.53995C216.974 6.57931 216.893 6.58146 215.907 6.56637C215.317 6.55734 214.631 6.54332 214.383 6.53523C214.024 6.52351 213.932 6.52839 213.932 6.55914C213.932 6.58039 213.845 6.60783 213.738 6.62012C213.462 6.65185 213.628 6.79457 213.973 6.82325C214.22 6.84376 214.221 6.84495 213.992 6.8481C213.751 6.85141 213.751 6.85141 213.992 6.8727C214.227 6.89347 213.899 6.90234 212.668 6.90853C212.155 6.91111 211.766 6.94445 211.766 6.98583C211.766 7.00795 211.641 7.02145 211.435 7.02166C211.253 7.02188 210.98 7.02878 210.83 7.03708C210.573 7.05123 210.57 7.05424 210.77 7.08549C210.887 7.10382 211.131 7.11918 211.312 7.11961C211.494 7.12006 211.999 7.15941 212.436 7.20709C212.876 7.25518 213.405 7.29379 213.623 7.29379C214.353 7.29379 215.49 7.32532 215.434 7.34398C215.404 7.35417 215.471 7.36097 215.583 7.3591C215.696 7.35724 215.807 7.37492 215.831 7.39839C215.886 7.45289 215.175 7.54685 214.809 7.53357C214.662 7.52826 214.522 7.53608 214.498 7.55094C214.442 7.58598 213.037 7.59588 212.475 7.5652C212.237 7.55218 211.004 7.5385 209.737 7.5348C207.594 7.52856 206.963 7.54121 207.764 7.5743C207.946 7.58182 208.338 7.59932 208.636 7.61319C208.934 7.62706 209.408 7.63889 209.689 7.63948C209.971 7.64008 210.201 7.65171 210.201 7.66533C210.201 7.67895 210.286 7.6901 210.389 7.6901C210.493 7.6901 210.689 7.70235 210.825 7.71731C211.069 7.74423 211.069 7.74484 210.787 7.77378C210.293 7.82444 210.446 7.87223 211.276 7.92653C211.702 7.95438 212.075 7.9934 212.106 8.01322C212.137 8.03304 212.211 8.05572 212.269 8.06363C212.453 8.08848 212.233 8.16491 212.024 8.14845C211.919 8.14014 211.866 8.14017 211.907 8.14854C211.948 8.1569 211.844 8.19183 211.677 8.22617C211.458 8.27134 211.232 8.28974 210.859 8.29271C210.576 8.29497 210.366 8.3041 210.392 8.31301C210.419 8.32192 209.923 8.32375 209.289 8.31707C208.368 8.30737 208.097 8.31246 207.936 8.34249C207.711 8.38418 206.529 8.40137 205.913 8.3719C205.677 8.36065 205.506 8.36412 205.454 8.38117C205.409 8.39616 205.245 8.40843 205.089 8.40843C204.727 8.40843 204.424 8.43219 204.424 8.46062C204.424 8.47279 204.503 8.48274 204.599 8.48274C204.695 8.48274 204.819 8.49964 204.875 8.5203C204.939 8.5436 205.409 8.57514 206.115 8.6034C207.505 8.65908 208.529 8.74421 208.432 8.79612C208.395 8.81605 208.287 8.82628 208.193 8.81884C208.099 8.8114 208.052 8.81539 208.089 8.8277C208.126 8.84002 208.015 8.88482 207.841 8.92726C207.609 8.98407 207.462 9.00027 207.284 8.98863C207.149 8.97987 207.072 8.98289 207.109 8.99539C207.147 9.00779 206.989 9.01904 206.758 9.02039C206.528 9.02173 205.96 9.042 205.495 9.06543L204.65 9.10804L204.919 9.16694C205.067 9.19933 205.238 9.22583 205.299 9.22583C205.361 9.22583 205.596 9.24398 205.824 9.26617C206.22 9.30485 206.229 9.30887 206.054 9.36396C205.939 9.40016 205.916 9.4271 205.992 9.43679C206.058 9.44526 206.078 9.46375 206.036 9.47788C205.986 9.49447 205.921 9.49166 205.853 9.46998C205.785 9.44817 205.716 9.44525 205.658 9.46165C205.608 9.47555 205.405 9.50305 205.206 9.52276L204.845 9.5586L205.226 9.56701C205.639 9.57613 205.859 9.63969 205.56 9.6633C205.459 9.67128 205.346 9.67165 205.31 9.66412C205.273 9.65659 205.063 9.67127 204.843 9.69674C204.622 9.72221 204.236 9.75099 203.985 9.76071C203.733 9.77042 203.454 9.79338 203.365 9.81172C203.154 9.85517 203.072 9.85421 201.953 9.79535C200.95 9.74252 200.667 9.74745 200.255 9.82491C200.023 9.8686 199.929 9.87076 199.3 9.84683C198.475 9.81545 196.921 9.81143 197.01 9.84091C197.044 9.85224 197.467 9.87538 197.95 9.89232C199.18 9.9355 199.318 9.94477 199.116 9.97047C198.766 10.015 200.334 10.1202 201.867 10.1549C202.28 10.1643 202.645 10.1807 202.677 10.1914C202.709 10.2021 202.622 10.2405 202.483 10.2768C202.25 10.3378 202.246 10.3462 202.425 10.387C202.531 10.4112 202.619 10.4372 202.619 10.4446C202.619 10.4752 200.581 10.4312 199.911 10.3861C198.947 10.3212 196.997 10.2739 196.816 10.311C196.721 10.3306 196.72 10.3475 196.813 10.3706C196.939 10.4018 197.132 10.4152 198.737 10.5037C199.238 10.5313 199.489 10.5576 199.489 10.5825C199.489 10.6138 199.347 10.6171 198.596 10.6031C198.024 10.5924 197.676 10.5957 197.626 10.6121C197.584 10.6262 197.616 10.6377 197.697 10.6377C197.778 10.6377 197.817 10.6435 197.782 10.6505C197.702 10.6671 195.997 10.5935 195.828 10.5661C195.694 10.5445 193.937 10.4888 193.562 10.4943C193.446 10.496 193.351 10.5113 193.351 10.5283C193.351 10.5454 193.323 10.5744 193.289 10.5927C193.23 10.6245 194.7 10.6886 197.233 10.7648C197.613 10.7762 198.121 10.8025 198.361 10.8231C198.6 10.8438 198.966 10.8607 199.173 10.8608C199.718 10.861 200.501 10.91 200.375 10.9361C200.316 10.9481 199.583 10.9612 198.746 10.965C197.909 10.9689 197.233 10.974 197.244 10.9763C197.255 10.9786 197.531 11.0021 197.858 11.0286C198.428 11.0746 198.442 11.0779 198.181 11.1066C197.977 11.129 197.76 11.1299 197.309 11.11C196.577 11.0777 196.481 11.0773 196.481 11.1064C196.481 11.1189 196.642 11.1365 196.84 11.1454C197.498 11.1752 197.356 11.2074 196.566 11.2074C196.107 11.2074 195.642 11.2231 195.417 11.2463C195.188 11.2697 194.932 11.2783 194.772 11.2678C194.428 11.2453 188.778 11.2368 188.844 11.2588C188.984 11.3054 187.405 11.3052 186.058 11.2583C183.329 11.1636 181.008 11.1097 179.511 11.1064C178.683 11.1046 177.438 11.0878 176.743 11.069C176.047 11.0503 174.809 11.0235 173.991 11.0095C173.173 10.9954 172.468 10.9796 172.426 10.9744C172.384 10.9692 171.943 10.9578 171.447 10.9491C170.951 10.9404 170.355 10.9285 170.123 10.9228C169.641 10.9108 167.445 10.8856 165.851 10.8737C164.697 10.8652 162.945 10.8424 161.758 10.8205C161.361 10.8132 159.818 10.8025 158.328 10.7967C156.839 10.7909 155.079 10.777 154.417 10.7658C153.755 10.7546 151.924 10.7466 150.349 10.748C147.966 10.75 147.465 10.7566 147.37 10.7869C147.273 10.8179 147.239 10.8182 147.148 10.7889C147.076 10.7659 146.921 10.7592 146.684 10.769C146.488 10.777 146.269 10.7714 146.196 10.7565C146.124 10.7416 145.886 10.727 145.667 10.7242C145.449 10.7213 145.162 10.7123 145.029 10.7043C144.308 10.6603 143.557 10.6475 143.254 10.6741C143.011 10.6954 142.404 10.6702 142.488 10.6423C142.519 10.632 141.939 10.6206 141.199 10.6169C139.207 10.6071 139 10.6026 138.775 10.5641C138.592 10.5328 138.573 10.5342 138.61 10.5771C138.637 10.6098 138.592 10.6225 138.47 10.6165C138.371 10.6116 138.168 10.6075 138.019 10.6072C137.87 10.6069 137.748 10.5981 137.748 10.5877C137.748 10.5772 137.661 10.5618 137.554 10.5533C137.413 10.5422 137.38 10.5486 137.432 10.5768C137.482 10.6034 137.458 10.6094 137.355 10.596C137.273 10.5853 136.692 10.573 136.063 10.5687C134.74 10.5597 134.937 10.5598 128.721 10.5643C126.107 10.5662 123.633 10.5597 123.223 10.5499C122.814 10.5401 122.388 10.5392 122.277 10.548C122.072 10.5642 118.14 10.5961 116.932 10.5914C115.988 10.5877 114.916 10.702 115.512 10.7429C115.601 10.749 115.54 10.7665 115.362 10.7858C115.196 10.8038 115.031 10.8279 114.994 10.8394C114.862 10.8809 113.84 10.9041 113.549 10.8722C113.367 10.852 112.882 10.8448 112.12 10.8508C111.486 10.8558 109.403 10.8658 107.492 10.873C105.58 10.8802 103.885 10.8929 103.724 10.9012C103.563 10.9095 102.88 10.918 102.206 10.9201C101.531 10.9222 100.871 10.9364 100.739 10.9517C100.502 10.9791 99.386 11.0241 99.1992 11.0138C98.9689 11.001 98.5413 11.0042 98.1515 11.0216C97.9198 11.0319 97.6219 11.0385 97.4895 11.0362C97.3571 11.0339 97.1405 11.0301 97.0081 11.0277C96.8757 11.0253 96.2529 11.0364 95.624 11.0524C94.9952 11.0684 94.2465 11.0813 93.9603 11.081C93.6742 11.0807 93.3763 11.091 93.2984 11.1039C93.2205 11.1168 92.9808 11.1351 92.7656 11.1446C92.4455 11.1586 92.3745 11.1542 92.3745 11.1198C92.3745 11.0827 92.2749 11.0799 91.5019 11.0955C91.022 11.1051 89.7628 11.1156 88.7037 11.1187C87.6446 11.1218 86.4863 11.1375 86.1297 11.1535C85.7732 11.1695 85.4551 11.1826 85.423 11.1826C85.3908 11.1826 85.4319 11.1993 85.5143 11.2198C85.5967 11.2402 85.8471 11.2569 86.0706 11.2569C86.2942 11.2569 86.4771 11.2616 86.4771 11.2673C86.4771 11.273 86.51 11.2953 86.5502 11.3168C86.6504 11.3705 86.3115 11.3679 86.0441 11.3129C85.8926 11.2817 85.8207 11.2783 85.7845 11.3006C85.757 11.3176 85.6849 11.3252 85.6244 11.3175C85.5639 11.3098 85.5143 11.3125 85.5143 11.3236C85.5143 11.3346 85.3925 11.345 85.2435 11.3466C85.0946 11.3483 84.2687 11.3623 83.4081 11.3777C82.5476 11.3931 80.8145 11.4102 79.5568 11.4157C78.2991 11.4211 77.1347 11.4317 76.9692 11.4392C76.4085 11.4645 73.3256 11.5232 71.6736 11.54C68.6125 11.5711 66.2917 11.6612 65.8132 11.7675C65.6635 11.8008 65.3997 11.8276 65.2103 11.8289C63.6529 11.8393 61.4901 11.8727 60.5409 11.9009C60.1437 11.9128 59.447 11.9293 58.9926 11.9376C58.5382 11.946 57.8944 11.9634 57.562 11.9764C57.2296 11.9894 56.9379 12 56.9138 12C56.8898 12 56.8701 11.9715 56.8701 11.9366L56.8701 11.9367ZM56.8701 11.7113C56.8701 11.6842 56.8168 11.6822 56.6339 11.7023C56.4928 11.7179 56.4258 11.7434 56.4674 11.7657C56.5212 11.7946 56.5754 11.7966 56.7037 11.7747C56.7952 11.7591 56.8701 11.7305 56.8701 11.7113ZM77.1498 11.3429C77.6206 11.3081 77.6087 11.3076 76.6082 11.3197C74.3169 11.3473 73.5993 11.3613 73.5993 11.3784C73.5993 11.4107 76.6433 11.3803 77.1498 11.3429ZM21.2454 11.0438C21.2454 11.0384 21.1642 11.034 21.0649 11.034C20.9656 11.034 20.8843 11.0448 20.8843 11.058C20.8843 11.0712 20.9656 11.0756 21.0649 11.0678C21.1642 11.0599 21.2454 11.0491 21.2454 11.0438ZM29.971 10.9597C30.0131 10.9457 29.9145 10.9349 29.7445 10.9349C29.5791 10.9349 29.4102 10.9461 29.3693 10.9597C29.3273 10.9737 29.4258 10.9845 29.5958 10.9845C29.7613 10.9845 29.9301 10.9733 29.971 10.9597ZM24.2542 10.833C24.2542 10.8074 24.1101 10.805 23.8428 10.8261C23.5408 10.85 23.6219 10.8797 23.9533 10.8667C24.1188 10.8602 24.2542 10.845 24.2542 10.833ZM92.3548 10.8289C92.7654 10.8054 92.8218 10.7964 92.6195 10.7865C92.2983 10.7708 88.4691 10.8039 86.417 10.8401C85.8594 10.8499 90.1659 10.874 91.0506 10.8659C91.4809 10.862 92.0678 10.8454 92.3548 10.8289ZM96.5267 10.7527C96.6591 10.7463 96.4154 10.7419 95.9851 10.743C94.9582 10.7457 94.5517 10.7684 95.2028 10.7868C95.4676 10.7943 95.8196 10.7923 95.9851 10.7824C96.1506 10.7725 96.3943 10.7592 96.5267 10.7527V10.7527ZM19.7207 10.76C19.9685 10.7585 19.9669 10.7572 19.6886 10.7343C19.3605 10.7073 19.079 10.7208 19.079 10.7634C19.079 10.779 19.1645 10.7849 19.2694 10.7766C19.3741 10.7683 19.5772 10.7609 19.7207 10.76ZM98.3347 10.7321C98.3669 10.7255 98.1527 10.7182 97.8587 10.7159C97.5647 10.7136 97.2867 10.7242 97.2409 10.7394C97.1825 10.7589 97.3239 10.7637 97.717 10.7556C98.0246 10.7493 98.3025 10.7387 98.3347 10.7321ZM192.449 10.4396C192.495 10.4242 192.303 10.4159 191.944 10.4177C191.431 10.4203 191.406 10.4228 191.727 10.4396C192.253 10.4671 192.366 10.4671 192.449 10.4396ZM6.94585 10.0759C6.85897 10.0687 6.75516 10.0696 6.71517 10.0778C6.67518 10.086 6.74626 10.0919 6.87313 10.0908C7.01334 10.0896 7.04186 10.0838 6.94585 10.0759V10.0759ZM8.36753 10.0432C8.60941 10.0273 8.62121 10.0233 8.4277 10.0227C8.29531 10.0223 8.07868 10.0315 7.94629 10.0432C7.6396 10.0704 7.95601 10.0704 8.36753 10.0432ZM9.98246 10.053C10.0872 10.0447 10.1728 10.0179 10.1728 9.99341C10.1728 9.95547 10.0971 9.95082 9.66133 9.96203C9.1083 9.97626 8.74742 10.0185 9.17883 10.0185C9.32055 10.0185 9.46998 10.0296 9.51089 10.0432C9.59651 10.0718 9.714 10.0742 9.98246 10.053ZM205.507 9.62216C205.507 9.60853 205.412 9.59756 205.297 9.59777C205.117 9.59808 205.112 9.60163 205.266 9.62216C205.494 9.65237 205.507 9.65237 205.507 9.62216ZM12.9635 8.61445C12.8767 8.60729 12.7729 8.60817 12.7329 8.61641C12.6929 8.62464 12.764 8.63049 12.8908 8.62941C13.031 8.62822 13.0595 8.62236 12.9635 8.61445V8.61445ZM11.9781 8.54218C11.9781 8.50181 11.6434 8.49727 11.2037 8.53168C10.725 8.56914 10.8386 8.59549 11.4366 8.58571C11.7999 8.57976 11.9781 8.56543 11.9781 8.54218ZM14.2137 8.56005C14.0935 8.52003 13.6631 8.50982 13.6631 8.547C13.6631 8.56785 13.7867 8.58183 13.9711 8.58183C14.1405 8.58183 14.2496 8.57203 14.2137 8.56005ZM13.302 8.53229C13.4363 8.51443 13.367 8.50818 13.0312 8.5079C12.783 8.50768 12.5799 8.51867 12.5799 8.53229C12.5799 8.56384 13.0648 8.56384 13.302 8.53229ZM213.932 5.63424C213.932 5.62062 213.878 5.60947 213.812 5.60947C213.745 5.60947 213.691 5.62062 213.691 5.63424C213.691 5.64786 213.745 5.65901 213.812 5.65901C213.878 5.65901 213.932 5.64786 213.932 5.63424ZM214.804 5.17198C214.722 5.16511 214.586 5.16511 214.504 5.17198C214.421 5.17885 214.489 5.18447 214.654 5.18447C214.82 5.18447 214.887 5.17885 214.804 5.17198ZM212.999 4.87367C212.85 4.86776 212.607 4.86776 212.458 4.87367C212.309 4.87957 212.431 4.8844 212.728 4.8844C213.026 4.8844 213.148 4.87957 212.999 4.87367ZM207.433 4.67371C207.433 4.66311 206.986 4.64121 206.44 4.62505C205.894 4.6089 205.317 4.58795 205.157 4.57851C204.978 4.56785 204.896 4.57063 204.941 4.58585C204.982 4.59933 205.491 4.62453 206.073 4.64187C206.656 4.6592 207.186 4.67691 207.252 4.68123C207.318 4.68555 207.386 4.68996 207.403 4.69104C207.419 4.69211 207.433 4.68431 207.433 4.67371ZM31.8967 4.44529C32.1116 4.42629 32.1027 4.42382 31.8135 4.42227C31.6354 4.42131 31.4562 4.43167 31.4153 4.44529C31.3265 4.47487 31.5623 4.47487 31.8967 4.44529ZM206.59 4.30017C206.59 4.28847 206.047 4.26618 205.382 4.25064C203.886 4.21562 203.617 4.21491 203.77 4.2464C203.835 4.25961 204.482 4.28034 205.209 4.29247C205.936 4.3046 206.544 4.31608 206.56 4.31799C206.577 4.31989 206.59 4.31188 206.59 4.30018V4.30017ZM25.1445 4.00357C25.1786 3.99222 25.1276 3.98293 25.0312 3.98293C24.9349 3.98293 24.856 3.99222 24.856 4.00357C24.856 4.01492 24.907 4.02421 24.9693 4.02421C25.0315 4.02421 25.1104 4.01492 25.1445 4.00357ZM41.2467 3.95775C41.1598 3.9506 41.056 3.95147 41.016 3.9597C40.976 3.96793 41.0471 3.97379 41.174 3.97271C41.3142 3.97152 41.3427 3.96565 41.2467 3.95775V3.95775ZM22.5693 3.92513C22.5693 3.91151 22.4745 3.90053 22.3587 3.90074C22.1787 3.90105 22.1743 3.90461 22.3286 3.92513C22.5557 3.95534 22.5693 3.95534 22.5693 3.92513ZM23.0507 3.88652C23.0507 3.88051 22.9965 3.87559 22.9303 3.87559C22.8641 3.87559 22.81 3.8874 22.81 3.90182C22.81 3.91625 22.8641 3.92117 22.9303 3.91275C22.9965 3.90433 23.0507 3.89252 23.0507 3.88652ZM29.9109 3.71405C30.0764 3.70453 30.5909 3.68744 31.0542 3.67607C31.5176 3.6647 32.0863 3.64361 32.3179 3.62921C32.5496 3.61481 32.7392 3.60397 32.7392 3.6051C32.7392 3.6146 33.5636 3.5616 33.9728 3.52579C34.5937 3.47147 34.6329 3.42974 34.0631 3.42974C33.7689 3.42974 33.6418 3.41853 33.6418 3.39258C33.6418 3.35449 34.1805 3.33943 35.0746 3.35253C35.4642 3.35823 36.5756 3.31554 36.83 3.2851C37.0201 3.26237 36.4127 3.23673 35.6204 3.23405C35.105 3.2323 34.6658 3.24974 34.1233 3.2935C33.701 3.32756 33.2439 3.3556 33.1075 3.35581C32.91 3.35612 32.8951 3.36082 33.0343 3.37894C33.1305 3.39146 33.2523 3.3962 33.3051 3.38949C33.3579 3.38277 33.4011 3.38782 33.4011 3.4007C33.4011 3.42287 33.1377 3.43853 32.2184 3.471C31.9982 3.47878 31.7888 3.50083 31.7531 3.52C31.6999 3.5485 31.6536 3.54909 31.4991 3.52326C31.3408 3.4968 31.3216 3.49801 31.3809 3.53069C31.4328 3.55924 31.3822 3.56861 31.1928 3.56558C31.0504 3.56331 30.7542 3.57156 30.5345 3.58392C30.2576 3.5995 30.0823 3.59737 29.9628 3.57695C29.8659 3.5604 29.7905 3.55822 29.7905 3.57196C29.7905 3.59928 28.8735 3.67744 28.5529 3.67744C28.4392 3.67744 28.3463 3.69268 28.3463 3.7113C28.3463 3.73651 28.5077 3.7434 28.9781 3.73826C29.3256 3.73447 29.7454 3.72358 29.9109 3.71405V3.71405ZM34.8618 2.81575C34.775 2.8098 34.6467 2.81669 34.5768 2.83109C34.4875 2.84947 34.5345 2.8527 34.7347 2.84192C34.8974 2.83316 34.952 2.82194 34.8618 2.81575ZM180.233 2.71761C180.233 2.70739 180.068 2.69666 179.867 2.69377C179.658 2.69075 179.533 2.6987 179.574 2.71235C179.658 2.74029 180.233 2.74489 180.233 2.71761ZM35.2064 2.56157L35.5073 2.55966L35.2266 2.5365C34.9094 2.51034 34.364 2.53049 34.364 2.56837C34.364 2.58218 34.485 2.58667 34.6348 2.57841C34.7837 2.5702 35.0409 2.56262 35.2064 2.56157ZM179.27 2.56693C179.27 2.55558 179.189 2.54629 179.089 2.54629C178.99 2.54629 178.909 2.55558 178.909 2.56693C178.909 2.57828 178.99 2.58757 179.089 2.58757C179.189 2.58757 179.27 2.57828 179.27 2.56693ZM179.774 2.57065C179.687 2.56349 179.583 2.56437 179.543 2.5726C179.503 2.58083 179.574 2.58669 179.701 2.58561C179.841 2.58443 179.87 2.57855 179.774 2.57065V2.57065ZM37.275 2.52111C37.1881 2.51395 37.0843 2.51483 37.0443 2.52306C37.0043 2.53129 37.0754 2.53715 37.2023 2.53607C37.3425 2.53489 37.371 2.52901 37.275 2.52111V2.52111ZM23.7728 2.48849C23.7728 2.47487 23.7187 2.46372 23.6525 2.46372C23.5863 2.46372 23.5321 2.47487 23.5321 2.48849C23.5321 2.50211 23.5863 2.51326 23.6525 2.51326C23.7187 2.51326 23.7728 2.50211 23.7728 2.48849ZM26.902 2.42353C26.902 2.39578 26.676 2.42011 26.6113 2.45484C26.5479 2.48883 26.5655 2.49037 26.7187 2.46419C26.8195 2.44697 26.902 2.42868 26.902 2.42353ZM28.1056 2.42657C28.1056 2.40613 28.0843 2.38941 28.0583 2.38941C28.0322 2.38941 27.9798 2.40613 27.9417 2.42657C27.9036 2.447 27.9249 2.46372 27.989 2.46372C28.0531 2.46372 28.1056 2.447 28.1056 2.42657ZM185.671 1.57986C185.584 1.57271 185.481 1.57359 185.441 1.58181C185.401 1.59004 185.472 1.5959 185.599 1.59482C185.739 1.59364 185.767 1.58777 185.671 1.57986V1.57986ZM74.8579 1.07833C74.896 1.06564 74.8778 1.04899 74.8174 1.04132C74.7571 1.03364 74.6767 1.04402 74.6387 1.06437C74.5639 1.1045 74.7447 1.11602 74.8579 1.07833ZM17.7312 11.709C17.662 11.692 17.6525 11.6777 17.7103 11.6773C17.7681 11.6769 17.714 11.6644 17.5903 11.6496C17.2727 11.6116 17.554 11.5791 18.1764 11.5818C18.5014 11.5832 18.5796 11.5891 18.4171 11.6C18.1878 11.6153 18.0168 11.6784 18.2065 11.6777C18.5598 11.6764 18.815 11.644 18.76 11.6075C18.7062 11.5718 18.7206 11.5721 18.8718 11.6099C19.0774 11.6613 19.9933 11.6707 20.0724 11.6223C20.1126 11.5977 20.1616 11.5979 20.3102 11.6231C20.5444 11.6629 20.6827 11.7596 20.4837 11.7445C20.4062 11.7386 20.3603 11.7188 20.3817 11.7004C20.409 11.6771 20.3538 11.6795 20.198 11.7085C20.0201 11.7417 19.762 11.749 18.9162 11.745C18.2437 11.7418 17.8112 11.7287 17.7312 11.709L17.7312 11.709ZM16.0791 11.6544C15.9188 11.634 15.9959 11.579 16.1848 11.579C16.322 11.579 16.4426 11.6489 16.33 11.6632C16.2801 11.6696 16.1672 11.6656 16.0791 11.6544ZM18.6255 11.4551C18.4924 11.4112 18.5063 11.4051 18.747 11.4018C18.8965 11.3997 19.1001 11.3962 19.1994 11.394C19.5204 11.3868 19.5808 11.4094 19.3691 11.4576C19.1016 11.5184 18.8147 11.5174 18.6255 11.4551ZM91.532 11.2708C91.532 11.2648 91.5862 11.253 91.6524 11.2446C91.7186 11.2361 91.7728 11.2411 91.7728 11.2555C91.7728 11.2699 91.7186 11.2817 91.6524 11.2817C91.5862 11.2817 91.532 11.2768 91.532 11.2708ZM92.9442 11.2539C93.0258 11.2369 93.1229 11.2293 93.16 11.237C93.1971 11.2446 93.1303 11.2584 93.0116 11.2677C92.84 11.2812 92.8262 11.2783 92.9442 11.2539ZM28.3463 11.1857C28.3463 11.1737 28.4298 11.1497 28.5319 11.1322C28.6762 11.1076 28.7497 11.1071 28.8619 11.1302C28.9741 11.1533 28.9662 11.1651 28.8267 11.1833C28.5997 11.2128 28.3463 11.2141 28.3463 11.1857V11.1857ZM164.226 10.9597C164.226 10.9461 164.304 10.9349 164.399 10.9349C164.495 10.9349 164.606 10.9461 164.647 10.9597C164.688 10.9733 164.61 10.9845 164.474 10.9845C164.337 10.9845 164.226 10.9733 164.226 10.9597ZM162.18 10.9334C162.18 10.9052 162.503 10.9023 162.586 10.9298C162.618 10.9406 162.54 10.9511 162.412 10.953C162.284 10.955 162.18 10.9462 162.18 10.9334ZM42.8241 10.8934C42.7158 10.8354 42.8809 10.8268 43.2968 10.869C43.5138 10.891 43.6372 10.9107 43.571 10.9128C43.0638 10.9285 42.8806 10.9237 42.8241 10.8934ZM146.895 10.8359C146.895 10.8222 146.919 10.8111 146.948 10.8111C146.977 10.8111 147.034 10.8222 147.075 10.8359C147.116 10.8495 147.092 10.8606 147.022 10.8606C146.952 10.8606 146.895 10.8495 146.895 10.8359ZM145.16 10.8144C145.108 10.7972 145.098 10.7763 145.138 10.7682C145.245 10.746 145.363 10.7786 145.305 10.8145C145.264 10.8397 145.236 10.8397 145.16 10.8144V10.8144ZM145.601 10.8195C145.355 10.799 145.43 10.7651 145.691 10.7792C145.824 10.7863 145.932 10.802 145.932 10.814C145.932 10.8376 145.838 10.8392 145.601 10.8195ZM203.301 10.6955C203.162 10.667 203.213 10.6377 203.401 10.6377C203.5 10.6377 203.581 10.6544 203.581 10.6749C203.581 10.7135 203.439 10.724 203.301 10.6955ZM53.9369 10.5438C53.9045 10.533 53.9837 10.5225 54.1129 10.5205C54.2422 10.5185 54.3165 10.5273 54.278 10.5401C54.1927 10.5685 54.0169 10.5704 53.9369 10.5438ZM55.0218 10.5012C55.0596 10.4809 55.1796 10.4635 55.2883 10.4624C55.3971 10.4614 55.7298 10.4555 56.0277 10.4493C56.4182 10.4413 56.5189 10.4452 56.3887 10.4633C56.2398 10.4839 56.238 10.4884 56.3787 10.4887C56.4725 10.4889 56.5154 10.496 56.4742 10.5045C56.4329 10.513 56.0738 10.524 55.6761 10.529C55.0736 10.5366 54.9644 10.532 55.0218 10.5012ZM5.90542 10.4413C5.81641 10.4116 6.04281 10.3823 6.20312 10.4026C6.33772 10.4198 6.24936 10.4643 6.0808 10.4643C6.02242 10.4643 5.9435 10.4539 5.90542 10.4413ZM7.04363 9.797C7.04363 9.78418 7.09718 9.76688 7.16261 9.75856C7.23084 9.74988 7.25101 9.75983 7.20991 9.78187C7.1299 9.82478 7.04363 9.83263 7.04363 9.797ZM7.92623 9.78424C7.92623 9.76441 7.97225 9.75403 8.02849 9.76119C8.08473 9.76834 8.09959 9.78457 8.06151 9.79725C7.96418 9.82966 7.92623 9.82601 7.92623 9.78424ZM217.663 6.55071C217.564 6.53751 217.537 6.5267 217.603 6.5267C217.669 6.5267 217.804 6.53751 217.904 6.55071C218.003 6.56392 218.03 6.57472 217.964 6.57472C217.898 6.57472 217.762 6.56392 217.663 6.55071ZM19.9215 4.71249C19.9215 4.70176 20.0298 4.69299 20.1622 4.69299C20.2946 4.69299 20.4029 4.70344 20.4029 4.71622C20.4029 4.72899 20.2946 4.73777 20.1622 4.73572C20.0298 4.73366 19.9215 4.72321 19.9215 4.71249ZM24.9615 4.34872L24.6793 4.30169L25.3995 4.28201C25.7956 4.27119 26.404 4.2617 26.7514 4.26093C27.0989 4.26015 27.3832 4.25194 27.3833 4.24267C27.3834 4.22339 28.1003 4.26179 28.2122 4.28708C28.2528 4.29627 28.119 4.29726 27.9148 4.28929C27.6862 4.28036 27.4087 4.28946 27.1927 4.31294C26.9997 4.33394 26.5575 4.35219 26.21 4.35351C25.8625 4.35483 25.5781 4.36487 25.5781 4.37583C25.5781 4.41134 25.2509 4.39695 24.9615 4.34872V4.34872ZM23.4444 4.35602C23.4843 4.34779 23.5882 4.34691 23.675 4.35406C23.771 4.36197 23.7425 4.36784 23.6023 4.36903C23.4754 4.3701 23.4044 4.36425 23.4444 4.35602V4.35602ZM21.2549 4.01389C21.2497 3.98777 21.2781 3.97314 21.3181 3.98138C21.3581 3.98961 21.3624 4.01097 21.3276 4.02885C21.2892 4.04861 21.2607 4.04274 21.2549 4.01389H21.2549ZM24.5419 3.8057C24.5755 3.7945 24.4921 3.76582 24.3567 3.74195C24.1143 3.69924 24.1223 3.69738 24.8551 3.62606C25.7376 3.54017 25.8188 3.53823 25.8188 3.60312C25.8188 3.63364 25.738 3.65281 25.6082 3.65304C25.4375 3.65335 25.4299 3.65762 25.5679 3.6756C25.6615 3.6878 25.8375 3.69384 25.959 3.68903C26.0805 3.68422 26.1799 3.69163 26.1799 3.70552C26.1799 3.7194 26.0039 3.72878 25.7887 3.72636C25.5736 3.72394 25.2893 3.72325 25.1569 3.72485C24.9564 3.72725 24.9463 3.73174 25.0967 3.75175C25.251 3.77227 25.2466 3.77581 25.0666 3.77613C24.9508 3.77636 24.856 3.78766 24.856 3.80129C24.856 3.81491 24.7716 3.82605 24.6684 3.82605C24.5652 3.82605 24.5082 3.8169 24.5419 3.8057V3.8057ZM26.0808 3.60582C25.9598 3.59043 25.9645 3.5801 26.1033 3.55639C26.2981 3.52312 26.4533 3.55218 26.3192 3.5968C26.2714 3.61272 26.1662 3.61669 26.0808 3.60582ZM21.9073 2.5628C21.8664 2.54917 21.9142 2.53803 22.0135 2.53803C22.1128 2.53803 22.2275 2.54917 22.2684 2.5628C22.3093 2.57642 22.2616 2.58757 22.1622 2.58757C22.063 2.58757 21.9482 2.57642 21.9073 2.5628ZM24.3723 2.4519C24.5456 2.40892 24.6153 2.40445 24.6153 2.4363C24.6153 2.44846 24.5264 2.46544 24.4177 2.47402C24.2526 2.48706 24.2451 2.48344 24.3723 2.4519ZM194.468 2.05217C194.61 2.02314 195.38 2.00038 195.536 2.02066C195.625 2.03233 195.644 2.04315 195.578 2.04471C194.93 2.06 194.414 2.06347 194.468 2.05217ZM193.738 2.02161C193.638 2.00855 193.713 2.00135 193.948 2.00135C194.15 2.00135 194.314 2.01064 194.314 2.02199C194.314 2.04835 193.941 2.04811 193.738 2.02159V2.02161ZM190.643 1.98999C190.128 1.96625 188.877 1.94923 186.54 1.93414C185.74 1.92897 184.97 1.91199 184.828 1.89641C184.674 1.87945 184.135 1.87082 183.485 1.87491C182.888 1.87868 182.399 1.87923 182.399 1.87612C182.399 1.8675 183.099 1.79492 183.183 1.79492C183.223 1.79492 183.222 1.80606 183.182 1.81969C183.138 1.83414 183.261 1.84446 183.475 1.84446C183.678 1.84446 183.843 1.83331 183.843 1.81969C183.843 1.80606 183.901 1.79492 183.971 1.79492C184.041 1.79492 184.058 1.80885 184.008 1.82588C183.941 1.84877 183.963 1.85031 184.091 1.83176C184.187 1.81796 184.373 1.80795 184.505 1.80952C184.638 1.81107 185.034 1.81401 185.385 1.81602C185.737 1.81804 185.999 1.82805 185.968 1.83826C185.937 1.84848 186.246 1.85521 186.653 1.85322C187.061 1.8512 187.489 1.85998 187.605 1.87267C187.745 1.88807 187.815 1.88673 187.815 1.86864C187.815 1.85373 187.881 1.84986 187.961 1.86004C188.041 1.87022 188.569 1.88159 189.134 1.88531C189.699 1.88902 190.162 1.89338 190.162 1.895C190.162 1.89662 190.433 1.90154 190.764 1.90596C191.095 1.91037 191.379 1.91646 191.396 1.91947C191.424 1.92462 191.548 1.93213 191.757 1.94132C191.853 1.94554 191.288 2.01748 191.185 2.01412C191.152 2.01303 190.908 2.00217 190.643 1.98997L190.643 1.98999ZM185.769 1.86615C185.769 1.85423 185.664 1.84447 185.536 1.84447C185.407 1.84447 185.273 1.85423 185.237 1.86615C185.201 1.87807 185.306 1.88782 185.47 1.88782C185.635 1.88782 185.769 1.87807 185.769 1.86615ZM192.207 1.79453C192.165 1.78069 192.081 1.77577 192.019 1.78361C191.958 1.79145 191.907 1.78671 191.907 1.77309C191.907 1.72513 192.101 1.72437 192.245 1.77178C192.325 1.79814 192.366 1.81971 192.337 1.81971C192.307 1.81971 192.248 1.80838 192.207 1.79454V1.79453ZM189.63 1.69792C189.504 1.67181 189.375 1.65562 189.344 1.66193C189.313 1.66825 189.024 1.67715 188.702 1.68172C188.144 1.68963 187.451 1.63861 187.627 1.60248C187.767 1.57356 188.599 1.58033 188.78 1.61187C188.966 1.64416 189.305 1.64523 189.456 1.61399C189.584 1.58771 190.198 1.59347 190.283 1.62176C190.399 1.66025 190.227 1.74538 190.034 1.74538C189.939 1.74538 189.757 1.72402 189.63 1.69791V1.69792ZM190.873 1.7168C190.821 1.69973 190.839 1.6949 190.917 1.70482C190.989 1.71396 191.082 1.71011 191.124 1.69626C191.236 1.65892 191.386 1.66577 191.386 1.70824C191.386 1.75187 190.997 1.75835 190.873 1.7168ZM50.1629 1.53228C50.2029 1.52404 50.3067 1.52316 50.3936 1.53032C50.4896 1.53823 50.4611 1.5441 50.3209 1.54529C50.194 1.54636 50.1229 1.54051 50.1629 1.53228V1.53228ZM74.4418 0.828918C74.4418 0.815296 74.4657 0.804149 74.4949 0.804149C74.5241 0.804149 74.5814 0.815296 74.6223 0.828918C74.6632 0.842542 74.6394 0.853688 74.5693 0.853688C74.4992 0.853688 74.4418 0.842542 74.4418 0.828918ZM77.2482 0.831425C77.0539 0.802047 77.1004 0.759832 77.3143 0.771344C77.4508 0.77869 77.5383 0.768585 77.5509 0.744037C77.562 0.722605 77.58 0.688351 77.5911 0.667916C77.6021 0.647481 77.7104 0.62937 77.8318 0.627666C77.9531 0.625956 78.093 0.622269 78.1427 0.619456C78.1923 0.616638 78.3954 0.605352 78.594 0.594365C79.0356 0.569939 79.2755 0.533451 79.1873 0.504108C79.1511 0.492029 79.2284 0.482146 79.3592 0.482146C79.4899 0.482146 79.6244 0.496077 79.658 0.513107C79.7004 0.53462 79.7494 0.535956 79.8185 0.517494C79.9952 0.470265 80.3637 0.455524 80.558 0.487914C80.7141 0.513911 80.7287 0.513263 80.6434 0.484127C80.5651 0.457411 80.5909 0.452944 80.7505 0.46555C80.866 0.474679 81.0338 0.482144 81.1232 0.482144C81.2126 0.482144 81.3184 0.503292 81.3582 0.529141C81.4048 0.55935 81.508 0.571973 81.6471 0.564485C81.9544 0.547952 81.9226 0.486707 81.6129 0.498437C81.3682 0.507703 81.3679 0.507364 81.6029 0.484393C81.7352 0.471448 82.0269 0.460073 82.2509 0.459116C82.475 0.458151 82.9895 0.446442 83.3943 0.433079C84.4435 0.39845 87.0809 0.337766 88.2825 0.320608C88.8451 0.312577 89.5492 0.301586 89.8471 0.296184C90.4747 0.284805 91.7136 0.266692 93.3374 0.245157C93.9662 0.236817 94.8327 0.223854 95.263 0.216353C96.2971 0.198324 97.925 0.196979 98.1515 0.213976C98.2508 0.221424 98.5622 0.236075 98.8435 0.246538C99.1249 0.256998 99.355 0.27376 99.355 0.283784C99.355 0.293807 99.2212 0.329566 99.0575 0.363245C98.8153 0.413099 98.6474 0.424028 98.1544 0.422043C97.7942 0.420576 97.5652 0.429774 97.5893 0.444689C97.6117 0.458481 98.0469 0.470686 98.5565 0.471806C99.3569 0.47356 99.89 0.505609 99.7081 0.541017C99.6267 0.556861 98.0311 0.572515 98.0314 0.55747C98.0315 0.550102 97.666 0.547562 97.219 0.551823C96.7721 0.556085 96.0957 0.54945 95.7159 0.537049C95.3362 0.524661 94.9998 0.519813 94.9684 0.526278C94.937 0.532738 94.679 0.540377 94.3951 0.543252C94.1112 0.546128 93.7293 0.557089 93.5464 0.567618C93.3486 0.579003 93.1519 0.576182 93.061 0.560654C92.9769 0.546296 92.3845 0.531972 91.7445 0.528822C90.9522 0.524927 90.6055 0.514587 90.6583 0.496431C90.7009 0.481768 90.6438 0.485116 90.5315 0.503875C90.391 0.527335 90.1744 0.532953 89.8376 0.521868C89.516 0.511286 89.3741 0.514459 89.4241 0.531108C89.5093 0.559487 89.4935 0.56003 88.4028 0.566061C87.9726 0.568439 87.4987 0.579151 87.3497 0.589863C87.2008 0.600576 87.0789 0.600229 87.0789 0.589095C87.0789 0.57796 86.9436 0.568849 86.7781 0.568849C86.6126 0.568849 86.4772 0.577209 86.4772 0.587426C86.4772 0.597644 86.3927 0.606004 86.2895 0.606004C86.1863 0.606004 86.1302 0.59659 86.1647 0.585078C86.2483 0.557263 85.0119 0.598113 84.9222 0.626135C84.7579 0.677433 82.5055 0.729416 82.5055 0.681911C82.5055 0.667413 82.4482 0.655543 82.378 0.655543C82.3079 0.655543 82.2817 0.665921 82.3198 0.678603C82.4287 0.714857 82.1518 0.737178 81.9727 0.706585C81.8525 0.686062 81.7961 0.687317 81.751 0.711507C81.712 0.732394 81.514 0.741934 81.1953 0.738267C80.923 0.735135 80.7002 0.742981 80.7002 0.755705C80.7002 0.796667 80.0819 0.769767 79.9618 0.723582C79.8979 0.699022 79.7933 0.685582 79.7294 0.693716C79.6654 0.70185 79.6407 0.717715 79.6745 0.728969C79.7083 0.740222 79.6568 0.755687 79.56 0.76333C79.4632 0.770976 79.3515 0.766395 79.3117 0.753149C79.2676 0.738466 79.1134 0.743511 78.9167 0.766071C78.5465 0.808527 77.395 0.853636 77.2482 0.831436L77.2482 0.831425ZM75.525 0.718919C75.525 0.675411 75.5972 0.669006 75.7004 0.703361C75.7385 0.716043 75.7146 0.733422 75.6473 0.741976C75.58 0.750533 75.525 0.740181 75.525 0.718919ZM75.9785 0.676131C76.0485 0.661736 76.1767 0.654833 76.2636 0.660789C76.3537 0.666974 76.2991 0.678202 76.1364 0.68696C75.9362 0.697734 75.8892 0.694509 75.9785 0.676131ZM117.438 0.613282C117.289 0.607378 117.167 0.594039 117.167 0.583642C117.167 0.553329 117.691 0.569807 117.742 0.601749C117.768 0.617707 117.771 0.629243 117.749 0.627388C117.727 0.625526 117.587 0.619187 117.438 0.613282H117.438ZM114.941 0.556452C115.272 0.527193 115.462 0.527193 115.242 0.556452C115.142 0.56966 114.98 0.579854 114.881 0.579103C114.762 0.578206 114.782 0.57049 114.941 0.556452ZM115.67 0.558758C115.633 0.546405 115.711 0.542133 115.843 0.549264C116.124 0.564389 116.16 0.58122 115.911 0.58122C115.815 0.58122 115.707 0.571111 115.67 0.558758ZM100.176 0.502704C99.9866 0.463517 100.073 0.460799 101.56 0.458954C102.432 0.45786 103.267 0.452184 103.414 0.446315C103.562 0.440446 103.711 0.445 103.745 0.456429C103.779 0.46786 103.973 0.474852 104.176 0.471964C104.723 0.464163 104.726 0.500225 104.179 0.51097C103.92 0.516051 103.734 0.51163 103.765 0.501174C103.864 0.468273 103.679 0.48048 103.49 0.519295C103.285 0.561433 102.777 0.56902 102.665 0.531614C102.615 0.515122 102.511 0.515505 102.354 0.532753C102.088 0.562102 101.837 0.542157 101.959 0.501364C102.013 0.483525 101.983 0.481829 101.871 0.496318C101.778 0.50833 101.404 0.524082 101.04 0.531322C100.519 0.54168 100.335 0.535589 100.176 0.5027V0.502704ZM109.826 0.531677C109.826 0.518054 109.85 0.506909 109.879 0.506909C109.908 0.506909 109.965 0.518054 110.006 0.531677C110.047 0.545301 110.023 0.556447 109.953 0.556447C109.883 0.556447 109.826 0.545301 109.826 0.531677ZM105.012 0.482138C104.903 0.467711 104.888 0.457974 104.974 0.457747C105.053 0.457522 105.151 0.468514 105.192 0.482138C105.285 0.512891 105.243 0.512891 105.012 0.482138ZM152.02 0.47876C152.082 0.458023 151.624 0.43363 151.531 0.452744C151.401 0.479374 150.867 0.484405 150.867 0.458989C150.867 0.443268 150.524 0.43948 149.934 0.448674C149.21 0.459948 148.907 0.454138 148.58 0.422765C148.348 0.400527 148.25 0.387441 148.361 0.393687C148.473 0.399933 148.581 0.395352 148.602 0.383522C148.623 0.371688 148.721 0.358383 148.82 0.353953C148.92 0.349529 149.041 0.334758 149.089 0.321133C149.138 0.307509 149.179 0.320774 149.18 0.350627C149.181 0.401923 149.2 0.402944 149.513 0.369306C149.809 0.337385 149.861 0.338173 150.01 0.376967C150.169 0.418097 150.173 0.418093 150.104 0.376967C150.048 0.343514 150.098 0.33362 150.323 0.33362C150.483 0.33362 150.669 0.353127 150.737 0.376967C150.805 0.401023 150.861 0.406534 150.863 0.389352C150.867 0.356917 151.228 0.34466 151.228 0.376967C151.228 0.387184 151.637 0.3949 152.137 0.394113C152.638 0.393323 153.074 0.401684 153.107 0.41269C153.14 0.423694 153.283 0.432697 153.425 0.432697C153.631 0.432697 153.653 0.438891 153.532 0.463659C153.382 0.49466 151.929 0.509266 152.02 0.478861V0.47876ZM153.996 0.478015C153.996 0.466661 154.036 0.456621 154.086 0.455701C154.136 0.454781 154.35 0.449363 154.561 0.443663C155.037 0.430841 155.207 0.473334 154.749 0.490695C154.296 0.507859 153.996 0.502805 153.996 0.478015ZM145.33 0.395447C145.33 0.381825 145.127 0.370679 144.879 0.370679C144.631 0.370679 144.388 0.381825 144.339 0.395447C144.28 0.411961 144.25 0.411961 144.249 0.395447C144.246 0.364415 143.525 0.357074 143.525 0.388082C143.525 0.400554 143.476 0.404497 143.416 0.396845C143.301 0.382265 142.242 0.358857 141.118 0.346039C140.754 0.341889 140.456 0.335991 140.456 0.33293C140.456 0.316329 138.872 0.316072 138.771 0.332661C138.59 0.362269 137.387 0.382925 137.387 0.356419C137.387 0.343827 137.306 0.333526 137.206 0.333526C137.107 0.333526 137.026 0.344281 137.026 0.357429C137.026 0.372353 136.178 0.376927 134.769 0.36961C133.528 0.363165 132.382 0.358007 132.222 0.35815C132.063 0.358374 131.751 0.348132 131.53 0.335577C131.289 0.32185 131.128 0.321764 131.128 0.335353C131.128 0.357862 130.708 0.354216 130.593 0.330716C130.56 0.323938 130.013 0.322354 129.376 0.327199C128.609 0.333037 128.162 0.326213 128.049 0.306958C127.917 0.284332 127.879 0.285427 127.877 0.311904C127.876 0.333382 127.843 0.336373 127.787 0.320023C127.734 0.304493 127.049 0.292917 126.074 0.291066C125.18 0.289379 122.472 0.281601 120.056 0.273811C117.64 0.266023 114.539 0.258164 113.166 0.25635C111.792 0.254555 110.668 0.246077 110.668 0.237553C110.668 0.229025 110.37 0.222049 110.006 0.222049C109.642 0.222049 109.344 0.230409 109.344 0.240626C109.344 0.250844 109.287 0.259204 109.217 0.259204C109.147 0.259204 109.123 0.248058 109.164 0.234434C109.205 0.220811 109.154 0.209665 109.051 0.209665C108.947 0.209677 108.863 0.19853 108.863 0.184908C108.863 0.171284 108.806 0.160137 108.736 0.160137C108.665 0.160137 108.642 0.171284 108.682 0.184908C108.726 0.199538 108.594 0.209523 108.359 0.209297C108.057 0.208983 108.004 0.20308 108.141 0.184908C108.274 0.167174 108.28 0.160797 108.162 0.160517C108.04 0.160203 108.045 0.151596 108.184 0.122983C108.283 0.102548 108.477 0.0858282 108.614 0.0858282C108.751 0.0858282 108.863 0.0739302 108.863 0.0593882C108.863 0.0437049 108.967 0.039747 109.119 0.0496601C109.291 0.0609026 109.348 0.0573972 109.292 0.0389447C109.247 0.0238595 109.242 0.011519 109.281 0.011519C109.32 0.011519 109.393 0.0344429 109.444 0.0624621L109.535 0.113407L109.853 0.062026C110.07 0.026808 110.196 0.0194054 110.254 0.0384977C110.313 0.0582445 110.367 0.0565712 110.438 0.0327429C110.52 0.00543125 111.346 -0.00069205 114.846 5.94542e-05C117.215 0.000584386 120.128 0.00814134 121.32 0.0168951C122.511 0.0256471 124.488 0.0392709 125.713 0.0471709C130.134 0.0756895 131.274 0.0860543 131.373 0.0986576C131.594 0.126819 132.564 0.1518 132.711 0.133122C132.801 0.121612 132.907 0.125721 132.961 0.142868C133.03 0.164997 133.084 0.163093 133.173 0.135367C133.238 0.114932 133.292 0.109359 133.293 0.122983C133.294 0.138616 134.039 0.146648 135.311 0.144759C137.321 0.141771 140.757 0.181756 140.757 0.20815C140.757 0.215802 141.177 0.220807 141.69 0.219278C142.569 0.216653 144.594 0.250551 144.953 0.273904C145.085 0.28252 145.088 0.29178 144.966 0.322003C144.843 0.352461 144.846 0.357404 144.982 0.348546C145.074 0.342561 145.301 0.330832 145.486 0.322483C145.693 0.313129 145.795 0.295697 145.752 0.277067C145.714 0.260437 145.745 0.26428 145.823 0.2856C145.936 0.316955 146.091 0.320801 146.631 0.305707C147.011 0.295093 147.39 0.297066 147.51 0.310282C147.627 0.323067 147.874 0.335043 148.06 0.336898C148.373 0.340003 148.376 0.34116 148.109 0.351532C147.884 0.360247 147.857 0.367802 147.989 0.384934C148.175 0.409174 148.018 0.41221 146.323 0.417262C145.732 0.419016 145.33 0.410202 145.33 0.395449L145.33 0.395447ZM110.351 0.172664C110.313 0.152305 110.234 0.141819 110.174 0.149357C110.004 0.170971 110.049 0.209674 110.243 0.209674C110.351 0.209674 110.393 0.195145 110.351 0.172664ZM103.332 0.257336C103.455 0.209703 103.448 0.204294 103.278 0.217747C103.108 0.231167 103.1 0.225743 103.223 0.178664L103.365 0.123999L103.484 0.179223C103.622 0.242581 103.87 0.251793 103.972 0.19729C104.01 0.176855 103.998 0.160135 103.945 0.160135C103.892 0.160135 103.848 0.14328 103.848 0.122676C103.848 0.0922211 103.957 0.0881851 104.43 0.101097C104.827 0.111946 105.012 0.108119 105.012 0.0890205C105.012 0.0734883 105.202 0.061058 105.44 0.061058C105.721 0.061058 105.84 0.0704405 105.787 0.0882989C105.728 0.107665 105.778 0.107501 105.957 0.0877293C106.167 0.0646193 106.198 0.0662954 106.139 0.0976423C106.101 0.118391 106.021 0.135369 105.962 0.135369C105.903 0.135369 105.854 0.146515 105.854 0.160137C105.854 0.21177 106.072 0.181928 106.215 0.110598C106.383 0.0274095 106.387 0.0269522 106.689 0.0601831C106.841 0.0769468 106.888 0.103121 106.846 0.147904C106.814 0.183011 106.834 0.208486 106.892 0.204512C106.95 0.200542 107.025 0.208182 107.058 0.221499C107.093 0.235817 106.807 0.247422 106.357 0.249908C105.662 0.253749 105.586 0.249011 105.466 0.194739C105.336 0.136221 104.891 0.110559 104.891 0.161598C104.891 0.176029 104.945 0.181021 105.01 0.172698C105.077 0.164156 105.099 0.173641 105.061 0.194441C105.02 0.21599 104.913 0.225072 104.801 0.216288C104.678 0.206519 104.641 0.211146 104.696 0.229513C104.793 0.261754 104.393 0.28556 103.928 0.275191C103.763 0.271499 103.529 0.278381 103.408 0.290489C103.211 0.310216 103.203 0.306775 103.332 0.257337V0.257336ZM106.624 0.164265C106.658 0.152912 106.61 0.143624 106.516 0.143624C106.423 0.143624 106.374 0.152912 106.408 0.164265C106.442 0.175617 106.491 0.184906 106.516 0.184906C106.541 0.184906 106.59 0.175617 106.624 0.164265ZM101.71 0.26203C101.674 0.249955 101.752 0.234269 101.884 0.227169C102.044 0.218571 102.1 0.201086 102.051 0.174815C102.01 0.153118 102.028 0.135366 102.09 0.135366C102.255 0.135366 102.229 0.216279 102.052 0.252728C101.872 0.289699 101.799 0.291675 101.71 0.26203ZM102.448 0.193162C102.482 0.174997 102.525 0.160135 102.544 0.160135C102.563 0.160135 102.607 0.174997 102.64 0.193162C102.674 0.211328 102.631 0.22619 102.544 0.22619C102.458 0.22619 102.415 0.211328 102.448 0.193162ZM102.913 0.123769C103.041 0.103768 103.265 0.0870486 103.41 0.0866148C103.697 0.0857399 103.88 0.123318 103.7 0.146196C103.638 0.154032 103.567 0.14764 103.542 0.131969C103.507 0.11057 103.432 0.110529 103.239 0.131745C102.869 0.172494 102.636 0.166752 102.913 0.1237V0.123769ZM101.313 0.1204C101.353 0.112169 101.457 0.111289 101.544 0.118448C101.64 0.126354 101.611 0.132224 101.471 0.133411C101.344 0.134484 101.273 0.128633 101.313 0.120403V0.1204ZM107.659 0.110594C107.505 0.0900757 107.51 0.086527 107.69 0.0862027C107.805 0.0859783 107.9 0.0969698 107.9 0.110594C107.9 0.140804 107.887 0.140804 107.659 0.110594ZM107.013 0.072868C106.956 0.0420859 106.987 0.0399657 107.181 0.0613537C107.46 0.0920829 107.486 0.110594 107.251 0.110594C107.159 0.110594 107.052 0.0936163 107.013 0.072868Z" fill="url(#paint0_linear_10791_4418)"/>
	<defs>
	<linearGradient id="paint0_linear_10791_4418" x1="4.06057e-07" y1="6" x2="218" y2="6.00001" gradientUnits="userSpaceOnUse">
	<stop stop-color="#00E283"/>
	<stop offset="1" stop-color="#0085FF"/>
	</linearGradient>
	</defs>
</svg>