<svg width="186" height="12" viewBox="0 0 186 12" fill="none" xmlns="http://www.w3.org/2000/svg">
<g clip-path="url(#clip0_0_3)">
<path d="M48.5222 11.9367C48.5222 11.9018 48.4774 11.8799 48.4226 11.8881C48.3679 11.8963 48.2547 11.8635 48.1712 11.8153C48.083 11.7644 47.9471 11.7276 47.8474 11.7276C47.7116 11.7276 47.7006 11.7203 47.7951 11.6928C47.887 11.6661 47.8839 11.6556 47.782 11.6473C47.6777 11.6388 47.6823 11.6269 47.8034 11.5913C47.9208 11.5569 47.9269 11.5437 47.8291 11.5357C47.7585 11.53 47.7007 11.5144 47.7007 11.5011C47.7007 11.4878 47.7464 11.4838 47.8022 11.4921C47.8604 11.5008 47.8777 11.4908 47.8426 11.4688C47.809 11.4476 47.8342 11.4303 47.8987 11.4303C47.9842 11.4303 47.9862 11.4169 47.9061 11.3808C47.8178 11.341 47.828 11.3313 47.9579 11.3313C48.0885 11.3313 48.0949 11.3249 47.991 11.2981C47.858 11.2637 47.5998 11.2944 47.6335 11.3405C47.6422 11.3525 47.5953 11.367 47.5291 11.3729C47.45 11.38 47.4292 11.3649 47.4683 11.3288C47.501 11.2986 47.4858 11.2799 47.4345 11.2871C47.3833 11.2944 47.2489 11.2921 47.1359 11.2821C46.9731 11.2676 47.0209 11.2601 47.367 11.2458C47.6391 11.2346 47.8034 11.2147 47.8034 11.1928C47.8034 11.1736 47.8932 11.1579 48.003 11.1579C48.1127 11.1579 48.2657 11.1361 48.343 11.1095C48.4815 11.0618 49.0045 10.9967 49.1741 11.0061C49.222 11.0087 49.5223 10.995 49.8416 10.9755C50.1608 10.9561 50.7108 10.9324 51.0639 10.9228C51.417 10.9132 51.7316 10.8953 51.7631 10.883C51.7946 10.8707 51.9216 10.8604 52.0453 10.8601C52.1691 10.8598 52.5476 10.8266 52.8864 10.7863C53.2253 10.7461 53.5807 10.7129 53.6762 10.7126C53.7717 10.7123 53.8784 10.7009 53.9133 10.6872C53.9482 10.6736 53.9246 10.6625 53.8609 10.6625C53.7186 10.6625 53.7699 10.5517 53.9133 10.5493C53.9698 10.5483 54.2186 10.5336 54.4662 10.5165C54.7138 10.4994 55.0292 10.4922 55.167 10.5006C55.3048 10.5089 55.5643 10.5048 55.7437 10.4915C55.923 10.4781 56.3276 10.455 56.6427 10.4402C57.5076 10.3993 57.9694 10.3652 57.9694 10.3422C57.9694 10.3183 52.7017 10.335 51.3975 10.363C50.7103 10.3777 50.4482 10.3737 50.1652 10.344C49.9675 10.3233 49.7827 10.3047 49.7545 10.3027C49.7262 10.3008 49.5681 10.2857 49.403 10.2693C49.238 10.2528 49.03 10.2462 48.9409 10.2546C48.8518 10.263 47.4851 10.2738 45.9037 10.2787C44.3223 10.2836 42.8205 10.2987 42.5664 10.3123C42.3122 10.3258 41.5506 10.3499 40.8738 10.3657C40.1971 10.3815 39.555 10.4058 39.4469 10.4198C39.3388 10.4337 39.0247 10.4399 38.7489 10.4335C38.473 10.4271 38.2224 10.4316 38.192 10.4435C38.1615 10.4554 38.0936 10.4587 38.041 10.4509C37.9885 10.443 37.9454 10.4484 37.9454 10.4629C37.9454 10.4773 37.9108 10.4869 37.8684 10.4842C37.6976 10.4733 36.8159 10.5183 36.8159 10.538C36.8159 10.5621 36.0402 10.6023 35.7469 10.5934C35.639 10.5901 35.4639 10.6098 35.3578 10.6373C35.2517 10.6648 35.0858 10.6886 34.9892 10.6902C34.8925 10.6918 34.5362 10.6955 34.1973 10.6984C33.8585 10.7014 33.3964 10.7167 33.1705 10.7324C32.9446 10.7481 32.5852 10.7672 32.3718 10.7749C32.1584 10.7826 32.0089 10.7986 32.0396 10.8106C32.1351 10.8479 31.9069 10.8576 30.1229 10.8926C30.0281 10.8945 29.9587 10.9066 29.9688 10.9195C29.9789 10.9324 29.8948 10.9495 29.7818 10.9575C29.6688 10.9655 29.4598 10.9912 29.3172 11.0146C29.1306 11.0452 28.7417 11.0616 27.9309 11.0731C27.311 11.0819 26.6971 11.0879 26.5665 11.0865C26.436 11.085 26.1872 11.1016 26.0138 11.1232C25.8346 11.1455 25.671 11.1527 25.635 11.1398C25.5466 11.1081 25.1851 11.0777 25.2643 11.1086C25.3478 11.1412 25.2478 11.1395 24.9744 11.1038C24.4226 11.0316 21.8101 11.0865 21.5376 11.1759C21.4532 11.2036 21.444 11.2223 21.5119 11.2278C21.5704 11.2325 21.6182 11.2462 21.6182 11.2582C21.6182 11.2703 21.5535 11.2742 21.4745 11.2669C21.3955 11.2596 21.3004 11.2655 21.2631 11.28C21.1635 11.3189 21.7789 11.3133 22.111 11.2723C22.2635 11.2534 22.5963 11.2298 22.8504 11.2198C23.1046 11.2098 23.3934 11.198 23.4922 11.1935C23.591 11.1891 23.6719 11.2001 23.6719 11.2179C23.6719 11.2409 23.7996 11.248 24.1083 11.2421C24.4457 11.2358 24.5035 11.2397 24.3629 11.2593C24.2629 11.2733 24.2041 11.2938 24.2324 11.3048C24.2934 11.3286 23.7192 11.3525 22.6077 11.3725C21.9837 11.3837 21.78 11.3793 21.7108 11.353C21.6459 11.3282 21.6209 11.3274 21.6197 11.3498C21.6174 11.3954 21.0002 11.3881 20.7791 11.3398C20.6758 11.3173 20.5913 11.3094 20.5913 11.3222C20.5913 11.3365 20.258 11.339 19.7441 11.3287C19.2782 11.3193 18.5504 11.3055 18.1268 11.298C17.7032 11.2905 17.2049 11.2714 17.0193 11.2555C16.8338 11.2397 16.567 11.232 16.4264 11.2385C16.2859 11.245 16.1417 11.2389 16.1061 11.225C16.0663 11.2095 16.0931 11.2075 16.1757 11.2198C16.2594 11.2323 16.2852 11.2301 16.2442 11.2141C16.1669 11.1839 15.6771 11.1566 15.0975 11.1501C14.7556 11.1463 14.6849 11.1366 14.6756 11.0923C14.6657 11.0447 14.7365 11.037 15.3431 11.0201C15.7163 11.0096 16.1372 11.0035 16.2784 11.0065L16.5351 11.0118L16.2627 10.9761C15.7902 10.9141 15.3295 10.888 14.4301 10.8721C13.95 10.8636 13.2569 10.8385 12.8897 10.8162C12.0454 10.7651 9.11564 10.7611 8.98786 10.811C8.94389 10.8282 8.85355 10.8341 8.78712 10.8242C8.61555 10.7986 6.72585 10.79 6.79013 10.8151C6.85025 10.8386 6.83495 10.839 5.49164 10.8488C4.54353 10.8557 4.14334 10.8642 2.72371 10.9073C2.07639 10.927 1.69793 10.9157 1.32796 10.8658C1.17302 10.8449 1.20641 10.833 1.57955 10.7762C1.88051 10.7303 2.24819 10.7034 2.80317 10.6865C3.75028 10.6576 4.65394 10.6212 5.305 10.5857C5.69443 10.5645 5.77211 10.5514 5.7313 10.5138C5.70201 10.4868 5.62197 10.4733 5.53749 10.4811C5.45834 10.4884 5.39358 10.4821 5.39358 10.467C5.39358 10.4519 5.47444 10.4394 5.57328 10.4392C5.72686 10.4389 5.73059 10.4353 5.59895 10.4148C5.50154 10.3996 5.49092 10.3906 5.57006 10.3904C5.63908 10.3902 5.66859 10.3733 5.63587 10.3527C5.59459 10.3268 5.69705 10.3025 5.97283 10.273L6.36911 10.2305L5.36579 10.2155C4.81397 10.2073 4.08617 10.2017 3.74847 10.2031C3.41076 10.2045 3.13446 10.2042 3.13446 10.2025C3.13446 10.2008 3.22688 10.1737 3.33983 10.1423C3.45279 10.1109 3.54521 10.0927 3.54521 10.1019C3.54521 10.1112 3.64927 10.1023 3.77645 10.0821C3.90363 10.062 4.35025 10.0328 4.76895 10.0171C5.18763 10.0014 5.71321 9.97304 5.93689 9.954C6.16057 9.93496 6.51106 9.91899 6.71575 9.9185C7.28762 9.91715 8.72815 9.8268 8.31161 9.81841C8.25984 9.81737 8.12506 9.81139 8.0121 9.80512C7.89915 9.79885 7.75031 9.79074 7.68134 9.78709C7.4464 9.77467 7.43139 9.75056 7.64827 9.73395C7.7673 9.72484 7.98547 9.69038 8.1331 9.65738C8.28072 9.62438 8.50462 9.59738 8.63065 9.59738C8.75668 9.59738 8.91252 9.58206 8.97695 9.56333C9.07323 9.53535 8.98856 9.52638 8.50176 9.51301C8.17597 9.50406 7.77079 9.49133 7.60135 9.48474C7.19826 9.46904 5.59426 9.47131 5.48409 9.48773C5.33546 9.50989 4.16133 9.52034 4.16133 9.49951C4.16133 9.48856 4.23065 9.46572 4.31536 9.44876C4.40008 9.4318 4.46939 9.40629 4.46939 9.39206C4.46939 9.37784 4.43899 9.37353 4.40183 9.3825C4.36466 9.39146 4.27225 9.38638 4.19645 9.37121C4.12015 9.35593 4.05865 9.35419 4.05865 9.36729C4.05865 9.38032 3.98933 9.39097 3.90461 9.39097C3.658 9.39097 3.72565 9.36444 4.06454 9.32826C4.44566 9.28757 4.39108 9.2705 3.77667 9.23822C3.21619 9.20878 3.10934 9.16264 3.51119 9.12357C3.92707 9.08313 5.88094 9.03065 6.99787 9.02992C7.52141 9.02956 8.07234 9.02187 8.22217 9.0128L8.49458 8.99631L8.202 8.93858C8.04108 8.90682 7.83128 8.88044 7.73578 8.87995C7.49237 8.87871 7.41839 8.83931 7.54895 8.78046C7.68681 8.71833 8.58005 8.6066 8.93893 8.6066C9.09025 8.6066 9.17774 8.59591 9.14167 8.58183C9.10676 8.5682 8.99345 8.55706 8.88987 8.55706C8.7159 8.55706 8.52247 8.49522 8.56058 8.45179C8.59933 8.40764 6.97007 8.45701 6.83373 8.50412C6.72959 8.5401 4.10741 8.63412 3.84964 8.61112L3.60416 8.58921L3.84295 8.55839C3.97428 8.54144 4.82744 8.49758 5.73886 8.46093C7.40664 8.39386 7.81255 8.34651 6.71969 8.34651C6.38389 8.34651 6.07497 8.33237 5.97455 8.31239C5.8319 8.28401 5.6344 8.28322 4.80246 8.30773C3.2727 8.3528 2.38366 8.38375 2.17517 8.3992C2.03703 8.40944 1.99549 8.4021 2.02113 8.37198C2.0585 8.32808 2.3762 8.27658 2.87426 8.23367C3.30297 8.19674 3.03648 8.16418 2.48834 8.18652C2.25069 8.1962 1.8483 8.21198 1.59415 8.22158L1.13206 8.23903L1.51714 8.15001C1.72893 8.10105 1.90221 8.05701 1.90221 8.05214C1.90221 8.04728 1.61567 8.03547 1.26545 8.02591C0.437389 8.00332 -0.00568124 7.94732 5.50033e-05 7.866C0.0030682 7.82311 0.667381 7.76557 1.28551 7.75466C1.53998 7.75017 2.11786 7.72878 2.56968 7.70714C3.0215 7.6855 3.7147 7.66277 4.11012 7.65664C4.50553 7.65051 5.10625 7.63375 5.44505 7.6194C7.54917 7.53028 8.02275 7.50835 8.11344 7.4958C8.16917 7.48809 8.00744 7.46961 7.75403 7.45473C7.49902 7.43975 7.29329 7.41314 7.29329 7.39514C7.29329 7.35346 8.32827 7.26291 9.26759 7.22242C9.72452 7.20273 10.0626 7.17342 10.1733 7.14392C10.2724 7.11751 10.6161 7.08421 10.9562 7.06807C11.7278 7.03145 11.707 6.99672 10.8686 6.92199C10.6888 6.90597 10.5626 6.87997 10.588 6.86421C10.646 6.82835 11.1219 6.77364 11.376 6.77364C11.481 6.77364 11.5384 6.76249 11.5035 6.74887C11.4686 6.73525 11.0962 6.7241 10.6759 6.7241C9.9835 6.7241 9.70545 6.69878 10.0402 6.6662C10.3393 6.63709 8.84066 6.65285 8.10046 6.68659C7.1787 6.72862 6.67717 6.71103 6.67717 6.63667C6.67717 6.60239 6.9454 6.55738 7.68511 6.46753C8.38193 6.38289 8.65134 6.33861 8.55795 6.32406C8.38054 6.29643 8.55564 6.26817 9.24435 6.2133C10.2165 6.13585 10.9877 6.00603 10.8864 5.93687C10.8173 5.88964 11.1962 5.86387 12.7615 5.80937C13.5396 5.78228 14.3189 5.74295 14.4932 5.72198C14.6675 5.701 15.0365 5.6773 15.3132 5.6693C16.0762 5.64724 17.5362 5.55815 17.7646 5.51971C17.876 5.50096 18.107 5.48483 18.278 5.48388C18.449 5.48292 18.6813 5.47256 18.7943 5.46085C18.9578 5.4439 18.916 5.43882 18.5889 5.43591C17.7136 5.42814 17.2492 5.40732 17.1331 5.37067C17.0539 5.34565 16.9302 5.33795 16.7737 5.34832C16.5684 5.36193 16.5605 5.36031 16.7167 5.3367C16.8166 5.32161 16.9783 5.31244 17.0761 5.31632C17.1739 5.3202 17.3161 5.31398 17.3921 5.3025C17.4738 5.29014 17.6337 5.29497 17.7835 5.31431C17.9809 5.33979 18.0797 5.34055 18.2311 5.31774C18.354 5.29923 18.4482 5.29739 18.4875 5.31274C18.5217 5.32608 18.8126 5.3374 19.1341 5.33788C19.4555 5.33836 19.834 5.35469 19.9752 5.37416C20.2828 5.41657 20.3859 5.41968 20.3859 5.38654C20.3859 5.37292 20.3139 5.36177 20.2258 5.36177C20.1378 5.36177 20.091 5.35189 20.122 5.33982C20.1529 5.32774 20.0815 5.31176 19.9632 5.3043C19.8449 5.29684 19.7682 5.27607 19.7928 5.25814C19.8381 5.22505 20.298 5.20567 21.7208 5.17688C23.0063 5.15087 23.3638 5.13687 23.3638 5.11256C23.3638 5.09977 23.2945 5.08931 23.2098 5.08931C23.1242 5.08931 23.0558 5.06729 23.0558 5.03977C23.0558 5.00344 23.1242 4.99023 23.3125 4.99023C23.6079 4.99023 23.6583 4.95208 23.3856 4.93488C23.2846 4.92851 22.7647 4.92925 22.2304 4.93652C20.674 4.95771 20.0514 4.95066 19.7258 4.90816C19.5604 4.88657 19.3955 4.87333 19.3593 4.87872C19.3231 4.88412 19.3126 4.85715 19.3359 4.8188C19.3869 4.73512 19.2424 4.72207 18.1881 4.71507C17.5571 4.71088 17.5081 4.70712 17.7274 4.67971C18.0882 4.6346 19.4116 4.56988 20.2008 4.55873C20.6041 4.55304 20.9851 4.5327 21.1221 4.50954C21.4138 4.46026 21.5896 4.45964 21.7869 4.50722C21.8756 4.52862 22.1228 4.54414 22.37 4.54384C23.1311 4.54289 25.9707 4.47323 26.3562 4.44604C26.7163 4.42066 26.7272 4.41656 26.6512 4.33532C26.6034 4.28413 26.6141 4.24088 26.6786 4.22533C26.7519 4.20766 26.7487 4.18917 26.6685 4.16585C26.4232 4.09455 26.7352 4.07979 28.2338 4.09181C29.3982 4.10115 29.7614 4.09603 29.9977 4.06697C30.2477 4.03622 31.3747 3.9938 32.1436 3.98621C32.2566 3.9851 32.58 3.97422 32.8624 3.96204L33.3759 3.9399L32.9138 3.92188C32.6596 3.91197 31.8972 3.90954 31.2194 3.91649C30.5417 3.92344 29.5713 3.92764 29.063 3.92583C28.5547 3.92401 27.5612 3.94069 26.8552 3.96288C25.4583 4.00679 24.0178 4.0375 23.3976 4.0366C23.1814 4.03628 22.9754 4.04576 22.9399 4.05765C22.9045 4.06955 22.7312 4.08071 22.5549 4.08245C22.3786 4.08419 22.2343 4.09484 22.2343 4.10611C22.2343 4.1174 22.1303 4.11957 22.0032 4.11095C21.8224 4.09868 21.8056 4.10092 21.9262 4.12128C22.059 4.14371 22.0555 4.14735 21.9006 4.14768C21.8017 4.1479 21.7209 4.16048 21.7209 4.17567C21.7209 4.19264 21.6232 4.18786 21.4677 4.16329C21.1866 4.11886 21.0634 4.11188 21.1489 4.14524C21.1798 4.15731 21.1132 4.17299 21.0009 4.18007C20.884 4.18745 20.7967 4.18071 20.7966 4.16431C20.7966 4.14773 20.6345 4.13567 20.4116 4.13567C20.1668 4.13567 20.0353 4.14652 20.0506 4.16545C20.0671 4.18594 19.9564 4.19158 19.6956 4.18352C19.2681 4.17032 18.8464 4.11261 18.844 4.06698C18.8429 4.04748 18.8068 4.0499 18.7429 4.07375C18.6657 4.10258 18.643 4.09529 18.6418 4.04115C18.6398 3.95182 18.809 3.87559 19.0093 3.87559C19.0954 3.87559 19.1372 3.86444 19.1023 3.85082C19.0674 3.8372 19.1225 3.8252 19.2246 3.82415C19.563 3.8207 19.7779 3.80569 20.0067 3.76953C20.2119 3.73711 20.694 3.74959 20.694 3.78732C20.694 3.79414 20.6321 3.79399 20.5564 3.78696C20.4807 3.77996 20.3537 3.79359 20.274 3.81726C20.1492 3.85435 20.1494 3.85737 20.2751 3.8391C20.3873 3.82279 20.4042 3.82838 20.3487 3.86332C20.3054 3.8905 20.3294 3.91686 20.4082 3.92893C20.6047 3.959 20.7701 3.95335 20.5914 3.92267C20.4755 3.90277 20.535 3.89951 20.8318 3.90947C21.0499 3.9168 21.3101 3.91008 21.4139 3.89444C21.556 3.87303 21.6381 3.87347 21.752 3.89626C21.8732 3.92054 21.9178 3.91785 21.982 3.88239C22.0258 3.8582 22.0543 3.83005 22.0453 3.81983C22.0364 3.80961 22.0945 3.80125 22.1745 3.80125C22.2545 3.80125 22.3376 3.7885 22.3591 3.77292C22.3807 3.75734 22.5338 3.74111 22.6995 3.73685C22.8652 3.73258 23.0524 3.71207 23.1155 3.69125C23.1786 3.67044 23.2677 3.66159 23.3135 3.6716C23.3592 3.6816 23.3677 3.67028 23.3322 3.64644C23.2528 3.59308 23.4492 3.58809 23.5339 3.64132C23.5877 3.67515 23.6169 3.67471 23.7874 3.63748C23.9694 3.59774 23.9802 3.59802 23.9817 3.6426C23.983 3.68213 23.9994 3.68376 24.0828 3.65263C24.2312 3.59724 24.21 3.58518 23.9351 3.56854C23.7608 3.55799 23.6898 3.53755 23.7011 3.50124C23.7192 3.44338 24.0769 3.40014 24.489 3.40598C24.8732 3.41142 25.2123 3.37955 25.2123 3.33799C25.2123 3.31124 25.3144 3.30339 25.5974 3.30838C26.0113 3.31566 26.7075 3.28779 26.958 3.25389C27.0824 3.23707 27.0725 3.23268 26.9067 3.23113C26.7937 3.23008 26.4703 3.22398 26.1879 3.21759C25.3147 3.19785 24.1532 3.19847 23.7342 3.21891C23.4465 3.23294 23.3544 3.23057 23.4058 3.2105C23.45 3.19326 23.4222 3.18768 23.3331 3.19593C23.2487 3.20375 23.1124 3.18107 23.004 3.14118C22.8717 3.09247 22.8543 3.07025 22.9429 3.06312C23.0261 3.05643 23.006 3.04166 22.8816 3.01813C22.7129 2.9862 22.7238 2.98424 23.0046 2.99601C23.174 3.00311 23.2549 3.00235 23.1843 2.99432C22.9242 2.96475 23.0674 2.93431 23.4666 2.93431C23.7259 2.93431 23.878 2.94573 23.8789 2.96528C23.8801 2.98806 23.9038 2.98736 23.9688 2.96263C24.0243 2.94152 24.0811 2.9384 24.1217 2.95423C24.1906 2.98114 24.3213 2.97905 24.6423 2.9459C24.7523 2.93454 24.9943 2.92449 25.1799 2.92358C25.6055 2.9215 25.7437 2.86001 25.3228 2.86001C25.1563 2.86001 25.0033 2.8439 24.9698 2.82285C24.9299 2.79778 24.9748 2.7857 25.1077 2.7857C25.2161 2.7857 25.3417 2.77176 25.3869 2.75474C25.5047 2.71033 25.9231 2.65774 26.0309 2.6738C26.0812 2.68129 26.1513 2.67611 26.1868 2.66225C26.2223 2.64841 26.3788 2.63708 26.5347 2.63708C26.6905 2.63708 27.069 2.61898 27.3758 2.59686C27.86 2.56193 27.9035 2.55391 27.7057 2.53601C27.5804 2.52468 26.7229 2.51691 25.8003 2.51876C24.8776 2.52062 24.0624 2.51312 23.9886 2.50212C23.9122 2.49073 23.8242 2.49392 23.7841 2.50954C23.7016 2.54174 20.5095 2.56615 20.4301 2.53519C20.4022 2.5243 20.3077 2.52203 20.2201 2.53015C20.1121 2.54014 20.0979 2.55045 20.1761 2.56209C20.2395 2.57155 20.1509 2.57928 19.9793 2.57928C19.8076 2.57928 19.6672 2.56863 19.6672 2.55561C19.6672 2.54259 19.5968 2.54604 19.5107 2.56327C19.4246 2.5805 19.3213 2.58667 19.2812 2.57699C19.241 2.5673 19.323 2.5383 19.4634 2.51253L19.7185 2.46567L19.4618 2.47757C19.2369 2.488 19.2305 2.48657 19.4105 2.46594C19.7066 2.432 20.1933 2.43551 20.4786 2.47365C20.7567 2.51082 21.1048 2.49857 21.1048 2.45162C21.1048 2.42999 21.3076 2.42027 21.7723 2.41964C22.1911 2.41907 22.4397 2.42887 22.4397 2.44595C22.4397 2.46091 22.4975 2.4549 22.5681 2.43257C22.6608 2.40325 22.9388 2.38757 23.5693 2.37609C24.0494 2.36734 24.7338 2.34447 25.0903 2.32525C25.4468 2.30603 25.8858 2.28923 26.0658 2.28793C26.2459 2.28661 26.6243 2.27033 26.9066 2.25173C27.3881 2.22001 27.3337 2.21875 26.0338 2.23142C25.2713 2.23885 24.5782 2.24511 24.4935 2.24534C24.4088 2.24556 23.346 2.27187 22.1317 2.3038C20.9174 2.33574 19.5936 2.36527 19.1898 2.36943C18.7861 2.37359 18.4769 2.38536 18.5028 2.39557C18.5286 2.40579 18.3506 2.4142 18.1073 2.41425C17.8639 2.41425 17.2489 2.4305 16.7406 2.45023C15.869 2.48408 13.8186 2.51898 14.0971 2.49523C14.168 2.48918 14.1999 2.47403 14.168 2.46158C14.1361 2.44912 14.2398 2.43839 14.3984 2.43773C14.5571 2.4371 14.8486 2.41539 15.0463 2.38954C15.2439 2.36369 15.4981 2.33214 15.611 2.31944C15.9823 2.27768 22.0387 2.036 23.4666 2.00596C23.8902 1.99705 25.1148 1.96768 26.1878 1.9407C27.2609 1.91371 28.6773 1.88082 29.3352 1.8676C29.9932 1.85438 30.7539 1.82742 31.0257 1.8077C31.3827 1.78178 31.5394 1.7795 31.5906 1.79946C31.6554 1.82478 32.7358 1.81785 34.0434 1.78373C34.2411 1.77857 34.8649 1.76738 35.4297 1.75887C36.4431 1.7436 37.9871 1.69222 38.8513 1.64501C39.0954 1.63168 39.3383 1.62722 39.3912 1.6351C39.444 1.64298 40.1595 1.62487 40.981 1.59485C42.1966 1.55043 42.5185 1.54591 42.7098 1.5706C42.902 1.59542 43.1483 1.59126 44.0649 1.54769C45.5906 1.47516 47.5815 1.38087 48.5737 1.33415C49.0255 1.31288 49.6819 1.27966 50.0324 1.26034C50.3829 1.24102 50.8218 1.22527 51.0079 1.22533C51.194 1.22533 51.5541 1.2094 51.8083 1.18978C52.2366 1.15672 53.1136 1.12001 55.4537 1.0372C56.6559 0.994661 56.8981 0.984842 58.1236 0.928964C58.6883 0.903212 59.6125 0.863747 60.1773 0.841261C60.7421 0.818775 61.3428 0.79485 61.5122 0.788093C62.7112 0.740296 62.9396 0.741185 63.178 0.794579C63.3067 0.823389 63.412 0.859615 63.412 0.875081C63.412 0.890548 63.4466 0.901882 63.489 0.900269C63.5313 0.898672 63.6716 0.898672 63.8007 0.900269C63.9969 0.902719 64.0185 0.910781 63.9326 0.949484C63.8069 1.00614 63.9075 1.03671 64.0956 0.999034C64.3074 0.956648 64.2592 0.994773 64.0156 1.06235C63.8878 1.0978 63.6312 1.12958 63.395 1.13921C63.0502 1.15326 63.0108 1.161 63.1212 1.19309C63.287 1.24126 63.147 1.24425 69.7272 1.05219C70.179 1.039 70.9877 1.02287 71.5243 1.01634C72.0608 1.0098 73.0312 0.992725 73.6807 0.978385C74.3302 0.964047 75.1851 0.947899 75.5804 0.942501C75.9757 0.937105 76.4819 0.921141 76.7053 0.907026C76.9286 0.892914 77.8147 0.880679 78.6742 0.879842C79.5338 0.879008 80.2984 0.873352 80.3732 0.86728C80.558 0.852297 82.9643 0.82189 83.5369 0.827303C83.7901 0.829704 84.0679 0.847079 84.1543 0.865932C84.3478 0.908178 84.8407 0.912412 87.1327 0.891528C88.1863 0.881924 89.1539 0.860092 89.4716 0.83875C89.8862 0.810901 90.5738 0.803278 92.3982 0.806305C93.7098 0.808495 95.8919 0.80185 97.2474 0.791573C99.9943 0.770741 99.8474 0.770505 102.69 0.800268C104.53 0.819538 105.592 0.820338 107.208 0.803674C107.49 0.800762 107.641 0.793281 107.542 0.78705C107.443 0.780822 107.362 0.764071 107.362 0.749831C107.362 0.73275 107.65 0.728849 108.209 0.738368C108.675 0.746305 110.073 0.764094 111.316 0.7779C112.558 0.791708 114.152 0.814439 114.858 0.828414C117.695 0.884562 118.776 0.904351 120.249 0.927033C123.933 0.983768 125.875 1.00637 127.9 1.01609C128.831 1.02056 129.987 1.03181 130.467 1.04109C130.947 1.05037 131.663 1.05697 132.058 1.05575C132.454 1.05454 133.239 1.06449 133.804 1.07789C134.369 1.09129 136.198 1.10716 137.869 1.11316C139.54 1.11916 141.111 1.13493 141.36 1.14821C141.61 1.16149 142.177 1.17839 142.62 1.18577C143.064 1.19315 143.572 1.20492 143.75 1.21193C144.357 1.23589 145.305 1.25218 146.691 1.26248C147.912 1.27155 149.098 1.29331 150.85 1.3388C151.133 1.34613 151.525 1.35524 151.723 1.35904C151.921 1.36284 152.429 1.3731 152.853 1.38185C153.276 1.39059 153.992 1.40457 154.444 1.4129C154.896 1.42123 155.289 1.43149 155.317 1.43569C155.345 1.43988 155.631 1.45005 155.952 1.45829C156.274 1.46652 156.604 1.47953 156.687 1.48719C156.769 1.49484 157.246 1.50443 157.746 1.50849C159.118 1.51963 159.116 1.51956 159.116 1.5596C159.116 1.58003 159.165 1.59675 159.225 1.59675C159.285 1.59675 159.301 1.58371 159.26 1.56778C159.209 1.54802 159.243 1.54407 159.365 1.55539C159.463 1.56452 159.646 1.57198 159.77 1.57198C159.923 1.57198 160.002 1.58809 160.012 1.62152C160.031 1.68074 159.975 1.68358 159.769 1.63391C159.554 1.58206 159.314 1.58595 159.386 1.6401C159.422 1.66677 159.411 1.6728 159.357 1.65577C159.298 1.6369 159.009 1.63336 158.449 1.64465C157.485 1.66408 156.758 1.65873 155.42 1.62238C154.883 1.6078 154.19 1.58989 153.879 1.58256C153.569 1.57524 153.261 1.56499 153.195 1.55979C153.129 1.55459 153.048 1.56725 153.015 1.5879C152.971 1.61573 152.873 1.62112 152.639 1.60872C152.271 1.58923 152.035 1.58182 151.056 1.55908C150.66 1.5499 150.309 1.53829 150.275 1.53328C150.203 1.5226 148.83 1.52085 146.948 1.52903C145.754 1.53422 144.912 1.52004 144.284 1.48416C143.93 1.46395 141.454 1.4552 141.454 1.47417C141.454 1.48393 141.766 1.49996 142.147 1.5098C142.529 1.51964 142.933 1.53209 143.046 1.53747C143.838 1.57517 145.96 1.61741 147.667 1.62947C148.062 1.63227 148.435 1.6421 148.494 1.65132C148.594 1.66666 151.738 1.7258 151.907 1.71551C151.947 1.71305 152.326 1.71885 152.75 1.72838C153.405 1.74311 155.077 1.77276 155.497 1.77708C155.648 1.77864 155.666 1.81061 155.527 1.83137C155.427 1.84626 154.653 1.8497 153.953 1.83836C153.739 1.8349 153.526 1.81739 153.48 1.79946C153.418 1.77521 153.242 1.77116 152.791 1.78365C152.458 1.79288 152.154 1.80486 152.116 1.81028C152.079 1.8157 151.978 1.80323 151.892 1.78257C151.806 1.7619 151.712 1.75454 151.682 1.7662C151.624 1.78884 149.551 1.7792 148.95 1.7535C148.753 1.74504 148.404 1.73582 148.176 1.73302C147.948 1.73021 147.659 1.71472 147.534 1.69861C147.353 1.67519 147.307 1.67595 147.307 1.7024C147.307 1.72186 147.17 1.73814 146.974 1.74197C146.162 1.75777 145.025 1.75627 144.124 1.73821C143.476 1.72522 143.199 1.72684 143.3 1.74306C143.704 1.80843 142.945 1.84068 141.762 1.80833C140.714 1.77965 140.526 1.77814 140.073 1.79472C139.839 1.80328 139.512 1.80146 139.345 1.79066C138.905 1.76224 136.619 1.71191 135.601 1.70823C135.121 1.7065 134.428 1.69746 134.061 1.68815C133.694 1.67883 132.954 1.66549 132.418 1.6585C131.881 1.65151 130.61 1.6294 129.594 1.60937C128.577 1.58934 127.065 1.56546 126.234 1.55631C124.879 1.54139 124.715 1.54394 124.656 1.58091C124.6 1.61608 124.422 1.62201 123.447 1.62111C122.818 1.62054 122.095 1.62909 121.841 1.64014L121.379 1.66024L122.149 1.68786C122.573 1.70305 123.081 1.71517 123.279 1.7148C123.476 1.7144 124.285 1.73138 125.076 1.75248C125.866 1.77357 127.368 1.80328 128.413 1.81849C129.458 1.8337 130.415 1.85147 130.541 1.858C130.667 1.86452 131.706 1.8807 132.852 1.89396C134.91 1.9178 136.352 1.93725 137.449 1.95599C137.76 1.96129 138.826 1.97691 139.817 1.99071C140.809 2.00451 141.687 2.02076 141.769 2.02683C141.85 2.0329 142.009 2.04629 142.122 2.05659C142.235 2.0669 142.505 2.07842 142.722 2.0822C142.939 2.08599 143.17 2.10675 143.236 2.12835C143.33 2.15954 143.598 2.16895 144.535 2.17403C145.185 2.17755 145.762 2.18729 145.818 2.19566C145.875 2.20404 146.268 2.21743 146.691 2.22543C148.716 2.26364 150.74 2.29468 151.672 2.3018C152.236 2.30611 153.438 2.32911 154.342 2.3529C155.245 2.37669 156.4 2.39985 156.909 2.40437C160.427 2.43567 163.237 2.47508 164.713 2.51384C165.221 2.52719 166.112 2.54528 166.693 2.55404C167.273 2.5628 167.773 2.5795 167.803 2.59114C167.833 2.60279 167.704 2.61322 167.517 2.61433C167.33 2.61545 167.047 2.61862 166.888 2.62142C166.728 2.62421 166.578 2.61866 166.553 2.60907C166.528 2.59949 166.338 2.60302 166.129 2.61692C165.917 2.63102 165.452 2.63496 165.077 2.62584C164.707 2.61684 162.741 2.60512 160.708 2.59979C158.675 2.59445 156.249 2.58289 155.317 2.5741C153.656 2.55842 153.185 2.56801 154.275 2.59533C154.577 2.60291 154.847 2.6145 154.874 2.62109C154.947 2.63876 154.572 2.68246 154.26 2.69252C153.898 2.70425 153.783 2.73563 154.093 2.73831C154.23 2.7395 154.942 2.75085 155.676 2.76355C156.411 2.77625 157.855 2.79322 158.885 2.80127C160.58 2.8145 160.759 2.82007 160.759 2.85932C160.759 2.9138 161.173 2.92668 163.664 2.94984C164.669 2.95919 165.515 2.97623 165.544 2.98773C165.574 2.99922 165.8 3.00863 166.048 3.00863C166.891 3.00863 166.655 3.07703 165.619 3.13275C165.326 3.14848 164.933 3.1593 164.746 3.15679C163.495 3.14007 163.823 3.18884 165.226 3.22822C165.791 3.24407 166.577 3.26244 166.972 3.26903C167.367 3.27563 168.084 3.29214 168.564 3.30572C169.044 3.3193 170.014 3.33776 170.72 3.34674C171.589 3.35781 172.037 3.37355 172.106 3.39553C172.163 3.41352 172.53 3.43518 172.928 3.44412C173.323 3.45299 173.693 3.47386 173.749 3.49049C173.806 3.50713 174.19 3.52825 174.602 3.53744C175.015 3.54664 175.456 3.57053 175.582 3.59053C175.727 3.61346 176.171 3.63094 176.783 3.63781C178.103 3.65262 179.136 3.68054 179.194 3.7029C179.254 3.7264 178.355 3.75997 178.217 3.73938C178.16 3.73094 178.114 3.73459 178.114 3.7475C178.114 3.76041 178.275 3.7783 178.473 3.78724C178.863 3.8049 178.937 3.83571 178.653 3.8623C178.317 3.89368 178.787 3.94338 179.842 3.98821C180.729 4.02587 181.289 4.07241 180.881 4.07448C180.497 4.07642 181.09 4.12008 181.707 4.13531C182.073 4.14435 182.426 4.1625 182.492 4.17564C182.558 4.18878 182.904 4.21088 183.261 4.22476C184.253 4.26331 184.243 4.29429 183.23 4.31349C182.852 4.32066 182.506 4.34191 182.402 4.36436C182.256 4.39587 182.078 4.39964 181.426 4.38497C180.102 4.35514 179.84 4.36095 179.641 4.42449C179.544 4.45559 179.485 4.48884 179.509 4.49837C179.533 4.5079 179.865 4.52349 180.245 4.53303C180.626 4.54257 180.984 4.55912 181.04 4.56981C181.097 4.5805 181.362 4.59714 181.631 4.60677C182.367 4.63321 182.216 4.6682 181.365 4.6682C180.951 4.6682 180.577 4.67656 180.535 4.68678C180.492 4.69699 180.061 4.70535 179.577 4.70535C178.966 4.70535 178.685 4.71478 178.654 4.73632C178.624 4.75753 178.734 4.76732 179.004 4.76742C179.22 4.76746 179.559 4.77778 179.757 4.79028C179.954 4.80277 180.507 4.82005 180.985 4.82867C181.463 4.83729 181.907 4.85477 181.97 4.86752C182.034 4.88027 182.113 4.8842 182.146 4.87627C182.179 4.86833 182.313 4.87109 182.444 4.88241C182.629 4.8983 182.519 4.90658 181.964 4.91877C181.309 4.93314 180.562 4.96929 180.167 5.00573C179.917 5.02886 180.307 5.05428 181.477 5.09107C182.056 5.10927 182.529 5.13078 182.529 5.13886C182.529 5.14694 182.83 5.14894 183.197 5.1433C183.733 5.13506 183.864 5.14016 183.864 5.16925C183.864 5.21415 183.539 5.28757 183.343 5.28706C183.222 5.28675 183.223 5.28253 183.351 5.26267C183.482 5.24224 183.477 5.2386 183.322 5.23828C183.221 5.23806 183.111 5.2552 183.078 5.27634C183.026 5.30909 182.84 5.31286 181.823 5.30183C180.549 5.288 180.235 5.30439 180.47 5.37262C180.863 5.48691 182.467 5.60945 183.569 5.60945C184.235 5.60945 184.583 5.63949 184.583 5.69701C184.583 5.72581 184.419 5.73317 183.787 5.7327C183.349 5.73239 182.806 5.72037 182.58 5.70603C182.355 5.69168 181.29 5.67489 180.215 5.66872C178.314 5.6578 178.26 5.65886 178.245 5.70729C178.23 5.75493 178.355 5.78924 178.576 5.79783C178.632 5.80004 179.075 5.81988 179.56 5.84192C181.147 5.91406 182.556 5.958 183.999 5.98033C185.335 6.00102 185.791 6.02939 185.653 6.08328C185.621 6.09558 185.551 6.09907 185.497 6.09102C185.443 6.08297 185.412 6.09115 185.427 6.10919C185.443 6.12733 185.376 6.14048 185.277 6.1386C185.179 6.13673 185.121 6.14387 185.148 6.15446C185.175 6.16505 185.04 6.18082 184.849 6.18949C184.434 6.20824 184.336 6.25289 184.548 6.32599C184.661 6.36494 184.673 6.38816 184.593 6.41161C184.46 6.45007 184.547 6.47639 184.805 6.47639C184.909 6.47639 184.994 6.48105 184.994 6.48674C184.994 6.49244 185.024 6.51639 185.062 6.53995C185.124 6.57931 185.055 6.58146 184.215 6.56637C183.711 6.55734 183.126 6.54332 182.914 6.53523C182.608 6.52351 182.529 6.52839 182.529 6.55914C182.529 6.58039 182.455 6.60783 182.364 6.62012C182.128 6.65185 182.27 6.79457 182.564 6.82325C182.775 6.84376 182.776 6.84495 182.58 6.8481C182.375 6.85141 182.375 6.85141 182.58 6.8727C182.781 6.89347 182.501 6.90234 181.451 6.90853C181.013 6.91111 180.681 6.94445 180.681 6.98583C180.681 7.00795 180.574 7.02145 180.398 7.02166C180.243 7.02188 180.011 7.02878 179.882 7.03708C179.664 7.05123 179.66 7.05424 179.831 7.08549C179.931 7.10382 180.14 7.11918 180.294 7.11961C180.449 7.12006 180.88 7.15941 181.253 7.20709C181.628 7.25518 182.08 7.29379 182.266 7.29379C182.888 7.29379 183.859 7.32532 183.811 7.34398C183.785 7.35417 183.842 7.36097 183.938 7.3591C184.034 7.35724 184.129 7.37492 184.149 7.39839C184.196 7.45289 183.59 7.54685 183.277 7.53357C183.152 7.52826 183.033 7.53608 183.012 7.55094C182.964 7.58597 181.765 7.59588 181.286 7.5652C181.083 7.55218 180.031 7.5385 178.95 7.5348C177.122 7.52856 176.583 7.54121 177.266 7.5743C177.422 7.58182 177.757 7.59932 178.011 7.61319C178.265 7.62706 178.669 7.63889 178.909 7.63948C179.149 7.64008 179.346 7.65171 179.346 7.66533C179.346 7.67895 179.418 7.6901 179.507 7.6901C179.595 7.6901 179.762 7.70235 179.878 7.71731C180.087 7.74423 180.086 7.74484 179.846 7.77378C179.424 7.82444 179.555 7.87223 180.263 7.92653C180.626 7.95438 180.945 7.9934 180.971 8.01322C180.998 8.03304 181.06 8.05572 181.11 8.06363C181.267 8.08848 181.079 8.16491 180.902 8.14845C180.812 8.14014 180.767 8.14017 180.801 8.14854C180.836 8.1569 180.748 8.19183 180.605 8.22617C180.418 8.27134 180.225 8.28974 179.907 8.29271C179.665 8.29497 179.486 8.3041 179.509 8.31301C179.532 8.32192 179.108 8.32375 178.568 8.31707C177.782 8.30737 177.551 8.31246 177.413 8.34249C177.222 8.38418 176.213 8.40137 175.687 8.3719C175.486 8.36065 175.34 8.36412 175.296 8.38117C175.258 8.39616 175.117 8.40843 174.984 8.40843C174.675 8.40843 174.417 8.43219 174.417 8.46062C174.417 8.47279 174.484 8.48274 174.566 8.48274C174.648 8.48274 174.754 8.49964 174.802 8.5203C174.856 8.5436 175.257 8.57514 175.859 8.6034C177.046 8.65908 177.919 8.74421 177.837 8.79612C177.805 8.81605 177.713 8.82628 177.633 8.81884C177.552 8.8114 177.513 8.81539 177.544 8.8277C177.576 8.84002 177.48 8.88482 177.332 8.92726C177.134 8.98407 177.009 9.00027 176.857 8.98863C176.742 8.97987 176.676 8.98289 176.708 8.99539C176.74 9.00779 176.605 9.01904 176.409 9.02039C176.212 9.02173 175.727 9.042 175.331 9.06543L174.61 9.10804L174.839 9.16694C174.965 9.19933 175.111 9.22583 175.164 9.22583C175.216 9.22583 175.417 9.24398 175.611 9.26617C175.949 9.30485 175.957 9.30887 175.807 9.36396C175.709 9.40016 175.689 9.4271 175.755 9.43679C175.811 9.44526 175.828 9.46375 175.792 9.47788C175.749 9.49447 175.694 9.49166 175.636 9.46998C175.578 9.44817 175.519 9.44525 175.469 9.46165C175.427 9.47555 175.254 9.50305 175.084 9.52276L174.776 9.5586L175.101 9.56701C175.453 9.57613 175.641 9.63969 175.386 9.6633C175.3 9.67128 175.204 9.67165 175.173 9.66412C175.141 9.65659 174.962 9.67127 174.774 9.69674C174.586 9.72221 174.257 9.75099 174.042 9.76071C173.827 9.77042 173.59 9.79338 173.514 9.81172C173.333 9.85517 173.263 9.85421 172.309 9.79535C171.452 9.74252 171.211 9.74745 170.86 9.82491C170.662 9.8686 170.582 9.87076 170.045 9.84683C169.341 9.81545 168.015 9.81143 168.091 9.84091C168.12 9.85224 168.481 9.87538 168.893 9.89232C169.942 9.9355 170.061 9.94477 169.888 9.97047C169.589 10.015 170.927 10.1202 172.235 10.1549C172.588 10.1643 172.899 10.1807 172.927 10.1914C172.954 10.2021 172.879 10.2405 172.761 10.2768C172.562 10.3378 172.558 10.3462 172.711 10.387C172.802 10.4112 172.876 10.4372 172.876 10.4446C172.876 10.4752 171.138 10.4312 170.566 10.3861C169.744 10.3212 168.08 10.2739 167.926 10.311C167.845 10.3306 167.844 10.3475 167.923 10.3706C168.031 10.4018 168.195 10.4152 169.565 10.5037C169.992 10.5313 170.207 10.5576 170.207 10.5825C170.207 10.6138 170.085 10.6171 169.445 10.6031C168.957 10.5924 168.659 10.5957 168.617 10.6121C168.581 10.6262 168.608 10.6377 168.677 10.6377C168.747 10.6377 168.779 10.6435 168.75 10.6505C168.681 10.6671 167.227 10.5935 167.082 10.5661C166.969 10.5445 165.469 10.4888 165.149 10.4943C165.05 10.496 164.97 10.5113 164.97 10.5283C164.97 10.5454 164.946 10.5744 164.916 10.5927C164.866 10.6245 166.12 10.6886 168.281 10.7648C168.606 10.7762 169.039 10.8025 169.243 10.8231C169.448 10.8438 169.76 10.8607 169.937 10.8608C170.402 10.861 171.07 10.91 170.962 10.9361C170.912 10.9481 170.287 10.9612 169.572 10.965C168.858 10.9689 168.281 10.974 168.29 10.9763C168.3 10.9786 168.536 11.0021 168.815 11.0286C169.301 11.0746 169.313 11.0779 169.09 11.1066C168.917 11.129 168.731 11.1299 168.347 11.11C167.722 11.0777 167.639 11.0773 167.639 11.1064C167.639 11.1189 167.777 11.1365 167.946 11.1454C168.508 11.1752 168.386 11.2074 167.713 11.2074C167.321 11.2074 166.924 11.2231 166.732 11.2463C166.537 11.2697 166.318 11.2783 166.181 11.2678C165.888 11.2453 161.067 11.2368 161.123 11.2588C161.243 11.3054 159.896 11.3052 158.746 11.2583C156.419 11.1636 154.438 11.1097 153.16 11.1064C152.455 11.1046 151.392 11.0878 150.799 11.069C150.206 11.0503 149.149 11.0235 148.451 11.0095C147.753 10.9954 147.152 10.9796 147.116 10.9744C147.08 10.9692 146.704 10.9578 146.28 10.9491C145.857 10.9404 145.349 10.9285 145.151 10.9228C144.739 10.9108 142.866 10.8856 141.505 10.8737C140.521 10.8652 139.026 10.8424 138.014 10.8205C137.675 10.8132 136.358 10.8025 135.088 10.7967C133.817 10.7909 132.315 10.777 131.75 10.7658C131.185 10.7546 129.623 10.7466 128.279 10.748C126.246 10.75 125.818 10.7566 125.738 10.7869C125.655 10.8179 125.626 10.8182 125.548 10.7889C125.487 10.7659 125.354 10.7592 125.152 10.769C124.985 10.777 124.798 10.7714 124.736 10.7565C124.675 10.7416 124.471 10.727 124.285 10.7242C124.099 10.7213 123.854 10.7123 123.741 10.7043C123.125 10.6603 122.484 10.6475 122.226 10.6741C122.018 10.6954 121.501 10.6702 121.572 10.6423C121.599 10.632 121.104 10.6206 120.473 10.6169C118.773 10.6071 118.597 10.6026 118.404 10.5641C118.248 10.5328 118.232 10.5342 118.263 10.5771C118.287 10.6098 118.249 10.6225 118.144 10.6165C118.059 10.6116 117.886 10.6075 117.759 10.6072C117.632 10.6069 117.528 10.5981 117.528 10.5877C117.528 10.5772 117.454 10.5618 117.363 10.5533C117.242 10.5422 117.214 10.5486 117.259 10.5768C117.301 10.6034 117.281 10.6094 117.193 10.596C117.123 10.5853 116.627 10.573 116.09 10.5687C114.962 10.5597 115.13 10.5598 109.826 10.5643C107.596 10.5662 105.485 10.5597 105.135 10.5499C104.786 10.5401 104.423 10.5392 104.328 10.548C104.153 10.5642 100.799 10.5961 99.7679 10.5914C98.9619 10.5877 98.0478 10.702 98.5563 10.7429C98.6321 10.749 98.5796 10.7665 98.4279 10.7858C98.2869 10.8038 98.1458 10.8279 98.1145 10.8394C98.0011 10.8809 97.1292 10.9041 96.8816 10.8722C96.7256 10.852 96.3121 10.8448 95.6619 10.8508C95.1209 10.8558 93.3439 10.8658 91.7131 10.873C90.0822 10.8802 88.6357 10.8929 88.4985 10.9012C88.3614 10.9095 87.7784 10.918 87.2031 10.9201C86.6278 10.9222 86.0646 10.9364 85.9517 10.9517C85.7496 10.9791 84.7973 11.0241 84.6378 11.0138C84.4414 11.001 84.0766 11.0042 83.7439 11.0216C83.5462 11.0319 83.2921 11.0385 83.1791 11.0362C83.0662 11.0339 82.8813 11.0301 82.7684 11.0277C82.6554 11.0253 82.124 11.0364 81.5875 11.0524C81.0509 11.0684 80.4122 11.0813 80.168 11.081C79.9238 11.0807 79.6697 11.091 79.6032 11.1039C79.5368 11.1168 79.3322 11.1351 79.1487 11.1446C78.8755 11.1586 78.8149 11.1542 78.8149 11.1198C78.8149 11.0827 78.73 11.0799 78.0704 11.0955C77.661 11.1051 76.5866 11.1156 75.683 11.1187C74.7793 11.1218 73.7911 11.1375 73.4868 11.1535C73.1826 11.1695 72.9113 11.1826 72.8838 11.1826C72.8564 11.1826 72.8914 11.1993 72.9617 11.2198C73.0321 11.2402 73.2457 11.2569 73.4364 11.2569C73.6272 11.2569 73.7832 11.2616 73.7832 11.2673C73.7832 11.273 73.8113 11.2953 73.8456 11.3168C73.9311 11.3705 73.6419 11.3679 73.4138 11.3129C73.2845 11.2817 73.2231 11.2783 73.1923 11.3006C73.1688 11.3176 73.1073 11.3252 73.0557 11.3175C73.004 11.3098 72.9618 11.3125 72.9618 11.3236C72.9618 11.3346 72.8578 11.345 72.7307 11.3466C72.6036 11.3483 71.8989 11.3623 71.1647 11.3777C70.4305 11.3931 68.9518 11.4102 67.8787 11.4157C66.8057 11.4211 65.8122 11.4317 65.671 11.4392C65.1926 11.4645 62.5622 11.5232 61.1527 11.54C58.5409 11.5711 56.5608 11.6612 56.1525 11.7675C56.0248 11.8008 55.7998 11.8276 55.6382 11.8289C54.3094 11.8393 52.464 11.8727 51.6542 11.9009C51.3153 11.9128 50.7208 11.9293 50.3331 11.9376C49.9454 11.946 49.3962 11.9634 49.1125 11.9764C48.8289 11.9894 48.5801 12 48.5595 12C48.539 12 48.5222 11.9715 48.5222 11.9366V11.9367ZM48.5222 11.7113C48.5222 11.6842 48.4767 11.6822 48.3207 11.7023C48.2003 11.7179 48.1431 11.7434 48.1786 11.7657C48.2245 11.7946 48.2707 11.7966 48.3802 11.7747C48.4583 11.7591 48.5222 11.7305 48.5222 11.7113ZM65.825 11.3429C66.2268 11.3081 66.2166 11.3076 65.3629 11.3197C63.408 11.3473 62.7957 11.3613 62.7957 11.3784C62.7957 11.4107 65.3929 11.3803 65.825 11.3429ZM18.1268 11.0438C18.1268 11.0384 18.0575 11.034 17.9728 11.034C17.8881 11.034 17.8187 11.0448 17.8187 11.058C17.8187 11.0712 17.8881 11.0756 17.9728 11.0678C18.0575 11.0599 18.1268 11.0491 18.1268 11.0438ZM25.5716 10.9597C25.6075 10.9457 25.5234 10.9349 25.3784 10.9349C25.2372 10.9349 25.0931 10.9461 25.0582 10.9597C25.0223 10.9737 25.1064 10.9845 25.2514 10.9845C25.3926 10.9845 25.5367 10.9733 25.5716 10.9597ZM20.694 10.833C20.694 10.8074 20.571 10.805 20.343 10.8261C20.0853 10.85 20.1545 10.8797 20.4373 10.8667C20.5785 10.8602 20.694 10.845 20.694 10.833ZM78.7981 10.8289C79.1485 10.8054 79.1966 10.7964 79.024 10.7865C78.75 10.7708 75.4828 10.8039 73.7319 10.8401C73.2562 10.8499 76.9306 10.874 77.6854 10.8659C78.0525 10.862 78.5532 10.8454 78.7981 10.8289ZM82.3577 10.7527C82.4706 10.7463 82.2627 10.7419 81.8956 10.743C81.0194 10.7457 80.6725 10.7684 81.2281 10.7868C81.454 10.7943 81.7544 10.7923 81.8956 10.7824C82.0368 10.7725 82.2447 10.7592 82.3577 10.7527ZM16.8259 10.76C17.0374 10.7585 17.036 10.7572 16.7986 10.7343C16.5186 10.7073 16.2784 10.7208 16.2784 10.7634C16.2784 10.779 16.3514 10.7849 16.4409 10.7766C16.5302 10.7683 16.7035 10.7609 16.8259 10.76ZM83.9003 10.7321C83.9277 10.7255 83.745 10.7182 83.4941 10.7159C83.2432 10.7136 83.0061 10.7242 82.967 10.7394C82.9172 10.7589 83.0379 10.7637 83.3732 10.7556C83.6356 10.7493 83.8728 10.7387 83.9003 10.7321ZM164.199 10.4396C164.239 10.4242 164.075 10.4159 163.769 10.4177C163.331 10.4203 163.31 10.4228 163.583 10.4396C164.033 10.4671 164.129 10.4671 164.199 10.4396ZM5.92627 10.0759C5.85215 10.0687 5.76358 10.0696 5.72946 10.0778C5.69533 10.086 5.75598 10.0919 5.86423 10.0908C5.98386 10.0896 6.00819 10.0838 5.92627 10.0759ZM7.13927 10.0432C7.34564 10.0273 7.35571 10.0233 7.19061 10.0227C7.07765 10.0223 6.89282 10.0315 6.77986 10.0432C6.51819 10.0704 6.78816 10.0704 7.13927 10.0432ZM8.51715 10.053C8.60648 10.0447 8.67958 10.0179 8.67958 9.99341C8.67958 9.95547 8.61499 9.95082 8.24316 9.96203C7.7713 9.97626 7.46339 10.0185 7.83148 10.0185C7.9524 10.0185 8.07989 10.0296 8.1148 10.0432C8.18785 10.0718 8.2881 10.0742 8.51715 10.053ZM175.341 9.62216C175.341 9.60853 175.26 9.59756 175.161 9.59777C175.008 9.59808 175.004 9.60163 175.136 9.62216C175.329 9.65237 175.341 9.65237 175.341 9.62216ZM11.0606 8.61445C10.9865 8.60729 10.8979 8.60817 10.8638 8.61641C10.8297 8.62464 10.8903 8.63049 10.9986 8.62941C11.1182 8.62822 11.1426 8.62236 11.0606 8.61445ZM10.2199 8.54218C10.2199 8.50181 9.93429 8.49727 9.5591 8.53168C9.15066 8.56914 9.24759 8.59549 9.75779 8.58571C10.0678 8.57976 10.2199 8.56543 10.2199 8.54218ZM12.1273 8.56005C12.0247 8.52003 11.6575 8.50982 11.6575 8.547C11.6575 8.56785 11.7629 8.58183 11.9203 8.58183C12.0648 8.58183 12.158 8.57203 12.1273 8.56005ZM11.3494 8.53229C11.464 8.51443 11.4048 8.50818 11.1184 8.5079C10.9066 8.50768 10.7333 8.51867 10.7333 8.53229C10.7333 8.56384 11.1471 8.56384 11.3494 8.53229ZM182.529 5.63424C182.529 5.62062 182.483 5.60947 182.426 5.60947C182.37 5.60947 182.324 5.62062 182.324 5.63424C182.324 5.64786 182.37 5.65901 182.426 5.65901C182.483 5.65901 182.529 5.64786 182.529 5.63424ZM183.274 5.17198C183.203 5.16511 183.087 5.16511 183.017 5.17198C182.946 5.17885 183.004 5.18447 183.145 5.18447C183.286 5.18447 183.344 5.17885 183.274 5.17198ZM181.733 4.87367C181.606 4.86776 181.398 4.86776 181.271 4.87367C181.144 4.87957 181.248 4.8844 181.502 4.8844C181.756 4.8844 181.86 4.87957 181.733 4.87367ZM176.984 4.67371C176.984 4.66311 176.603 4.64121 176.137 4.62505C175.671 4.6089 175.178 4.58795 175.043 4.57851C174.889 4.56785 174.819 4.57063 174.858 4.58585C174.893 4.59933 175.327 4.62453 175.824 4.64187C176.321 4.6592 176.773 4.67691 176.83 4.68123C176.886 4.68555 176.944 4.68996 176.958 4.69104C176.972 4.69211 176.984 4.68431 176.984 4.67371ZM27.2146 4.44529C27.398 4.42629 27.3904 4.42382 27.1437 4.42227C26.9917 4.42131 26.8388 4.43167 26.8039 4.44529C26.7281 4.47487 26.9293 4.47487 27.2146 4.44529ZM176.265 4.30017C176.265 4.28847 175.801 4.26618 175.235 4.25064C173.958 4.21562 173.729 4.21491 173.859 4.24639C173.914 4.25961 174.466 4.28034 175.086 4.29247C175.706 4.3046 176.225 4.31608 176.239 4.31799C176.254 4.31989 176.265 4.31188 176.265 4.30018V4.30017ZM21.4536 4.00357C21.4826 3.99222 21.4392 3.98293 21.3569 3.98293C21.2747 3.98293 21.2074 3.99222 21.2074 4.00357C21.2074 4.01492 21.2509 4.02421 21.304 4.02421C21.3572 4.02421 21.4245 4.01492 21.4536 4.00357ZM35.1921 3.95775C35.118 3.9506 35.0294 3.95147 34.9953 3.9597C34.9612 3.96793 35.0218 3.97379 35.1301 3.97271C35.2497 3.97152 35.2741 3.96565 35.1921 3.95775ZM19.2564 3.92513C19.2564 3.91151 19.1755 3.90053 19.0767 3.90074C18.9231 3.90105 18.9193 3.90461 19.051 3.92513C19.2448 3.95534 19.2564 3.95534 19.2564 3.92513ZM19.6671 3.88652C19.6671 3.88051 19.6209 3.87559 19.5644 3.87559C19.5079 3.87559 19.4617 3.8874 19.4617 3.90182C19.4617 3.91625 19.5079 3.92117 19.5644 3.91275C19.6209 3.90433 19.6671 3.89252 19.6671 3.88652ZM25.5203 3.71405C25.6615 3.70453 26.1005 3.68744 26.4958 3.67607C26.8912 3.6647 27.3764 3.64361 27.574 3.62921C27.7717 3.61481 27.9334 3.60397 27.9334 3.6051C27.9334 3.6146 28.6368 3.5616 28.986 3.52579C29.5157 3.47147 29.5492 3.42974 29.063 3.42974C28.812 3.42974 28.7036 3.41853 28.7036 3.39258C28.7036 3.35449 29.1632 3.33943 29.9261 3.35253C30.2584 3.35823 31.2067 3.31554 31.4238 3.2851C31.5859 3.26237 31.0677 3.23673 30.3917 3.23405C29.952 3.2323 29.5772 3.24974 29.1143 3.2935C28.7541 3.32756 28.3641 3.3556 28.2477 3.35581C28.0792 3.35612 28.0665 3.36082 28.1852 3.37894C28.2673 3.39146 28.3712 3.3962 28.4163 3.38949C28.4613 3.38277 28.4982 3.38782 28.4982 3.4007C28.4982 3.42287 28.2734 3.43853 27.4891 3.471C27.3012 3.47878 27.1226 3.50083 27.0921 3.52C27.0467 3.5485 27.0072 3.54909 26.8753 3.52326C26.7403 3.4968 26.7239 3.49801 26.7746 3.53069C26.8188 3.55924 26.7757 3.56861 26.6141 3.56558C26.4926 3.56331 26.2398 3.57156 26.0524 3.58392C25.8161 3.5995 25.6666 3.59737 25.5646 3.57695C25.4819 3.5604 25.4176 3.55822 25.4176 3.57196C25.4176 3.59928 24.6352 3.67744 24.3616 3.67744C24.2647 3.67744 24.1853 3.69268 24.1853 3.7113C24.1853 3.73651 24.323 3.7434 24.7245 3.73826C25.021 3.73447 25.3791 3.72358 25.5203 3.71405ZM29.7445 2.81575C29.6704 2.8098 29.561 2.81669 29.5013 2.83109C29.4251 2.84947 29.4652 2.8527 29.636 2.84192C29.7749 2.83316 29.8214 2.82194 29.7445 2.81575ZM153.776 2.71761C153.776 2.70739 153.636 2.69666 153.465 2.69377C153.286 2.69075 153.179 2.6987 153.214 2.71235C153.286 2.74029 153.777 2.74489 153.776 2.71761ZM30.0385 2.56157L30.2952 2.55966L30.0557 2.5365C29.7851 2.51034 29.3197 2.53049 29.3197 2.56837C29.3197 2.58218 29.423 2.58667 29.5508 2.57841C29.6778 2.5702 29.8973 2.56262 30.0385 2.56157ZM152.955 2.56693C152.955 2.55558 152.886 2.54629 152.801 2.54629C152.716 2.54629 152.647 2.55558 152.647 2.56693C152.647 2.57828 152.716 2.58757 152.801 2.58757C152.886 2.58757 152.955 2.57828 152.955 2.56693ZM153.385 2.57065C153.311 2.56349 153.222 2.56437 153.188 2.5726C153.154 2.58083 153.215 2.58669 153.323 2.58561C153.443 2.58443 153.467 2.57855 153.385 2.57065ZM31.8035 2.52111C31.7293 2.51395 31.6408 2.51483 31.6066 2.52306C31.5725 2.53129 31.6332 2.53715 31.7414 2.53607C31.861 2.53489 31.8854 2.52901 31.8035 2.52111ZM20.2832 2.48849C20.2832 2.47487 20.237 2.46372 20.1805 2.46372C20.1241 2.46372 20.0779 2.47487 20.0779 2.48849C20.0779 2.50211 20.1241 2.51326 20.1805 2.51326C20.237 2.51326 20.2832 2.50211 20.2832 2.48849ZM22.9531 2.42353C22.9531 2.39578 22.7603 2.42011 22.705 2.45484C22.6509 2.48883 22.666 2.49037 22.7967 2.46419C22.8827 2.44697 22.9531 2.42868 22.9531 2.42353ZM23.98 2.42657C23.98 2.40613 23.9618 2.38941 23.9396 2.38941C23.9174 2.38941 23.8727 2.40613 23.8402 2.42657C23.8076 2.447 23.8258 2.46372 23.8805 2.46372C23.9352 2.46372 23.98 2.447 23.98 2.42657ZM158.417 1.57986C158.343 1.57271 158.254 1.57359 158.22 1.58181C158.186 1.59005 158.247 1.5959 158.355 1.59482C158.474 1.59364 158.499 1.58777 158.417 1.57986ZM63.8696 1.07833C63.9021 1.06564 63.8865 1.04899 63.8351 1.04132C63.7836 1.03364 63.715 1.04402 63.6826 1.06437C63.6187 1.1045 63.773 1.11602 63.8696 1.07833ZM15.1285 11.709C15.0694 11.692 15.0614 11.6777 15.1106 11.6773C15.1599 11.6769 15.1138 11.6644 15.0082 11.6496C14.7373 11.6116 14.9773 11.5791 15.5083 11.5818C15.7856 11.5832 15.8523 11.5891 15.7137 11.6C15.518 11.6153 15.3721 11.6784 15.5339 11.6777C15.8355 11.6764 16.0532 11.644 16.0062 11.6075C15.9604 11.5718 15.9726 11.5721 16.1017 11.6099C16.2771 11.6613 17.0585 11.6707 17.126 11.6223C17.1603 11.5977 17.2021 11.5979 17.3289 11.6231C17.5287 11.6629 17.6467 11.7596 17.4769 11.7445C17.4108 11.7386 17.3716 11.7188 17.3899 11.7004C17.4132 11.6771 17.3661 11.6795 17.2332 11.7085C17.0814 11.7417 16.8611 11.749 16.1395 11.745C15.5657 11.7418 15.1967 11.7287 15.1285 11.709ZM13.7189 11.6544C13.5821 11.634 13.6479 11.579 13.809 11.579C13.9261 11.579 14.029 11.6489 13.9329 11.6632C13.8903 11.6696 13.794 11.6656 13.7189 11.6544ZM15.8915 11.4551C15.7779 11.4112 15.7898 11.4051 15.9952 11.4018C16.1227 11.3997 16.2964 11.3962 16.3811 11.394C16.655 11.3868 16.7066 11.4094 16.5259 11.4576C16.2977 11.5184 16.0529 11.5174 15.8915 11.4551ZM78.0962 11.2708C78.0962 11.2648 78.1424 11.253 78.1988 11.2446C78.2553 11.2361 78.3015 11.2411 78.3015 11.2555C78.3015 11.2699 78.2553 11.2817 78.1988 11.2817C78.1424 11.2817 78.0962 11.2768 78.0962 11.2708ZM79.301 11.2539C79.3707 11.2369 79.4535 11.2293 79.4851 11.237C79.5168 11.2446 79.4598 11.2584 79.3585 11.2677C79.2121 11.2812 79.2004 11.2783 79.301 11.2539ZM24.1853 11.1857C24.1853 11.1737 24.2566 11.1497 24.3437 11.1322C24.4669 11.1076 24.5295 11.1071 24.6253 11.1302C24.721 11.1533 24.7143 11.1651 24.5952 11.1833C24.4016 11.2128 24.1853 11.2141 24.1853 11.1857ZM140.119 10.9597C140.119 10.9461 140.186 10.9349 140.267 10.9349C140.349 10.9349 140.444 10.9461 140.479 10.9597C140.514 10.9733 140.447 10.9845 140.331 10.9845C140.214 10.9845 140.119 10.9733 140.119 10.9597ZM138.374 10.9334C138.374 10.9052 138.649 10.9023 138.72 10.9298C138.747 10.9406 138.681 10.9511 138.572 10.953C138.463 10.955 138.374 10.9462 138.374 10.9334ZM36.538 10.8934C36.4456 10.8354 36.5864 10.8268 36.9413 10.869C37.1265 10.891 37.2318 10.9107 37.1753 10.9128C36.7425 10.9285 36.5862 10.9237 36.538 10.8934ZM125.332 10.8359C125.332 10.8222 125.353 10.8111 125.378 10.8111C125.402 10.8111 125.451 10.8222 125.486 10.8359C125.521 10.8495 125.501 10.8606 125.441 10.8606C125.381 10.8606 125.332 10.8495 125.332 10.8359ZM123.852 10.8144C123.808 10.7972 123.799 10.7763 123.833 10.7682C123.925 10.746 124.025 10.7786 123.976 10.8145C123.941 10.8397 123.917 10.8397 123.852 10.8144ZM124.228 10.8195C124.018 10.799 124.083 10.7651 124.305 10.7792C124.418 10.7863 124.511 10.802 124.511 10.814C124.511 10.8376 124.431 10.8392 124.228 10.8195ZM173.458 10.6955C173.34 10.667 173.384 10.6377 173.544 10.6377C173.629 10.6377 173.698 10.6544 173.698 10.6749C173.698 10.7135 173.577 10.724 173.458 10.6955ZM46.0196 10.5438C45.9919 10.533 46.0595 10.5225 46.1698 10.5205C46.28 10.5185 46.3434 10.5273 46.3106 10.5401C46.2378 10.5685 46.0878 10.5704 46.0196 10.5438ZM46.9452 10.5012C46.9775 10.4809 47.0798 10.4635 47.1726 10.4624C47.2654 10.4614 47.5493 10.4555 47.8034 10.4493C48.1367 10.4413 48.2226 10.4452 48.1115 10.4633C47.9844 10.4839 47.9829 10.4884 48.1029 10.4887C48.1829 10.4889 48.2196 10.496 48.1844 10.5045C48.1492 10.513 47.8428 10.524 47.5034 10.529C46.9894 10.5366 46.8963 10.532 46.9452 10.5012ZM5.03857 10.4413C4.96262 10.4116 5.1558 10.3823 5.29257 10.4026C5.40741 10.4198 5.33202 10.4643 5.18821 10.4643C5.1384 10.4643 5.07106 10.4539 5.03857 10.4413ZM6.00971 9.797C6.00971 9.78418 6.05539 9.76688 6.11122 9.75856C6.16943 9.74988 6.18664 9.75983 6.15158 9.78187C6.08331 9.82478 6.00971 9.83263 6.00971 9.797ZM6.76275 9.78424C6.76275 9.76441 6.80201 9.75403 6.85 9.76119C6.89798 9.76834 6.91066 9.78457 6.87817 9.79725C6.79513 9.82966 6.76275 9.82601 6.76275 9.78424ZM185.712 6.55071C185.628 6.53751 185.605 6.5267 185.661 6.5267C185.718 6.5267 185.833 6.53751 185.918 6.55071C186.002 6.56392 186.026 6.57472 185.969 6.57472C185.913 6.57472 185.797 6.56392 185.712 6.55071ZM16.9972 4.71249C16.9972 4.70176 17.0897 4.69299 17.2026 4.69299C17.3156 4.69299 17.408 4.70344 17.408 4.71622C17.408 4.72899 17.3156 4.73777 17.2026 4.73572C17.0897 4.73366 16.9972 4.72321 16.9972 4.71249ZM21.2974 4.34872L21.0566 4.30169L21.6711 4.28201C22.0091 4.27119 22.5282 4.2617 22.8246 4.26093C23.1211 4.26015 23.3637 4.25194 23.3637 4.24267C23.3638 4.22339 23.9755 4.26179 24.0709 4.28708C24.1056 4.29627 23.9915 4.29726 23.8172 4.28929C23.6222 4.28036 23.3854 4.28946 23.2011 4.31294C23.0365 4.33394 22.6592 4.35219 22.3626 4.35351C22.0661 4.35483 21.8235 4.36487 21.8235 4.37583C21.8235 4.41134 21.5444 4.39695 21.2974 4.34872ZM20.003 4.35602C20.0371 4.34779 20.1257 4.34691 20.1998 4.35406C20.2817 4.36197 20.2574 4.36784 20.1378 4.36903C20.0295 4.3701 19.9689 4.36425 20.003 4.35602ZM18.1349 4.01389C18.1305 3.98777 18.1547 3.97314 18.1888 3.98138C18.223 3.98961 18.2266 4.01097 18.1969 4.02885C18.1642 4.04861 18.1398 4.04274 18.1349 4.01389ZM20.9394 3.8057C20.9681 3.7945 20.897 3.76582 20.7814 3.74195C20.5746 3.69924 20.5814 3.69738 21.2066 3.62606C21.9596 3.54017 22.0289 3.53823 22.0289 3.60312C22.0289 3.63364 21.9599 3.65281 21.8492 3.65304C21.7036 3.65335 21.697 3.65762 21.8148 3.6756C21.8947 3.6878 22.0449 3.69384 22.1485 3.68903C22.2522 3.68422 22.337 3.69163 22.337 3.70552C22.337 3.7194 22.1868 3.72878 22.0032 3.72636C21.8197 3.72394 21.5771 3.72325 21.4641 3.72485C21.293 3.72725 21.2845 3.73174 21.4128 3.75175C21.5444 3.77227 21.5407 3.77581 21.3871 3.77614C21.2883 3.77636 21.2074 3.78766 21.2074 3.80129C21.2074 3.81491 21.1354 3.82605 21.0473 3.82605C20.9593 3.82605 20.9107 3.8169 20.9394 3.8057ZM22.2524 3.60582C22.1492 3.59043 22.1532 3.5801 22.2716 3.55639C22.4378 3.52312 22.5702 3.55218 22.4559 3.5968C22.4151 3.61272 22.3253 3.61669 22.2524 3.60582ZM18.6916 2.5628C18.6567 2.54917 18.6974 2.53803 18.7821 2.53803C18.8669 2.53803 18.9647 2.54917 18.9996 2.5628C19.0345 2.57642 18.9938 2.58757 18.9091 2.58757C18.8244 2.58757 18.7265 2.57642 18.6916 2.5628ZM20.7947 2.4519C20.9426 2.40892 21.002 2.40445 21.002 2.4363C21.002 2.44846 20.9262 2.46544 20.8335 2.47402C20.6925 2.48706 20.6862 2.48344 20.7947 2.4519ZM165.923 2.05217C166.043 2.02314 166.701 2.00038 166.833 2.02066C166.91 2.03233 166.926 2.04315 166.869 2.04471C166.317 2.06 165.876 2.06347 165.923 2.05217ZM165.299 2.02161C165.214 2.00855 165.278 2.00135 165.479 2.00135C165.651 2.00135 165.791 2.01064 165.791 2.02199C165.791 2.04835 165.472 2.04811 165.299 2.02159V2.02161ZM162.659 1.98999C162.219 1.96625 161.152 1.94923 159.158 1.93414C158.476 1.92897 157.818 1.91199 157.697 1.89641C157.566 1.87945 157.106 1.87082 156.551 1.87491C156.042 1.87868 155.625 1.87923 155.625 1.87612C155.625 1.8675 156.223 1.79492 156.293 1.79492C156.328 1.79492 156.327 1.80606 156.293 1.81969C156.255 1.83414 156.36 1.84446 156.543 1.84446C156.716 1.84446 156.857 1.83331 156.857 1.81969C156.857 1.80606 156.906 1.79492 156.966 1.79492C157.026 1.79492 157.04 1.80885 156.998 1.82588C156.941 1.84877 156.959 1.85031 157.069 1.83176C157.15 1.81796 157.309 1.80795 157.422 1.80952C157.535 1.81107 157.873 1.81401 158.173 1.81602C158.472 1.81804 158.696 1.82805 158.67 1.83826C158.644 1.84848 158.907 1.85521 159.255 1.85322C159.602 1.8512 159.967 1.85998 160.066 1.87267C160.186 1.88807 160.246 1.88673 160.246 1.86864C160.246 1.85373 160.302 1.84986 160.37 1.86004C160.438 1.87022 160.889 1.88159 161.371 1.88531C161.854 1.88902 162.248 1.89338 162.248 1.895C162.248 1.89662 162.479 1.90154 162.762 1.90596C163.044 1.91037 163.287 1.91646 163.301 1.91947C163.325 1.92462 163.431 1.93213 163.609 1.94132C163.691 1.94554 163.209 2.01748 163.121 2.01412C163.093 2.01303 162.885 2.00217 162.659 1.98997V1.98999ZM158.5 1.86615C158.5 1.85423 158.411 1.84447 158.301 1.84447C158.191 1.84447 158.077 1.85423 158.046 1.86615C158.016 1.87807 158.105 1.88782 158.245 1.88782C158.386 1.88782 158.5 1.87807 158.5 1.86615ZM163.993 1.79453C163.958 1.78069 163.885 1.77577 163.833 1.78361C163.78 1.79145 163.737 1.78671 163.737 1.77309C163.737 1.72513 163.903 1.72437 164.026 1.77178C164.094 1.79814 164.129 1.81971 164.104 1.81971C164.078 1.81971 164.028 1.80838 163.993 1.79454V1.79453ZM161.795 1.69792C161.687 1.67181 161.577 1.65562 161.55 1.66193C161.524 1.66825 161.278 1.67715 161.003 1.68172C160.526 1.68963 159.936 1.63861 160.085 1.60248C160.205 1.57356 160.914 1.58033 161.069 1.61187C161.228 1.64416 161.517 1.64523 161.646 1.61399C161.755 1.58771 162.279 1.59347 162.352 1.62176C162.45 1.66025 162.304 1.74538 162.139 1.74538C162.058 1.74538 161.903 1.72402 161.795 1.69791V1.69792ZM162.855 1.7168C162.811 1.69973 162.826 1.6949 162.893 1.70482C162.954 1.71396 163.033 1.71011 163.069 1.69626C163.164 1.65892 163.292 1.66577 163.292 1.70824C163.292 1.75187 162.961 1.75835 162.855 1.7168ZM42.7996 1.53228C42.8337 1.52404 42.9222 1.52316 42.9964 1.53032C43.0783 1.53823 43.054 1.5441 42.9343 1.54529C42.8261 1.54636 42.7654 1.54051 42.7996 1.53228ZM63.5146 0.828918C63.5146 0.815296 63.5349 0.804149 63.5598 0.804149C63.5847 0.804149 63.6337 0.815296 63.6686 0.828918C63.7035 0.842542 63.6831 0.853688 63.6233 0.853688C63.5635 0.853688 63.5146 0.842542 63.5146 0.828918ZM65.909 0.831425C65.7433 0.802047 65.7829 0.759832 65.9655 0.771344C66.0819 0.778689 66.1565 0.768585 66.1673 0.744037C66.1767 0.722605 66.1921 0.688351 66.2015 0.667916C66.211 0.647481 66.3034 0.62937 66.4069 0.627666C66.5105 0.625956 66.6298 0.622269 66.6722 0.619456C66.7146 0.616638 66.8878 0.605352 67.0573 0.594365C67.434 0.569939 67.6387 0.533451 67.5635 0.504108C67.5326 0.492028 67.5985 0.482146 67.7101 0.482146C67.8217 0.482146 67.9364 0.496077 67.9651 0.513108C68.0013 0.53462 68.0431 0.535956 68.102 0.517494C68.2528 0.470265 68.5672 0.455524 68.733 0.487914C68.8661 0.513911 68.8786 0.513263 68.8058 0.484127C68.739 0.457411 68.761 0.452944 68.8972 0.46555C68.9958 0.474679 69.1389 0.482144 69.2152 0.482144C69.2915 0.482144 69.3817 0.503292 69.4157 0.529141C69.4555 0.55935 69.5435 0.571973 69.6623 0.564485C69.9244 0.547952 69.8972 0.486707 69.633 0.498437C69.4242 0.507703 69.424 0.507364 69.6245 0.484393C69.7374 0.471448 69.9862 0.460073 70.1774 0.459116C70.3686 0.458151 70.8075 0.446442 71.1529 0.433079C72.0481 0.39845 74.2983 0.337766 75.3236 0.320608C75.8037 0.312577 76.4044 0.301586 76.6585 0.296184C77.194 0.284805 78.251 0.266692 79.6365 0.245157C80.173 0.236817 80.9123 0.223854 81.2795 0.216353C82.1618 0.198324 83.5507 0.196979 83.7439 0.213976C83.8287 0.221424 84.0944 0.236075 84.3344 0.246538C84.5744 0.256998 84.7708 0.27376 84.7708 0.283784C84.7708 0.293807 84.6566 0.329566 84.517 0.363244C84.3103 0.413099 84.167 0.424028 83.7464 0.422043C83.4391 0.420576 83.2437 0.429774 83.2643 0.444689C83.2833 0.458481 83.6547 0.470686 84.0895 0.471806C84.7724 0.47356 85.2273 0.505609 85.072 0.541017C85.0026 0.556861 83.6412 0.572515 83.6415 0.55747C83.6416 0.550102 83.3297 0.547562 82.9484 0.551823C82.567 0.556085 81.9899 0.54945 81.6659 0.537049C81.3419 0.524661 81.0549 0.519813 81.0281 0.526278C81.0013 0.532738 80.7812 0.540377 80.539 0.543252C80.2967 0.546128 79.9709 0.557089 79.8148 0.567618C79.6461 0.579003 79.4782 0.576182 79.4007 0.560654C79.329 0.546296 78.8235 0.531972 78.2774 0.528822C77.6014 0.524927 77.3057 0.514587 77.3507 0.496431C77.387 0.481768 77.3383 0.485116 77.2425 0.503875C77.1226 0.527335 76.9378 0.532953 76.6504 0.521868C76.3761 0.511286 76.255 0.514459 76.2976 0.531108C76.3703 0.559487 76.3568 0.56003 75.4263 0.566061C75.0592 0.568439 74.6548 0.579151 74.5278 0.589863C74.4007 0.600576 74.2967 0.600229 74.2967 0.589095C74.2967 0.57796 74.1812 0.568849 74.04 0.568849C73.8988 0.568849 73.7833 0.577209 73.7833 0.587426C73.7833 0.597644 73.7112 0.606004 73.6232 0.606004C73.5351 0.606004 73.4872 0.59659 73.5167 0.585078C73.588 0.557263 72.5331 0.598113 72.4565 0.626135C72.3164 0.677433 70.3946 0.729417 70.3946 0.681911C70.3946 0.667413 70.3457 0.655543 70.2859 0.655543C70.226 0.655543 70.2037 0.665921 70.2362 0.678603C70.3291 0.714857 70.0928 0.737178 69.94 0.706585C69.8375 0.686062 69.7893 0.687317 69.7508 0.711507C69.7176 0.732394 69.5486 0.741934 69.2767 0.738267C69.0444 0.735135 68.8543 0.742982 68.8543 0.755705C68.8543 0.796667 68.3267 0.769767 68.2243 0.723582C68.1698 0.699022 68.0805 0.685582 68.026 0.693716C67.9714 0.70185 67.9504 0.717715 67.9792 0.728969C68.008 0.740222 67.964 0.755687 67.8815 0.76333C67.7989 0.770976 67.7036 0.766395 67.6696 0.753149C67.632 0.738466 67.5005 0.743511 67.3326 0.766071C67.0167 0.808527 66.0343 0.853636 65.909 0.831435V0.831425ZM64.4388 0.718919C64.4388 0.675411 64.5004 0.669006 64.5884 0.703361C64.6209 0.716043 64.6005 0.733421 64.5431 0.741976C64.4857 0.750533 64.4388 0.740181 64.4388 0.718919ZM64.8257 0.676131C64.8854 0.661736 64.9948 0.654833 65.0689 0.660789C65.1458 0.666974 65.0993 0.678202 64.9604 0.68696C64.7896 0.697734 64.7495 0.694509 64.8257 0.676131ZM100.2 0.613282C100.073 0.607378 99.9685 0.594039 99.9685 0.583642C99.9685 0.553329 100.415 0.569807 100.459 0.601749C100.481 0.617707 100.484 0.629243 100.465 0.627388C100.446 0.625526 100.327 0.619187 100.2 0.613282ZM98.0688 0.556452C98.3511 0.527193 98.5132 0.527193 98.3255 0.556452C98.2408 0.56966 98.1022 0.579854 98.0175 0.579103C97.9159 0.578206 97.9334 0.57049 98.0688 0.556452ZM98.6909 0.558758C98.6592 0.546405 98.7258 0.542133 98.8388 0.549264C99.0786 0.564389 99.1089 0.58122 98.8964 0.58122C98.815 0.58122 98.7225 0.571111 98.6909 0.558758ZM85.4713 0.502704C85.3097 0.463517 85.3831 0.460799 86.6522 0.458954C87.3965 0.45786 88.1085 0.452184 88.2344 0.446315C88.3602 0.440446 88.4872 0.445 88.5165 0.456429C88.5458 0.46786 88.7112 0.474852 88.884 0.471964C89.3512 0.464163 89.3534 0.500225 88.8864 0.51097C88.6655 0.516051 88.5068 0.51163 88.5336 0.501174C88.6179 0.468273 88.4598 0.48048 88.2989 0.519295C88.1242 0.561433 87.6904 0.56902 87.5945 0.531614C87.5523 0.515122 87.4633 0.515505 87.3296 0.532753C87.1023 0.562102 86.8883 0.542157 86.9928 0.501364C87.0385 0.483525 87.0131 0.481829 86.9174 0.496318C86.8381 0.50833 86.5191 0.524082 86.2084 0.531322C85.7639 0.54168 85.607 0.535589 85.4713 0.5027V0.502704ZM93.7046 0.531677C93.7046 0.518054 93.725 0.506909 93.7499 0.506909C93.7748 0.506909 93.8237 0.518054 93.8586 0.531677C93.8935 0.545301 93.8732 0.556447 93.8134 0.556447C93.7536 0.556447 93.7046 0.545301 93.7046 0.531677ZM89.5971 0.482138C89.5046 0.467711 89.4919 0.457974 89.5654 0.457747C89.6327 0.457522 89.7162 0.468514 89.7511 0.482138C89.8299 0.512891 89.7944 0.512891 89.5971 0.482138ZM129.705 0.47876C129.758 0.458023 129.367 0.43363 129.288 0.452744C129.177 0.479374 128.721 0.484405 128.721 0.458989C128.721 0.443268 128.429 0.43948 127.925 0.448674C127.308 0.459948 127.049 0.454138 126.77 0.422765C126.572 0.400527 126.488 0.387441 126.584 0.393687C126.679 0.399933 126.771 0.395352 126.789 0.383522C126.807 0.371688 126.891 0.358383 126.975 0.353953C127.06 0.349529 127.163 0.334758 127.205 0.321133C127.246 0.307509 127.281 0.320774 127.282 0.350627C127.283 0.401923 127.299 0.402944 127.566 0.369306C127.819 0.337385 127.863 0.338173 127.99 0.376967C128.126 0.418097 128.129 0.418093 128.071 0.376967C128.023 0.343514 128.065 0.33362 128.257 0.33362C128.394 0.33362 128.552 0.353127 128.61 0.376967C128.668 0.401023 128.716 0.406534 128.718 0.389352C128.721 0.356917 129.029 0.34466 129.029 0.376967C129.029 0.387184 129.378 0.3949 129.805 0.394113C130.232 0.393323 130.605 0.401684 130.633 0.41269C130.661 0.423694 130.783 0.432697 130.904 0.432697C131.08 0.432697 131.098 0.438891 130.995 0.463659C130.867 0.49466 129.627 0.509266 129.705 0.478861V0.47876ZM131.391 0.478015C131.391 0.466661 131.425 0.456621 131.468 0.455701C131.51 0.454781 131.693 0.449363 131.873 0.443663C132.28 0.430841 132.424 0.473334 132.034 0.490695C131.647 0.507859 131.391 0.502805 131.391 0.478015ZM123.997 0.395447C123.997 0.381825 123.824 0.370679 123.612 0.370679C123.401 0.370679 123.193 0.381825 123.152 0.395447C123.101 0.411961 123.076 0.411961 123.075 0.395447C123.072 0.364415 122.457 0.357074 122.457 0.388082C122.457 0.400554 122.415 0.404497 122.364 0.396845C122.266 0.382265 121.363 0.358857 120.403 0.346039C120.093 0.341889 119.839 0.335991 119.839 0.33293C119.839 0.316329 118.487 0.316072 118.401 0.332661C118.247 0.362269 117.22 0.382925 117.22 0.356419C117.22 0.343827 117.151 0.333526 117.066 0.333526C116.981 0.333526 116.912 0.344281 116.912 0.357429C116.912 0.372353 116.189 0.376927 114.987 0.36961C113.928 0.363165 112.95 0.358007 112.813 0.35815C112.677 0.358374 112.412 0.348132 112.223 0.335577C112.017 0.32185 111.88 0.321764 111.88 0.335353C111.88 0.357862 111.521 0.354216 111.424 0.330716C111.396 0.323938 110.928 0.322354 110.385 0.327199C109.731 0.333037 109.349 0.326213 109.253 0.306958C109.14 0.284332 109.107 0.285427 109.106 0.311904C109.105 0.333382 109.077 0.336373 109.029 0.320023C108.984 0.304493 108.4 0.292917 107.567 0.291066C106.805 0.289379 104.494 0.281601 102.433 0.273811C100.372 0.266023 97.7261 0.258164 96.5542 0.25635C95.3823 0.254555 94.4233 0.246077 94.4232 0.237553C94.4231 0.229025 94.1689 0.222049 93.8584 0.222049C93.5479 0.222049 93.2938 0.230409 93.2938 0.240626C93.2938 0.250844 93.2449 0.259204 93.1851 0.259204C93.1253 0.259204 93.1049 0.248058 93.1398 0.234434C93.1747 0.220811 93.1313 0.209665 93.0432 0.209665C92.9552 0.209677 92.8831 0.19853 92.8831 0.184908C92.8831 0.171284 92.8342 0.160137 92.7744 0.160137C92.7146 0.160137 92.6942 0.171284 92.7291 0.184908C92.7666 0.199538 92.6535 0.209523 92.4527 0.209297C92.1956 0.208983 92.1504 0.20308 92.267 0.184908C92.3808 0.167174 92.3856 0.160797 92.2853 0.160517C92.1808 0.160203 92.185 0.151596 92.3037 0.122983C92.3884 0.102548 92.5534 0.0858282 92.6704 0.0858282C92.7874 0.0858282 92.8831 0.0739302 92.8831 0.0593882C92.8831 0.0437049 92.9719 0.039747 93.1014 0.0496601C93.2482 0.0609026 93.2966 0.0573972 93.2493 0.0389447C93.2107 0.0238595 93.2064 0.011519 93.2398 0.011519C93.2732 0.011519 93.3356 0.0344429 93.3786 0.0624621L93.4567 0.113407L93.7275 0.062026C93.9131 0.026808 94.0208 0.0194054 94.0697 0.0384977C94.1203 0.0582445 94.1661 0.0565712 94.2271 0.0327429C94.2971 0.00543125 95.0016 -0.00069205 97.9881 5.94541e-05C100.009 0.000584386 102.495 0.00814134 103.511 0.0168951C104.528 0.0256471 106.214 0.0392709 107.259 0.0471709C111.032 0.0756895 112.004 0.0860543 112.089 0.0986576C112.278 0.126819 113.105 0.1518 113.23 0.133122C113.307 0.121612 113.397 0.125721 113.444 0.142868C113.503 0.164997 113.549 0.163093 113.624 0.135367C113.68 0.114932 113.726 0.109359 113.727 0.122983C113.728 0.138616 114.363 0.146648 115.449 0.144759C117.164 0.141771 120.095 0.181756 120.095 0.20815C120.095 0.215802 120.454 0.220807 120.891 0.219278C121.641 0.216653 123.369 0.250551 123.675 0.273904C123.788 0.28252 123.79 0.29178 123.686 0.322003C123.582 0.35246 123.584 0.357404 123.7 0.348546C123.779 0.342561 123.972 0.330832 124.13 0.322483C124.306 0.313129 124.394 0.295697 124.357 0.277067C124.324 0.260437 124.352 0.26428 124.417 0.2856C124.514 0.316955 124.646 0.320801 125.107 0.305707C125.432 0.295093 125.755 0.297066 125.858 0.310282C125.957 0.323067 126.168 0.335043 126.327 0.336898C126.593 0.340003 126.596 0.34116 126.368 0.351532C126.177 0.360247 126.153 0.367802 126.266 0.384934C126.424 0.409174 126.291 0.41221 124.845 0.417262C124.34 0.419016 123.997 0.410202 123.997 0.395449V0.395447ZM94.1527 0.172664C94.1203 0.152305 94.0525 0.141819 94.0019 0.149357C93.8569 0.170971 93.8947 0.209674 94.0608 0.209674C94.1524 0.209674 94.1885 0.195145 94.1527 0.172664ZM88.1637 0.257336C88.2693 0.209703 88.2631 0.204294 88.1177 0.217747C87.9727 0.231167 87.9662 0.225743 88.0707 0.178664L88.1919 0.123999L88.2941 0.179223C88.4113 0.242581 88.6234 0.251793 88.7101 0.19729C88.7426 0.176855 88.7321 0.160135 88.6868 0.160135C88.6415 0.160135 88.6045 0.14328 88.6045 0.122676C88.6045 0.0922211 88.6973 0.0881851 89.1008 0.101097C89.4399 0.111946 89.5971 0.108119 89.5971 0.0890205C89.5971 0.0734883 89.7596 0.061058 89.9626 0.061058C90.2022 0.061058 90.304 0.0704405 90.2583 0.0882989C90.2086 0.107665 90.2507 0.107501 90.4039 0.0877293C90.5829 0.0646193 90.6092 0.0662954 90.5593 0.0976423C90.5263 0.118391 90.4581 0.135369 90.4076 0.135369C90.3572 0.135369 90.3159 0.146515 90.3159 0.160137C90.3159 0.21177 90.5015 0.181928 90.624 0.110598C90.7668 0.0274095 90.7705 0.0269522 91.0279 0.0601831C91.1578 0.0769468 91.1979 0.103121 91.1624 0.147904C91.1346 0.183011 91.1523 0.208486 91.2017 0.204512C91.251 0.200542 91.3146 0.208182 91.3428 0.221499C91.3732 0.235817 91.1291 0.247422 90.7453 0.249908C90.1522 0.253749 90.0869 0.249011 89.9844 0.194739C89.8738 0.136221 89.4944 0.110559 89.4944 0.161598C89.4944 0.176029 89.5401 0.181021 89.5959 0.172698C89.6532 0.164156 89.6719 0.173641 89.6388 0.194441C89.6045 0.21599 89.5126 0.225072 89.4177 0.216288C89.3122 0.206519 89.2807 0.211146 89.3278 0.229513C89.4104 0.261754 89.0691 0.28556 88.6729 0.275191C88.5317 0.271499 88.3319 0.278381 88.2287 0.290489C88.0607 0.310216 88.054 0.306775 88.1637 0.257337V0.257336ZM90.9728 0.164265C91.0019 0.152912 90.9604 0.143624 90.8807 0.143624C90.801 0.143624 90.7595 0.152912 90.7886 0.164265C90.8177 0.175617 90.8591 0.184906 90.8807 0.184906C90.9023 0.184906 90.9437 0.175617 90.9728 0.164265ZM86.7804 0.26203C86.7495 0.249955 86.8163 0.234269 86.9288 0.227169C87.0651 0.218571 87.1125 0.201086 87.0707 0.174815C87.0362 0.153118 87.0514 0.135367 87.1045 0.135367C87.2454 0.135367 87.2226 0.216279 87.0715 0.252728C86.9182 0.289699 86.8564 0.291675 86.7804 0.26203ZM87.4101 0.193162C87.439 0.174997 87.4759 0.160135 87.492 0.160135C87.5082 0.160135 87.545 0.174997 87.5739 0.193162C87.6028 0.211328 87.566 0.22619 87.492 0.22619C87.4181 0.22619 87.3812 0.211328 87.4101 0.193162ZM87.8061 0.123769C87.9158 0.103768 88.1067 0.0870486 88.2305 0.0866148C88.4754 0.0857399 88.6315 0.123318 88.478 0.146196C88.4254 0.154032 88.3647 0.14764 88.3431 0.131969C88.3135 0.11057 88.2492 0.110529 88.0843 0.131745C87.7687 0.172494 87.5702 0.166752 87.8061 0.1237V0.123769ZM86.4416 0.1204C86.4757 0.112169 86.5643 0.111289 86.6384 0.118448C86.7204 0.126354 86.696 0.132224 86.5764 0.133411C86.4682 0.134484 86.4075 0.128633 86.4416 0.120403V0.1204ZM91.8562 0.110594C91.7246 0.0900757 91.7283 0.086527 91.8819 0.0862027C91.9807 0.0859783 92.0616 0.0969698 92.0616 0.110594C92.0616 0.140804 92.05 0.140804 91.8562 0.110594ZM91.3048 0.072868C91.2558 0.0420859 91.2821 0.0399657 91.4478 0.0613537C91.6858 0.0920829 91.7084 0.110594 91.5078 0.110594C91.4291 0.110594 91.3378 0.0936163 91.3048 0.072868Z" fill="url(#paint0_linear_0_3)"/>
</g>
<defs>
<linearGradient id="paint0_linear_0_3" x1="3.46567e-07" y1="6" x2="186" y2="6.00001" gradientUnits="userSpaceOnUse">
<stop stop-color="#98FFC6"/>
<stop offset="1" stop-color="#71FDB0"/>
</linearGradient>
<clipPath id="clip0_0_3">
<rect width="186" height="12" fill="white"/>
</clipPath>
</defs>
</svg>
