<svg width="76" height="49" viewBox="0 0 76 49" fill="none" xmlns="http://www.w3.org/2000/svg">
<path d="M26.2859 0.5L30.6716 32.0453H23.7111L20.627 10.0204L20.5421 9.96359L15.3075 19.9956H20.9382L21.787 25.8499H12.2517L8.99777 32.0453H1.24497L4.30082 25.8499H0L2.99926 19.9956H7.38496L17.6277 0.5H26.2859ZM75.9717 7.80373L71.7558 32.0453H64.7952L59.5324 19.8535C58.7401 23.889 58.0894 28.0098 57.382 32.0453H50.3649C50.6195 30.198 50.9873 28.294 51.1571 26.4467C48.8935 30.4538 44.8474 32.8126 40.3202 32.7274C37.0097 32.6989 32.9918 30.5959 31.1526 27.8961L29.3418 15.2211C30.9546 10.9583 35.3403 7.66163 39.8392 7.29218C44.4229 7.03641 48.3276 8.96892 50.9873 12.8055C51.9211 14.198 52.4587 15.7611 52.7982 17.4094L54.5242 7.80373H61.3433L66.7193 20.0524C67.4549 15.9885 68.1906 11.8961 68.8697 7.80373H75.9717ZM44.6493 15.5906C43.2911 13.8854 41.1124 13.3455 39.1035 13.9991C37.4341 14.4538 36.1042 16.3011 35.5383 17.8073C34.548 20.4503 35.6798 24.0879 37.4907 25.1963C38.7357 25.9636 40.1504 26.3615 41.6217 25.9352C43.0931 25.452 44.5644 24.2584 45.2152 22.7522C46.2055 20.6492 46.3753 17.4378 44.6493 15.5906Z" fill="#BEF1D5"/>
<path d="M1.24496 46.2549V39.9458H4.66863V40.8268H2.48993V42.5319H4.64034V43.3845H2.48993V45.4023H5.03647V46.2549H1.24496Z" fill="#BEF1D5"/>
<path d="M11.7706 46.2549V43.6972C11.7706 43.2425 11.7423 43.0151 11.6292 42.8162C11.516 42.5889 11.2896 42.4468 11.0067 42.4468C10.6671 42.4468 10.3842 42.6457 10.2144 42.9867C10.1295 43.1288 10.1012 43.3278 10.1012 43.7256V46.2549H8.88457V43.7256C8.88457 43.2709 8.85628 43.0436 8.77139 42.8731C8.65821 42.6457 8.46015 42.4752 8.1489 42.4752C7.72448 42.4752 7.44153 42.7025 7.32835 43.072C7.27176 43.2709 7.24347 43.5267 7.24347 43.8393V46.2834H6.05508V41.7931H7.24347V42.4468C7.55471 41.9636 8.03572 41.6794 8.65821 41.6794C9.2807 41.6794 9.73342 41.9352 9.95977 42.5036C10.2993 41.9636 10.8369 41.6794 11.4311 41.6794C12.0819 41.6794 12.5629 41.9636 12.7893 42.4183C12.9307 42.7025 12.9873 42.9299 12.9873 43.6404V46.2834H11.7706V46.2549Z" fill="#BEF1D5"/>
<path d="M15.449 45.5727V48.4999H14.2606V41.7646H15.449V42.475C15.8451 41.9351 16.2978 41.6509 16.9769 41.6509C18.1087 41.6509 18.9575 42.5603 18.9575 43.896C18.9575 45.2601 18.0521 46.34 16.8354 46.34C16.2978 46.3685 15.8168 46.1127 15.449 45.5727ZM17.7126 43.9528C17.7126 42.9297 17.2033 42.3614 16.6091 42.3614C16.0432 42.3614 15.449 42.8445 15.449 44.0381C15.449 44.9759 15.8451 45.658 16.5525 45.658C17.3164 45.658 17.7126 44.8338 17.7126 43.9528Z" fill="#BEF1D5"/>
<path d="M19.6649 43.9529C19.6649 42.5604 20.6835 41.6226 22.0417 41.6226C23.3716 41.6226 24.3902 42.5604 24.3902 43.9529C24.3902 45.4307 23.2867 46.3401 22.0134 46.3401C20.7684 46.3686 19.6649 45.4591 19.6649 43.9529ZM23.1735 43.9814C23.1735 42.873 22.6925 42.2762 22.0417 42.2762C21.3909 42.2762 20.9099 42.9014 20.9099 43.9814C20.9099 45.0897 21.4192 45.7433 22.0134 45.7433C22.6642 45.7433 23.1735 45.1181 23.1735 43.9814Z" fill="#BEF1D5"/>
<path d="M30.2472 46.2549H29.3983L28.2665 43.2425L27.1348 46.2549H26.3142L24.7297 41.8784L25.9181 41.6794L26.8801 44.834L28.0402 41.7647H28.8324L29.9359 44.834L30.9546 41.6794L31.9732 41.8215L30.2472 46.2549Z" fill="#BEF1D5"/>
<path d="M36.4721 45.8285C35.9062 46.1979 35.312 46.3685 34.6895 46.3685C34.067 46.3685 33.5577 46.1979 33.1333 45.8569C32.5674 45.4306 32.2845 44.7202 32.2845 43.9244C32.2845 43.2139 32.5674 42.5603 33.0767 42.134C33.4728 41.8214 33.9538 41.6509 34.548 41.6509C35.2271 41.6509 35.7081 41.8782 36.0477 42.3045C36.3589 42.674 36.5004 43.2139 36.5004 43.7823C36.5004 43.8676 36.5004 43.9812 36.5004 44.0949H33.5294C33.5577 45.0043 34.0387 45.5727 34.9159 45.5727C35.312 45.5727 35.7364 45.4022 36.1043 45.1749L36.4721 45.8285ZM35.4535 43.3844C35.4535 42.7308 35.1422 42.2477 34.548 42.2477C33.9821 42.2477 33.586 42.674 33.5577 43.4981H35.4535V43.3844Z" fill="#BEF1D5"/>
<path d="M40.2353 42.9013C40.0372 42.7592 39.8109 42.7308 39.6694 42.7308C39.3016 42.7308 39.0186 42.9582 38.8772 43.4129C38.7923 43.6402 38.764 43.9244 38.764 44.436V46.2548H37.5756V41.7646H38.764V42.6455C38.7923 42.5603 38.8206 42.475 38.8489 42.4182C39.0469 41.9919 39.3299 41.6509 39.7826 41.6509C40.0372 41.6509 40.3202 41.7646 40.6314 42.0203L40.2353 42.9013Z" fill="#BEF1D5"/>
<path d="M46.6582 46.3684L45.385 43.6686H44.5644V46.2548H43.2911V39.9741H45.0737C45.9792 39.9741 46.4602 40.0878 46.8563 40.3436C47.2807 40.6278 47.5354 41.1393 47.5354 41.7077C47.5354 42.5034 47.0827 43.1002 46.4319 43.4413L47.9315 46.1411L46.6582 46.3684ZM46.0075 41.0256C45.7811 40.8551 45.4981 40.7699 44.9888 40.7699H44.5644V42.9297H45.102C45.6396 42.9297 45.866 42.816 46.064 42.5887C46.2621 42.3329 46.347 41.9919 46.347 41.793C46.3187 41.4519 46.2055 41.1677 46.0075 41.0256Z" fill="#BEF1D5"/>
<path d="M52.5719 45.8285C52.006 46.1979 51.4118 46.3685 50.7893 46.3685C50.1668 46.3685 49.6575 46.1979 49.2331 45.8569C48.6672 45.4306 48.3842 44.7202 48.3842 43.9244C48.3842 43.2139 48.6672 42.5603 49.1765 42.134C49.5726 41.8214 50.0536 41.6509 50.6478 41.6509C51.3269 41.6509 51.8079 41.8782 52.1474 42.3045C52.4587 42.674 52.6002 43.2139 52.6002 43.7823C52.6002 43.8676 52.6002 43.9812 52.6002 44.0949H49.6292C49.6575 45.0043 50.1385 45.5727 51.0156 45.5727C51.4118 45.5727 51.8362 45.4022 52.204 45.1749L52.5719 45.8285ZM51.5532 43.3844C51.5532 42.7308 51.242 42.2477 50.6478 42.2477C50.0819 42.2477 49.6858 42.674 49.6575 43.4981H51.5532V43.3844Z" fill="#BEF1D5"/>
<path d="M53.3075 45.857L53.647 45.2034C53.93 45.4591 54.2978 45.6581 54.6091 45.6581C55.0335 45.6581 55.2598 45.4307 55.2598 45.0897C55.2598 44.8055 55.0901 44.6066 54.5242 44.1803C54.0149 43.8108 53.5622 43.4414 53.5622 42.8446C53.5622 42.1057 54.1846 41.6226 55.0901 41.6226C55.5711 41.6226 56.0238 41.7647 56.3916 41.992L56.0804 42.5604C55.854 42.3899 55.5994 42.3046 55.3447 42.3046C54.9486 42.3046 54.7505 42.5604 54.7505 42.7593C54.7505 43.0151 54.9486 43.214 55.4013 43.5551C56.2785 44.1803 56.4765 44.4645 56.4765 45.0044C56.4765 45.8002 55.7691 46.3117 54.8071 46.3117C54.2129 46.3686 53.7036 46.1696 53.3075 45.857Z" fill="#BEF1D5"/>
<path d="M60.3812 46.2549V45.6012C59.9851 46.1412 59.5607 46.3686 58.9382 46.3686C58.2874 46.3686 57.7215 46.0559 57.5235 45.516C57.4103 45.2318 57.382 45.0044 57.382 44.294V41.7646H58.5704V44.3224C58.5704 44.7202 58.5987 44.976 58.6836 45.1465C58.7967 45.3739 59.0514 45.5444 59.4192 45.5444C59.8153 45.5444 60.0983 45.3455 60.2398 45.0044C60.3247 44.7771 60.353 44.5213 60.353 44.1803V41.7646H61.5696V46.2549H60.3812Z" fill="#BEF1D5"/>
<path d="M64.0596 39.6616H62.8712V46.2549H64.0596V39.6616Z" fill="#BEF1D5"/>
<path d="M68.1057 46.0844C67.7096 46.2549 67.3417 46.3686 66.9173 46.3686C66.3514 46.3686 65.9836 46.198 65.7572 45.857C65.5875 45.5728 65.5309 45.3455 65.5309 44.7203V42.3899H64.9084V41.7647H65.5309V40.6847L66.7193 40.429V41.7647H67.8793V42.3899H66.7193V44.4076C66.7193 45.2034 66.8607 45.6581 67.3417 45.6581C67.5115 45.6581 67.6813 45.6297 67.8793 45.516L68.1057 46.0844Z" fill="#BEF1D5"/>
<path d="M68.6151 45.857L68.9546 45.2034C69.2375 45.4591 69.6054 45.6581 69.9166 45.6581C70.341 45.6581 70.5674 45.4307 70.5674 45.0897C70.5674 44.8055 70.3976 44.6066 69.8034 44.1803C69.2941 43.8108 68.8414 43.4414 68.8414 42.8446C68.8414 42.1057 69.4639 41.6226 70.3693 41.6226C70.8503 41.6226 71.3031 41.7647 71.6709 41.992L71.3596 42.5604C71.1333 42.3899 70.8786 42.3046 70.624 42.3046C70.2279 42.3046 70.0298 42.5604 70.0298 42.7593C70.0298 43.0151 70.2279 43.214 70.6806 43.5551C71.5577 44.1803 71.7558 44.4645 71.7558 45.0044C71.7558 45.8002 71.0484 46.3117 70.0864 46.3117C69.5205 46.3686 69.0112 46.1696 68.6151 45.857Z" fill="#BEF1D5"/>
<path d="M72.6046 41.6793C72.6046 40.713 73.3686 39.9741 74.3306 39.9741C75.2644 39.9741 76 40.7414 76 41.6793C76 42.6171 75.2644 43.3844 74.3023 43.3844C73.3403 43.3844 72.6046 42.6171 72.6046 41.6793ZM75.6039 41.6793C75.6039 40.912 75.0097 40.2867 74.3023 40.2867C73.595 40.2867 73.0291 40.912 73.0291 41.6509C73.0291 42.4182 73.6233 43.015 74.3306 43.015C75.0097 43.0434 75.6039 42.4466 75.6039 41.6793ZM74.6136 42.5887L74.3023 41.8214H74.1043V42.5318H73.7081V40.7414H74.274C74.4438 40.7414 74.6136 40.7699 74.7551 40.8551C74.8965 40.9404 74.9814 41.054 74.9814 41.253C74.9814 41.4803 74.8682 41.6509 74.6702 41.7645L75.0663 42.5034L74.6136 42.5887ZM74.2174 41.5372C74.3872 41.5372 74.5004 41.4519 74.5004 41.2814C74.5004 41.0825 74.3589 41.0256 74.2174 41.0256H74.076V41.5088H74.2174V41.5372Z" fill="#BEF1D5"/>
</svg>
