<svg width="114" height="37" viewBox="0 0 114 37" fill="none" xmlns="http://www.w3.org/2000/svg">
<path d="M6.12025 6.0693H27.1242L33.1604 0.0739746C32.8518 0.0243277 32.5396 -0.000409959 32.227 5.1379e-06H5.91751C4.34809 5.1379e-06 2.84294 0.618265 1.73318 1.71877C0.623431 2.81928 -2.15218e-05 4.3119 -2.15218e-05 5.86825V31.9586C-0.000440105 32.2686 0.0245053 32.5782 0.0745693 32.8842L6.12025 26.8983V6.0693Z" fill="#BEF1D5"/>
<path d="M31.2001 30.9401H10.1865L4.15039 36.9259C4.45909 36.9746 4.77115 36.9994 5.08373 36.9999H31.3932C32.9627 36.9999 34.4678 36.3816 35.5776 35.2811C36.6873 34.1806 37.3108 32.688 37.3108 31.1317V5.04129C37.3102 4.73131 37.2853 4.42185 37.2362 4.11572L31.2001 10.1016V30.9401Z" fill="#DFFFED"/>
<path d="M16.016 25.1554H25.2749V15.9756" fill="#DFFFED"/>
<path d="M21.1092 11.9358H11.8503V21.1156" fill="#BEF1D5"/>
<path d="M59.9939 28.501V32.2431H44.9017V29.2844L53.3974 19.2814H45.1178V15.5393H59.6325V18.5L51.1348 28.501H59.9939Z" fill="#BEF1D5"/>
<path d="M75.6158 28.5978V32.2431H62.0881V15.5393H75.3022V19.1923H66.8065V22.0012H74.2923V25.5347H66.8065V28.5902L75.6158 28.5978Z" fill="#BEF1D5"/>
<path d="M85.6302 27.8088H83.0291V32.2431H78.2629V15.5393H85.9668C87.4969 15.5393 88.8204 15.7922 89.9373 16.298C90.9979 16.7462 91.9024 17.4934 92.5384 18.4469C93.1619 19.4277 93.4799 20.569 93.4526 21.7281C93.479 22.842 93.1823 23.9401 92.5977 24.8917C92.0028 25.812 91.1555 26.545 90.1553 27.0046L93.7893 32.2545H88.6865L85.6302 27.8088ZM87.8928 19.9149C87.3929 19.4837 86.6547 19.2688 85.678 19.27H83.0291V24.1634H85.6837C86.6604 24.1634 87.3987 23.9522 87.8985 23.5299C88.3983 23.1076 88.647 22.507 88.6444 21.7281C88.6406 20.9454 88.39 20.341 87.8928 19.9149Z" fill="#BEF1D5"/>
<path d="M99.7719 31.4618C98.3773 30.7402 97.2088 29.6533 96.3934 28.3192C95.578 26.9852 95.1469 25.4551 95.1469 23.8951C95.1469 22.3352 95.578 20.805 96.3934 19.471C97.2088 18.137 98.3773 17.0501 99.7719 16.3284C101.263 15.59 102.907 15.2056 104.573 15.2056C106.24 15.2056 107.884 15.59 109.375 16.3284C110.77 17.0501 111.938 18.137 112.753 19.471C113.569 20.805 114 22.3352 114 23.8951C114 25.4551 113.569 26.9852 112.753 28.3192C111.938 29.6533 110.77 30.7402 109.375 31.4618C107.884 32.2003 106.24 32.5847 104.573 32.5847C102.907 32.5847 101.263 32.2003 99.7719 31.4618ZM106.885 28.0706C107.576 27.6707 108.143 27.0883 108.52 26.3883C108.917 25.6154 109.124 24.7605 109.124 23.8932C109.124 23.026 108.917 22.171 108.52 21.3982C108.142 20.6985 107.576 20.1162 106.885 19.7158C106.178 19.3241 105.383 19.1185 104.573 19.1185C103.764 19.1185 102.968 19.3241 102.262 19.7158C101.57 20.1161 101.004 20.6984 100.625 21.3982C100.23 22.1716 100.024 23.0263 100.024 23.8932C100.024 24.7601 100.23 25.6148 100.625 26.3883C101.003 27.0885 101.57 27.6709 102.262 28.0706C102.968 28.4623 103.764 28.668 104.573 28.668C105.383 28.668 106.178 28.4623 106.885 28.0706Z" fill="#BEF1D5"/>
<path d="M50.5018 10.1887H47.6233L47.0878 11.5012H45.1255L48.1302 4.75293H50.0255L53.0398 11.5012H51.0373L50.5018 10.1887ZM49.9376 8.78142L49.0635 6.62303L48.1971 8.78142H49.9376Z" fill="#DFFFED"/>
<path d="M55.0021 11.4331C54.5524 11.3284 54.125 11.1454 53.7398 10.8926L54.3709 9.48526C54.6989 9.69552 55.0558 9.85778 55.4305 9.96702C55.8139 10.0891 56.2137 10.153 56.6163 10.1567C57.3546 10.1567 57.7256 9.96702 57.7256 9.60665C57.7244 9.51129 57.6931 9.41869 57.6362 9.34182C57.5793 9.26496 57.4995 9.20768 57.4081 9.17801C57.0794 9.04945 56.7394 8.95105 56.3925 8.88403C55.9573 8.79648 55.5286 8.67989 55.1092 8.53504C54.7684 8.41061 54.4645 8.20321 54.2256 7.93191C53.966 7.61766 53.8344 7.2185 53.8565 6.81288C53.8502 6.41298 53.9684 6.02089 54.195 5.69006C54.4515 5.33729 54.8046 5.0648 55.2125 4.90484C55.7391 4.69804 56.3027 4.59994 56.8688 4.61655C57.3135 4.61628 57.7569 4.66591 58.1904 4.76449C58.5932 4.8526 58.9801 5.00097 59.3379 5.20452L58.745 6.62132C58.1703 6.29371 57.5219 6.11438 56.8592 6.09974C56.5703 6.07914 56.2812 6.13753 56.0234 6.26854C55.9449 6.3124 55.8793 6.37596 55.8333 6.45285C55.7873 6.52975 55.7625 6.61727 55.7614 6.70667C55.7634 6.79805 55.7944 6.88647 55.8501 6.95934C55.9057 7.03222 55.9831 7.08583 56.0712 7.11255C56.3956 7.2381 56.7312 7.33334 57.0734 7.39705C57.5104 7.48428 57.9405 7.60217 58.3606 7.74983C58.7001 7.87421 59.004 8.0786 59.2461 8.34538C59.5115 8.65491 59.6482 9.05291 59.6286 9.45871C59.6325 9.85002 59.5143 10.2329 59.2901 10.555C59.0311 10.9074 58.6771 11.1802 58.2688 11.3421C57.7428 11.5516 57.1791 11.6516 56.6125 11.6361C56.0691 11.6374 55.5278 11.5692 55.0021 11.4331Z" fill="#DFFFED"/>
<path d="M65.8522 5.05649C66.2854 5.23576 66.6531 5.54158 66.9067 5.93326C67.1602 6.32493 67.2874 6.78388 67.2714 7.24902C67.2876 7.713 67.1603 8.1708 66.9067 8.56101C66.653 8.95121 66.2851 9.25516 65.8522 9.43207C65.3451 9.64499 64.7981 9.74844 64.2476 9.73554H63.0618V11.5013H61.1377V4.75303H64.2476C64.7981 4.74013 65.3451 4.84357 65.8522 5.05649ZM65.0279 7.97734C65.1299 7.88611 65.2099 7.77326 65.2619 7.64717C65.3139 7.52108 65.3365 7.38499 65.3282 7.24902C65.3364 7.1125 65.3137 6.97589 65.2618 6.8492C65.2098 6.72252 65.1299 6.60898 65.0279 6.51691C64.7703 6.32601 64.4516 6.23435 64.1309 6.25897H63.0618V8.23339H64.1309C64.4512 8.25751 64.7696 8.16663 65.0279 7.97734Z" fill="#DFFFED"/>
<path d="M68.5832 11.2793C68.4777 11.1784 68.3947 11.0568 68.3393 10.9222C68.284 10.7877 68.2576 10.6431 68.2619 10.4979C68.2563 10.3529 68.2815 10.2085 68.3359 10.0738C68.3902 9.93921 68.4726 9.81744 68.5775 9.71643C68.7969 9.52441 69.0795 9.41846 69.3722 9.41846C69.6648 9.41846 69.9474 9.52441 70.1669 9.71643C70.2709 9.81791 70.3524 9.93986 70.4061 10.0744C70.4598 10.209 70.4845 10.3532 70.4786 10.4979C70.483 10.6426 70.4573 10.7867 70.403 10.9212C70.3487 11.0557 70.267 11.1776 70.163 11.2793C69.9483 11.477 69.6661 11.5868 69.3731 11.5868C69.0801 11.5868 68.798 11.477 68.5832 11.2793Z" fill="#DFFFED"/>
<path d="M78.5364 4.75293V11.5012H76.9528L73.9482 7.89758V11.5012H72.0624V4.75293H73.6479L76.6506 8.35657V4.75293H78.5364Z" fill="#DFFFED"/>
<path d="M85.9935 10.0256V11.5012H80.5293V4.75293H85.8749V6.22663H82.4323V7.36462H85.4542V8.7909H82.4323V10.0256H85.9935Z" fill="#DFFFED"/>
<path d="M89.1436 6.25902H87.0532V4.7417H93.1428V6.25902H91.0677V11.4938H89.1436V6.25902Z" fill="#DFFFED"/>
</svg>
