<svg width="125" height="21" viewBox="0 0 125 21" fill="none" xmlns="http://www.w3.org/2000/svg">
<path d="M95.218 0.00266838V16.4389C95.218 17.5072 95.7405 18.0558 96.8054 18.1103C96.8186 18.1114 102.17 18.1114 102.17 18.1114V19.9554C102.17 20.1612 102.06 20.3059 101.833 20.3059H93.1479C90.4648 20.3059 90.068 18.8147 90.068 17.4604V1.11993C90.068 0.348753 90.359 -0.0162487 91.2618 0.00378036L95.218 0.00266838Z" fill="#BEF1D5"/>
<path d="M85.2088 0.00266838L85.2099 19.2354C85.2099 20.0911 84.8505 20.3059 84.1296 20.3059H80.0543V1.06429C80.0543 0.429989 80.2946 0.00378036 81.2085 0.00378036L85.2088 0.00266838Z" fill="#BEF1D5"/>
<path d="M0 2.80098C0 1.25306 0.00330701 3.05176e-05 2.52213 3.05176e-05H13.5939V1.95412C13.5939 2.09323 13.5289 2.21898 13.336 2.21898L6.70106 2.21675C5.80928 2.21675 5.36063 2.64852 5.36063 3.55657V8.71223H13.1673L13.1684 10.7598C13.1684 10.9412 13.056 11.0369 12.8796 11.0369H5.36063V19.2172C5.3441 20.0061 4.95387 20.32 4.09626 20.3044H0V2.80098Z" fill="#BEF1D5"/>
<path d="M21.59 0.000556946V15.4764C21.59 16.8051 21.7763 17.7365 22.7001 18.2751C23.938 18.9985 26.0346 19.0096 27.2968 18.2952C28.1599 17.8089 28.4895 17.0277 28.4895 15.4809V1.03213C28.4895 0.382252 28.7353 0.000556946 29.6348 0.000556946H33.6418L33.6429 15.0191C33.6429 18.5077 31.4669 19.9388 29.5433 20.4696C26.9837 21.174 23.0958 21.1851 20.6806 20.4529C17.7947 19.576 16.4466 17.8512 16.4432 15.0202L16.441 1.04326C16.441 0.368898 16.6813 0.000556946 17.4497 0.000556946H21.59Z" fill="#BEF1D5"/>
<path d="M119.042 0.00378418C118.026 0.00378418 117.446 0.482292 117.217 1.39814L113.935 15.3984L113.846 15.3962L110.456 0.00378418H105.822C104.928 0.00378418 104.647 0.467827 104.647 1.18448V20.3059H106.604C106.92 20.3059 107.05 20.1479 107.05 19.8241V3.79179H107.359L111.549 20.3059H114.293C115.327 20.3059 115.712 19.8775 115.966 18.8459L119.728 3.79179H120.032L120.031 20.3059L123.692 20.3003C124.59 20.3003 125 19.952 125 19.0607V0.00267029L119.042 0.00378418Z" fill="#BEF1D5"/>
<path d="M58.1274 11.0362H52.9751V20.3059H57.0493C57.7669 20.3059 58.1285 20.0934 58.1285 19.2354C58.1285 19.2354 58.1274 15.2704 58.1274 11.0362Z" fill="#BEF1D5"/>
<path d="M57.8272 7.07503C58.008 6.92703 58.1138 6.81574 58.127 6.49748V0.00422764H54.1267C53.2261 0.00422764 52.9758 0.44824 52.9758 1.08032V10.9109L57.8272 7.07503Z" fill="#FEFFFE"/>
<path d="M40.1639 18.6997C42.4016 18.3803 43.1457 17.0383 43.1457 15.0597V1.10506C43.1457 0.270449 43.5932 3.24249e-05 44.1708 3.24249e-05H48.2979V13.1946C48.2979 16.4396 47.6211 18.0788 45.7174 19.462C44.7264 20.1798 42.9935 20.9988 39.239 20.9988C37.0895 20.9988 36.1337 20.8764 36.0048 20.8463C35.8229 20.804 35.749 20.6916 35.749 20.5325V18.8288C36.632 18.8544 38.6537 18.9167 40.1639 18.6997Z" fill="#BEF1D5"/>
<path d="M65.9331 0.000576019C63.4165 0.000576019 63.4154 1.2536 63.4154 2.80152V8.03285C63.4154 8.14079 63.3691 8.18419 63.3206 8.23204L59.7964 11.0352H63.4154V20.3038H67.5094C68.3671 20.3205 68.7573 20.0056 68.7716 19.2177V11.0374H76.2906C76.467 11.0374 76.5805 10.9406 76.5805 10.7603V8.71166H68.7716V3.55601C68.7716 2.64907 69.2214 2.21618 70.112 2.21618L76.7492 2.21841C76.9399 2.21841 77.0071 2.09377 77.0071 1.95467V0.000576019H65.9331Z" fill="#BEF1D5"/>
</svg>
