<svg width="48" height="47" viewBox="0 0 48 47" fill="none" xmlns="http://www.w3.org/2000/svg">
<g clip-path="url(#clip0_10917_4736)">
<path d="M23.9319 0.15335C24.6424 0.149345 25.3501 -0.00821204 26.0551 0.138663C29.1765 0.409714 32.2541 1.24957 35.0306 2.68094C38.6224 4.48216 41.7124 7.22071 43.9541 10.5027C46.2409 13.8408 47.5948 17.7717 47.9003 21.7774C47.85 22.8375 47.8185 23.9044 47.9235 24.9619C47.7 28.0075 46.9212 31.0278 45.5332 33.7704C43.9501 36.9576 41.6058 39.7776 38.7518 41.9566C35.1954 44.6872 30.8318 46.3949 26.3291 46.7997C25.6433 46.8477 24.9585 46.9719 24.2688 46.9198C23.8118 46.8903 23.3441 47.0333 22.9051 46.8503C24.5866 42.2185 26.2665 37.5851 27.9628 32.9572C29.8091 32.9238 31.6569 32.9692 33.5032 32.9359C34.6815 32.8958 35.846 32.1933 36.2333 31.0719C37.7947 26.7671 39.3956 22.4743 40.9078 18.1509C41.156 17.498 41.2938 16.7703 41.096 16.0866C40.8288 15.2201 40.0189 14.6072 39.1488 14.3775C38.3934 14.1479 37.5954 14.232 36.8183 14.2186C34.4483 14.212 32.0783 14.2307 29.7097 14.208C29.6715 14.2854 29.5936 14.4389 29.5556 14.5151C25.7182 25.0687 21.8878 35.6251 18.0356 46.1733C14.0783 45.1679 10.391 43.1543 7.45103 40.3717C3.90967 37.0536 1.45103 32.6408 0.541488 27.9234C0.256488 26.5067 0.152852 25.0647 0.073761 23.6266C0.137852 20.6317 0.63967 17.6235 1.79194 14.8382C4.6024 7.80287 11.1056 2.26301 18.6656 0.67943C14.7956 11.1863 11.0156 21.7253 7.14694 32.2335C7.39376 32.307 7.65285 32.2789 7.90649 32.2815C9.31649 32.2748 10.7278 32.2843 12.1378 32.2788C12.3301 32.2775 12.3097 32.0157 12.3901 31.8956C14.0892 27.1982 15.8088 22.5076 17.5133 17.8129C17.6156 17.5219 17.711 17.2281 17.8474 16.9517C18.731 16.9664 19.6147 16.9477 20.4983 16.9611C18.6451 22.0496 16.8083 27.1462 14.9278 32.2252C15.1242 32.3027 15.3383 32.2787 15.5442 32.2828C17.0251 32.2693 18.506 32.292 19.9869 32.2721C21.6601 27.6482 23.3538 23.0323 25.0312 18.4111C25.3897 17.4658 25.421 16.3482 24.8512 15.4763C24.3534 14.7045 23.4084 14.336 22.5071 14.3C21.2743 14.2639 20.0403 14.3026 18.8062 14.2813C20.5024 9.56804 22.2492 4.87204 23.9319 0.15335Z" fill="#BEF1D5"/>
<path d="M33.7569 17.0122C33.904 16.8493 34.1659 16.9481 34.3622 16.9201C35.0467 16.9321 35.7311 16.9147 36.4159 16.9294C34.8217 21.3851 33.1526 25.8153 31.5844 30.2803C30.6981 30.3418 29.8049 30.3044 28.9172 30.299C30.5358 25.8728 32.1381 21.4398 33.7569 17.0122Z" fill="#BEF1D5"/>
</g>
<defs>
<clipPath id="clip0_10917_4736">
<rect width="48" height="47" fill="white"/>
</clipPath>
</defs>
</svg>
