<svg width="85" height="35" viewBox="0 0 85 35" fill="none" xmlns="http://www.w3.org/2000/svg">
<path fill-rule="evenodd" clip-rule="evenodd" d="M9.10935 27.0776L8.00159 24.3791L7.15871 27.0776H9.10935ZM43.1914 27.0776L42.8604 21.6059L41.2408 27.0776H43.1914ZM23.5185 16.9577V0.969482H5.04257V17.1386L5.66111 15.0775L5.80295 14.6047H11.1497L10.8916 15.4611C10.4844 16.8082 9.89048 18.7757 9.24638 20.9121L15.3067 14.8015L15.5012 14.6047H22.3239L21.0936 15.7539L12.7019 23.5937L14.3341 27.0776H20.4654L23.5185 16.9577ZM25.5015 0.969482V14.6032H29.2319C32.0983 14.5685 35.0622 14.5328 36.5757 16.3286C37.4374 17.3514 37.6825 18.7873 37.326 20.7181C36.9979 22.4941 35.4342 26.6222 28.0185 26.6144L25.6071 26.6149L25.501 26.97V27.0781H36.5955L40.2734 15.0722L40.4172 14.6028H43.9774V0.969482H25.5015ZM53.9641 27.0776L55.4583 22.0512L52.2093 27.0776H53.9641Z" fill="#74DDA3"/>
<path fill-rule="evenodd" clip-rule="evenodd" d="M59.1536 27.0776H61.2673C61.2625 26.1416 61.4077 25.0671 61.7826 23.833C62.5251 21.3888 63.4307 19.5583 64.4372 18.1861V0.969482H45.9608V14.6023H47.2528L47.3103 15.202C47.3397 15.5021 47.8878 21.2754 47.7512 26.7534C49.0375 24.1336 51.2907 20.1271 55.0723 14.8778L55.2711 14.6018H62.2622L62.0566 15.4263L59.1536 27.0776ZM66.4206 0.969482V16.1269C68.4711 14.5531 70.7518 14.2303 72.9094 14.2303C75.6668 14.2303 77.8389 15.1451 79.0233 16.8057C79.9338 18.0824 80.1615 19.6707 79.6482 21.163L79.4938 21.6117L79.02 21.6112L75.3913 21.6068L74.3293 21.6054L74.792 20.6583C74.8007 20.6346 74.8147 20.5695 74.8248 20.5266C74.8379 20.4624 74.8543 20.3905 74.8765 20.3152C75.0661 19.6784 75.0473 19.1925 74.821 18.8727C74.5045 18.4268 73.7137 18.161 72.5341 18.1055C69.8486 17.9786 68.1011 19.8294 66.8698 24.1065C66.6208 24.9721 66.4713 25.7566 66.4211 26.4499V27.0776H72.8853L72.9099 26.998H68.9719L69.2407 26.1368L70.0739 23.4658L70.2191 22.9993H79.0658L78.8294 23.8426L77.9219 27.0776H84.898V0.969482H66.4206Z" fill="#74DDA3"/>
<path fill-rule="evenodd" clip-rule="evenodd" d="M53.9641 27.0777L55.4583 22.0513L52.2093 27.0777H53.9641Z" fill="#74DDA3"/>
<path fill-rule="evenodd" clip-rule="evenodd" d="M61.4121 14.6025H55.2711L55.0723 14.8785C51.2907 20.1274 49.0375 24.1343 47.7512 26.7541C47.8878 21.2761 47.3392 15.5028 47.3103 15.2027L47.2528 14.603H40.4176L40.2738 15.0725L34.8667 32.7228L34.6043 33.5812H39.3147L39.4551 33.1059L42.8599 21.6061L43.546 32.9568L43.5836 33.5812H48.007L48.2038 33.2777L55.4578 22.051L52.2831 32.7277L52.0298 33.5812H57.533L57.6584 33.0775L62.0562 15.4271L62.2617 14.6025H61.4121Z" fill="#BEF1D5"/>
<path fill-rule="evenodd" clip-rule="evenodd" d="M57.0143 32.9167H52.921L57.4148 17.8003L47.6466 32.9167H44.2089L43.2956 17.7979L38.8192 32.9167H35.5022L40.9088 15.2668H46.6493C46.6493 15.2668 47.5255 24.3263 46.8529 30.5362C46.8529 30.5362 48.5604 25.0505 55.6108 15.2668H61.4116L57.0143 32.9167Z" fill="#BEF1D5"/>
<path fill-rule="evenodd" clip-rule="evenodd" d="M79.0233 16.8057C77.8388 15.145 75.6667 14.2302 72.9094 14.2302C68.8508 14.2302 64.3551 15.3708 61.7826 23.8334C60.6661 27.5055 61.5592 29.7982 62.5063 31.0753C64.1207 33.2546 66.9238 34.0305 69.0086 34.0305C71.2371 34.0305 74.7476 33.6667 75.934 33.1963L76.2394 33.0752L76.3282 32.7587L78.8293 23.843L79.0658 22.9997H70.2191L70.0739 23.4662L69.2407 26.1372L68.9719 26.9984H72.9099L71.9845 29.9174C71.8016 29.9926 71.2449 30.1499 69.7748 30.1548C68.4538 30.1591 67.5139 29.805 66.9837 29.1025C66.2479 28.1293 66.2093 26.4016 66.8698 24.1069C68.1015 19.8303 69.8486 17.9795 72.534 18.1059C73.7137 18.1614 74.5044 18.4273 74.821 18.8731C75.0472 19.1929 75.0661 19.6788 74.8764 20.3157C74.8538 20.3904 74.8378 20.4628 74.8248 20.527C74.8147 20.5704 74.8002 20.6355 74.792 20.6587L74.3293 21.6058L75.3912 21.6072L79.0199 21.6116L79.4937 21.6121L79.6481 21.1634C80.1619 19.6706 79.9337 18.0823 79.0233 16.8057Z" fill="#BEF1D5"/>
<path fill-rule="evenodd" clip-rule="evenodd" d="M79.0206 20.9472L75.3918 20.9424C75.4512 20.8213 75.471 20.6457 75.5125 20.5048C76.1402 18.4002 74.8452 17.5501 72.565 17.442C69.1987 17.2833 67.3773 19.9451 66.2315 23.9231C64.9968 28.2123 66.0356 30.8307 69.7777 30.8182C72.7507 30.8081 72.5925 30.1958 72.5925 30.1958L73.8175 26.3345H69.8747L70.7069 23.6635H78.1902L75.6891 32.5792C74.6894 32.9758 71.3694 33.3671 69.0086 33.3671C65.4571 33.3671 60.2964 31.0001 62.4179 24.0268C64.9548 15.6839 69.3574 14.894 72.91 14.894C78.1019 14.894 79.9508 18.2429 79.0206 20.9472Z" fill="#BEF1D5"/>
<path fill-rule="evenodd" clip-rule="evenodd" d="M22.3243 14.6042H15.5016L15.3072 14.8011L9.24682 20.9116C9.89044 18.7752 10.4848 16.8077 10.8921 15.4606L11.1502 14.6042H5.8034L5.66155 15.0771L0.360613 32.7357L0.103455 33.5901H5.49317L5.60462 33.0638C5.66831 32.808 6.80453 29.0216 8.05704 24.8588L11.4146 33.1747L11.582 33.5897H17.3852L16.9423 32.6445L12.7018 23.5928L21.0935 15.753L22.3243 14.6042Z" fill="#BEF1D5"/>
<path fill-rule="evenodd" clip-rule="evenodd" d="M4.95474 32.9271H0.995544L6.2965 15.2686H10.2552C10.2552 15.2686 5.03145 32.5648 4.95474 32.9271ZM8.04547 23.0687H8.04258L15.7786 15.2686H20.641L11.8961 23.4383L16.3416 32.9271H12.0302L8.04306 23.0514L8.04547 23.0687Z" fill="#BEF1D5"/>
<path fill-rule="evenodd" clip-rule="evenodd" d="M36.5762 16.3287C35.0627 14.5325 32.0988 14.5687 29.2324 14.6034H24.2287L24.0868 15.0757L18.7603 32.7348L18.5022 33.5902H23.5218L23.6632 33.1164L25.6076 26.6146L28.019 26.6141C35.4347 26.6223 36.9984 22.4938 37.3264 20.7178C37.683 18.7874 37.4379 17.3516 36.5762 16.3287Z" fill="#BEF1D5"/>
<path fill-rule="evenodd" clip-rule="evenodd" d="M36.6731 20.5976C36.1467 23.4461 33.6576 25.9565 28.019 25.9502L25.1135 25.9516L23.0278 32.9263H19.3952L24.7217 15.2672H29.2218C33.2929 15.218 37.6786 15.1558 36.6731 20.5976Z" fill="#BEF1D5"/>
<path fill-rule="evenodd" clip-rule="evenodd" d="M25.7996 23.3584C27.1114 23.3584 28.0701 23.3791 28.9531 23.3627C31.6067 23.3145 32.4201 22.3973 33.0184 20.5981C34.0562 17.4761 31.3997 17.8046 27.4178 17.809L25.7996 23.3584Z" fill="#74DDA3"/>
</svg>
