<svg width="60" height="51" viewBox="0 0 60 51" fill="none" xmlns="http://www.w3.org/2000/svg">
<g clip-path="url(#clip0_10917_4688)">
<path d="M52.6128 25.4999C52.6128 39.2122 41.4159 50.4977 27.8098 50.4977C14.2041 50.4977 3.00681 39.2115 3.00681 25.4999C3.00681 11.7868 13.9422 0.502197 27.8098 0.502197C41.1527 0.502197 52.6128 11.7875 52.6128 25.4999Z" fill="#BEF1D5"/>
<path d="M33.4043 38.6568C44.0009 43.0547 42.1623 31.9413 36.5137 23.4317C33.3122 18.6109 29.137 14.5942 26.5035 12.656C17.7718 6.22658 12.3815 10.1261 18.5473 22.8057C20.5409 26.9053 23.1013 29.6722 25.1012 32.2802C26.6285 34.2714 29.6033 35.2683 28.5554 36.2126C27.3743 37.2781 24.515 32.579 24.515 32.579C22.4032 30.0096 20.3903 27.268 18.3157 23.5051C13.5762 14.9115 14.2596 6.14022 22.839 9.96096C30.1199 13.2051 37.0742 22.3041 39.8707 28.7657C41.1619 31.7497 44.683 43.5547 33.4684 38.7818" fill="#38B871"/>
<path d="M0.452423 32.9102C5.11413 29.7781 9.53395 27.7557 17.0554 25.2492C27.6246 21.7266 35.5792 19.3588 45.3399 14.4093C49.7088 12.1943 57.2894 7.22685 60 2.90869C59.1885 4.58002 56.6741 7.83312 55.5366 9.27165C42.2938 26.0004 14.0854 25.0518 0.638572 33.0829" fill="white"/>
<path d="M7.21517 20.6835C11.4817 20.7173 11.0631 20.6748 11.1129 20.7253C11.1874 20.7253 14.5196 26.5145 14.5196 26.5648C14.5196 26.5892 14.4947 24.5072 14.4947 21.9033C14.4947 21.6026 13.6746 20.7255 13.699 20.7255C14.9169 20.7255 16.5085 20.7506 16.5085 20.7506C15.9122 21.4523 15.7929 21.3944 15.7879 21.8284C15.7711 23.2226 15.7555 25.8 15.7879 28.6945C15.7925 29.1284 16.1112 29.2961 16.6335 30.0479H12.7292C11.461 27.9178 9.13724 23.9218 9.14881 23.9334C9.16668 23.9517 9.09875 26.44 9.1732 28.4443C9.19823 29.1066 9.4967 29.3213 10.044 29.9231C10.044 29.9231 10.6735 29.9062 6.98528 29.948C8.10427 29.3464 7.95556 28.5947 7.95514 28.5697C7.91497 25.8 7.94673 23.432 7.94673 21.9033C7.94673 21.6527 7.9299 21.6775 7.15943 20.7253L7.21517 20.6835ZM20.5552 24.9609C20.9134 23.7062 21.2194 22.5849 21.3648 21.8534C21.3894 21.728 21.0913 21.2771 20.6189 20.8259L20.5855 20.7559C22.8636 20.7633 25.2436 20.7763 25.2436 20.7763C25.8654 22.3046 27.2824 26.5898 28.3518 29.2216C28.6345 29.9166 29.1227 30.0483 29.1227 30.0483C27.1831 30.0235 23.5838 30.0405 23.603 30.0235C24.5724 29.1458 24.4481 29.1458 24.0253 27.8688H20.9921C20.3703 29.322 21.1858 30.004 21.2901 29.9987C20.5998 30.0348 18.2568 29.9987 18.2568 29.9987C19.525 29.096 19.4501 28.8205 19.4501 28.8205C19.7984 27.5702 20.202 26.2004 20.5554 24.9607L21.8 24.9609L21.2653 26.69H23.6779L22.3349 23.2315L21.8002 24.9605L20.5556 24.9603L20.5552 24.9609ZM41.3933 25.0861C41.7509 23.8318 42.0571 22.7101 42.2025 21.9786C42.2269 21.8534 41.9284 21.4025 41.4562 20.9509L41.4228 20.8813C43.7016 20.8887 46.0819 20.9015 46.0819 20.9015C46.7026 22.4302 48.1201 26.715 49.189 29.3468C49.4715 30.0426 49.9593 30.1735 49.9593 30.1735C48.021 30.1487 44.4215 30.1657 44.4403 30.1487C45.4099 29.2717 45.286 29.2717 44.8632 27.994H41.8293C41.2076 29.4474 42.0226 30.1292 42.127 30.1243C41.4373 30.16 39.0937 30.1243 39.0937 30.1243C40.3618 29.222 40.2876 28.9461 40.2876 28.9461C40.6359 27.6954 41.0393 26.3263 41.3933 25.0861H42.6377C42.3697 25.9513 42.1034 26.8158 42.1034 26.8158H44.5147L43.1717 23.3569C43.1717 23.3569 42.9052 24.2212 42.6377 25.0857L41.3933 25.0861ZM37.4707 23.032C37.4213 21.2516 37.4707 20.6757 37.4707 20.6757C36.6996 21.3025 37.089 21.2225 35.1587 20.9013C29.5965 19.9754 29.1727 25.2141 32.1997 26.3891C34.7406 27.3758 35.6406 27.5694 35.2578 28.4939C35.1335 28.7957 32.8212 29.8979 30.4343 27.6672L30.4829 30.7749C30.7816 30.4649 31.6025 29.8979 31.6025 29.8979C31.6267 29.8979 34.1897 31.0368 36.5004 29.8478C40.0566 28.0188 38.2818 25.0579 34.4867 23.8836C31.3285 22.9062 34.3125 20.6254 37.4451 23.0566L37.4707 23.032ZM28.1589 2.77238C28.1587 2.8264 28.1374 2.87816 28.0996 2.9164C28.0618 2.95463 28.0105 2.97625 27.957 2.97653C27.9034 2.97619 27.8522 2.95456 27.8144 2.91634C27.7766 2.87811 27.7553 2.82638 27.755 2.77238C27.755 2.66161 27.8465 2.56909 27.957 2.56909C28.0104 2.56926 28.0616 2.59072 28.0994 2.62879C28.1372 2.66687 28.1586 2.71848 28.1589 2.77238ZM29.5597 5.85827C29.5597 5.99577 29.4466 6.1093 29.3111 6.1093C29.2452 6.10903 29.182 6.08249 29.1354 6.03548C29.0888 5.98847 29.0624 5.92478 29.0621 5.85827C29.0621 5.72118 29.1744 5.60808 29.3111 5.60808C29.4468 5.60808 29.5597 5.72097 29.5597 5.85827ZM33.1939 10.9015C33.1939 11.0386 33.0825 11.1521 32.9451 11.1521C32.8793 11.1517 32.8164 11.1252 32.7699 11.0783C32.7233 11.0314 32.697 10.9679 32.6965 10.9015C32.6965 10.764 32.8006 10.6503 32.9375 10.6503C33.0747 10.6507 33.1939 10.764 33.1939 10.9015ZM27.3512 7.59686C27.351 7.6508 27.3296 7.70246 27.2918 7.74059C27.254 7.77871 27.2027 7.8002 27.1493 7.80036C27.0958 7.8002 27.0445 7.77872 27.0066 7.74061C26.9687 7.7025 26.9473 7.65084 26.9469 7.59686C26.9469 7.48545 27.0384 7.39314 27.1493 7.39314C27.2028 7.39331 27.254 7.41483 27.2919 7.453C27.3297 7.49116 27.351 7.54288 27.3512 7.59686ZM29.5282 8.75613C29.5278 8.80997 29.5064 8.86148 29.4687 8.89953C29.4309 8.93757 29.3798 8.95909 29.3265 8.95943C29.2731 8.95915 29.2219 8.93766 29.1841 8.89962C29.1462 8.86157 29.1248 8.81002 29.1243 8.75613C29.1243 8.64473 29.2158 8.55263 29.3265 8.55263C29.4369 8.55263 29.5282 8.64473 29.5282 8.75613ZM26.6991 5.51343C26.6991 5.65094 26.5868 5.76447 26.4505 5.76447C26.3142 5.76447 26.2019 5.65158 26.2019 5.51343C26.2019 5.37635 26.3142 5.26261 26.4505 5.26261C26.5868 5.26261 26.6991 5.37592 26.6991 5.51343ZM23.4053 7.53426C23.4053 7.64609 23.3142 7.73798 23.2031 7.73798C23.1497 7.7377 23.0985 7.71614 23.0606 7.678C23.0228 7.63986 23.0015 7.5882 23.0012 7.53426C23.0012 7.42285 23.0925 7.33054 23.2031 7.33054C23.2566 7.33071 23.3079 7.35222 23.3458 7.39038C23.3837 7.42854 23.405 7.48026 23.4053 7.53426ZM23.9942 7.94106C23.994 7.99513 23.9726 8.04692 23.9347 8.08516C23.8968 8.12339 23.8455 8.14497 23.7919 8.1452C23.7383 8.14492 23.687 8.12332 23.6491 8.0851C23.6112 8.04687 23.5898 7.99511 23.5895 7.94106C23.5919 7.88853 23.6142 7.83894 23.6519 7.80261C23.6896 7.76629 23.7397 7.74601 23.7919 7.74601C23.844 7.74601 23.8941 7.76629 23.9318 7.80261C23.9695 7.83894 23.9918 7.88853 23.9942 7.94106ZM24.5853 8.34849C24.5851 8.40251 24.5638 8.45427 24.526 8.4925C24.4881 8.53074 24.4369 8.55235 24.3833 8.55263C24.3298 8.55235 24.2785 8.53075 24.2406 8.49252C24.2028 8.45429 24.1814 8.40253 24.1812 8.34849C24.1812 8.23751 24.2727 8.14541 24.3833 8.14541C24.4942 8.14541 24.5853 8.23729 24.5853 8.34849ZM23.685 9.13195C23.6845 9.18588 23.663 9.23744 23.6251 9.27554C23.5873 9.31363 23.5361 9.33522 23.4827 9.33567C23.4292 9.33539 23.3779 9.31385 23.34 9.27572C23.3022 9.23759 23.2807 9.18593 23.2803 9.13195C23.2803 9.02054 23.3716 8.92845 23.4827 8.92845C23.5931 8.92845 23.685 9.02054 23.685 9.13195ZM18.9911 12.4523C18.9908 12.5063 18.9693 12.5579 18.9314 12.596C18.8935 12.6341 18.8423 12.6555 18.7888 12.6556C18.6779 12.6556 18.5866 12.5639 18.5866 12.4523C18.5866 12.3407 18.6781 12.2484 18.7888 12.2484C18.8994 12.2484 18.9911 12.3405 18.9911 12.4523ZM19.8611 13.5178C19.8606 13.5717 19.8392 13.6233 19.8014 13.6614C19.7635 13.6994 19.7124 13.721 19.6589 13.7213C19.6055 13.721 19.5543 13.6994 19.5164 13.6614C19.4786 13.6233 19.4571 13.5717 19.4566 13.5178C19.4566 13.4058 19.5481 13.3141 19.6589 13.3141C19.7698 13.3141 19.8611 13.4058 19.8611 13.5178ZM19.1695 30.7159C19.1692 30.7699 19.1477 30.8215 19.1099 30.8596C19.072 30.8977 19.0208 30.9192 18.9674 30.9194C18.8565 30.9194 18.7654 30.8273 18.7654 30.7159C18.7654 30.6045 18.8565 30.512 18.9674 30.512C19.0784 30.512 19.1695 30.6045 19.1695 30.7159ZM19.2938 35.4606C19.2938 35.5981 19.1815 35.7114 19.0452 35.7114C18.9089 35.7114 18.7966 35.5988 18.7966 35.4606C18.7966 35.3235 18.9089 35.2102 19.0452 35.2102C19.1109 35.2106 19.1739 35.237 19.2205 35.2839C19.267 35.3308 19.2934 35.3943 19.2938 35.4606ZM16.6202 37.8908C16.6198 37.9446 16.5984 37.9961 16.5607 38.0342C16.5229 38.0722 16.4718 38.0938 16.4185 38.0941C16.3651 38.0938 16.3139 38.0723 16.2761 38.0343C16.2383 37.9962 16.2168 37.9447 16.2164 37.8908C16.2164 37.7785 16.3078 37.6869 16.4185 37.6869C16.5289 37.6869 16.6202 37.7783 16.6202 37.8908ZM13.4193 38.875C13.4188 38.9415 13.3925 39.0051 13.3458 39.052C13.2992 39.099 13.2361 39.1255 13.1702 39.1258C13.1044 39.1256 13.0413 39.0991 12.9947 39.0521C12.9481 39.0051 12.9218 38.9415 12.9216 38.875C12.9216 38.7377 13.0339 38.6242 13.1702 38.6242C13.2361 38.6246 13.2992 38.6511 13.3458 38.698C13.3924 38.745 13.4188 38.8086 13.4193 38.875ZM12.7664 36.6831C12.7664 36.82 12.6541 36.9333 12.5182 36.9333C12.4525 36.933 12.3895 36.9065 12.343 36.8597C12.2965 36.8129 12.2701 36.7494 12.2696 36.6831C12.2699 36.6166 12.2961 36.5529 12.3427 36.5059C12.3892 36.4588 12.4523 36.4321 12.5182 36.4317C12.6541 36.4323 12.7664 36.5454 12.7664 36.6831ZM12.3939 38.0773C12.3939 38.1892 12.3024 38.2808 12.1918 38.2808C12.0811 38.2808 11.9894 38.1892 11.9894 38.0773C11.9894 37.9663 12.0811 37.8736 12.1918 37.8736C12.3024 37.8736 12.3939 37.9657 12.3939 38.0773ZM10 36.9189C9.99971 36.9727 9.97838 37.0243 9.94067 37.0623C9.90296 37.1004 9.8519 37.122 9.79854 37.1224C9.74505 37.1222 9.69381 37.1007 9.65592 37.0626C9.61804 37.0245 9.59658 36.9729 9.59619 36.9189C9.59619 36.8079 9.68748 36.7154 9.79854 36.7154C9.90875 36.7154 10 36.8073 10 36.9189ZM18.361 40.8339C18.361 40.9457 18.2774 41.0378 18.167 41.0378C18.0562 41.0378 17.9569 40.9457 17.9569 40.8339C17.9569 40.7225 18.0484 40.6301 18.1588 40.6301C18.2701 40.6301 18.361 40.7222 18.361 40.8339ZM20.8791 38.9707C20.8791 39.1082 20.7748 39.222 20.6381 39.222C20.5018 39.222 20.3819 39.1088 20.3819 38.9707C20.3819 38.8336 20.4942 38.7203 20.6305 38.7203C20.6963 38.7206 20.7592 38.7471 20.8058 38.794C20.8523 38.8409 20.8787 38.9044 20.8791 38.9707ZM21.1673 41.3665C21.1673 41.4783 21.0678 41.5708 20.9576 41.5708C20.904 41.5705 20.8527 41.5489 20.8148 41.5106C20.7769 41.4724 20.7555 41.4206 20.7552 41.3665C20.7552 41.2555 20.8465 41.1634 20.9576 41.1634C21.0678 41.1632 21.1673 41.2549 21.1673 41.3665ZM31.5159 39.0789C31.5155 39.1328 31.4942 39.1843 31.4565 39.2225C31.4188 39.2606 31.3677 39.2823 31.3144 39.2829C31.2608 39.2825 31.2095 39.261 31.1716 39.2228C31.1336 39.1846 31.1121 39.133 31.1116 39.0789C31.1116 38.9671 31.2029 38.8754 31.3144 38.8754C31.4246 38.8754 31.5159 38.9671 31.5159 39.0789ZM26.6991 40.8018C26.6989 40.8558 26.6776 40.9074 26.6397 40.9455C26.6019 40.9837 26.5507 41.0051 26.4972 41.0053C26.4438 41.005 26.3926 40.9835 26.3548 40.9454C26.317 40.9073 26.2956 40.8557 26.2953 40.8018C26.2953 40.6908 26.3868 40.5983 26.4972 40.5983C26.6083 40.5983 26.6991 40.6904 26.6991 40.8018ZM39.6603 43.2782C39.6599 43.3322 39.6385 43.3837 39.6006 43.4218C39.5628 43.4599 39.5116 43.4814 39.4582 43.4818C39.4047 43.4815 39.3534 43.46 39.3155 43.422C39.2776 43.3839 39.2561 43.3322 39.2557 43.2782C39.2557 43.167 39.3474 43.0747 39.4582 43.0747C39.5686 43.0747 39.6603 43.1666 39.6603 43.2782ZM40.716 33.6444C40.7156 33.7109 40.6893 33.7745 40.6426 33.8215C40.596 33.8685 40.5329 33.8951 40.467 33.8954C40.4011 33.895 40.338 33.8684 40.2915 33.8214C40.2449 33.7744 40.2185 33.7108 40.2182 33.6444C40.2182 33.5069 40.3303 33.3933 40.467 33.3933C40.5329 33.3936 40.5961 33.4201 40.6427 33.4671C40.6893 33.5142 40.7157 33.5778 40.716 33.6444ZM38.7283 35.0067C38.728 35.0608 38.7065 35.1125 38.6686 35.1506C38.6306 35.1888 38.5793 35.2104 38.5258 35.2106C38.4156 35.2106 38.3241 35.1183 38.3241 35.0067C38.3241 34.8951 38.4156 34.8034 38.5258 34.8034C38.6368 34.8034 38.7283 34.8949 38.7283 35.0067ZM40.687 35.3993C40.687 35.5366 40.5749 35.6505 40.438 35.6505C40.301 35.6505 40.1889 35.5372 40.1889 35.3993C40.1889 35.2622 40.301 35.1485 40.438 35.1485C40.5749 35.1485 40.687 35.2622 40.687 35.3993ZM38.7283 37.8269C38.728 37.8809 38.7065 37.9326 38.6685 37.9707C38.6306 38.0088 38.5793 38.0303 38.5258 38.0304C38.4724 38.03 38.4213 38.0085 38.3836 37.9704C38.3458 37.9323 38.3245 37.8808 38.3241 37.8269C38.3241 37.7151 38.4156 37.623 38.5258 37.623C38.6368 37.623 38.7283 37.7149 38.7283 37.8269ZM43.7933 32.282C43.7933 32.3932 43.7013 32.4857 43.5911 32.4857C43.5377 32.4853 43.4866 32.4637 43.4489 32.4256C43.4112 32.3874 43.3898 32.3359 43.3894 32.282C43.3894 32.1704 43.4807 32.0787 43.5911 32.0787C43.7016 32.0787 43.7933 32.1704 43.7933 32.282ZM44.2833 33.5192C44.2833 33.6565 44.1796 33.7702 44.0427 33.7702C43.9062 33.7702 43.7861 33.6571 43.7861 33.5192C43.7861 33.3816 43.8982 33.2685 44.0345 33.2685C44.1712 33.269 44.2833 33.3816 44.2833 33.5192ZM47.7728 34.9919C47.7728 35.1292 47.6618 35.2427 47.524 35.2427C47.4581 35.2425 47.395 35.216 47.3483 35.169C47.3017 35.122 47.2753 35.0584 47.275 34.9919C47.2754 34.9254 47.3017 34.8617 47.3484 34.8147C47.395 34.7677 47.4581 34.7412 47.524 34.7408C47.5899 34.741 47.6531 34.7676 47.6997 34.8146C47.7463 34.8616 47.7726 34.9254 47.7728 34.9919ZM44.2284 37.6086C44.228 37.6625 44.2064 37.7141 44.1685 37.7522C44.1306 37.7903 44.0794 37.8118 44.0259 37.8121C43.9724 37.8118 43.9212 37.7903 43.8834 37.7522C43.8456 37.7141 43.8242 37.6625 43.8238 37.6086C43.8238 37.4967 43.9155 37.4046 44.0259 37.4046C44.1363 37.4046 44.2284 37.4961 44.2284 37.6086ZM46.4666 35.4778C46.4664 35.5317 46.445 35.5833 46.4073 35.6214C46.3695 35.6595 46.3183 35.681 46.2649 35.6813C46.2115 35.681 46.1604 35.6594 46.1226 35.6214C46.0848 35.5833 46.0634 35.5317 46.063 35.4778C46.063 35.3666 46.1549 35.2741 46.2649 35.2741C46.3754 35.2741 46.4666 35.366 46.4666 35.4778ZM46.0544 38.767C46.0541 38.8209 46.0328 38.8725 45.995 38.9106C45.9572 38.9487 45.9061 38.9702 45.8527 38.9705C45.7991 38.9704 45.7478 38.9489 45.7099 38.9108C45.6719 38.8727 45.6505 38.821 45.6501 38.767C45.6501 38.656 45.7414 38.5633 45.8527 38.5633C45.9631 38.5633 46.0544 38.6554 46.0544 38.767ZM47.003 33.3006C47.003 33.4727 46.8625 33.6138 46.6919 33.6138C46.5215 33.6138 46.3813 33.4727 46.3813 33.3006C46.3813 33.1287 46.5215 32.9876 46.6919 32.9876C46.8625 32.9876 47.003 33.1287 47.003 33.3006Z" fill="#38B871"/>
<path d="M46.6912 32.3457L46.5989 33.207L45.7519 33.3013L46.6063 33.3946L46.6997 34.2878L46.793 33.3946L47.6319 33.2847L46.7855 33.2064L46.6912 32.3457ZM44.826 38.7498C44.826 38.9221 44.6857 39.0636 44.5151 39.0636C44.4327 39.0633 44.3538 39.0301 44.2955 38.9713C44.2372 38.9126 44.2044 38.8329 44.204 38.7498C44.204 38.5779 44.3445 38.4368 44.5151 38.4368C44.5973 38.4371 44.6761 38.4702 44.7343 38.5288C44.7926 38.5874 44.8255 38.6668 44.826 38.7498Z" fill="#38B871"/>
<path d="M44.5171 37.795L44.4237 38.6568L43.5771 38.7504L44.4315 38.8446L44.5251 39.7369L44.6185 38.8446L45.4569 38.7346L44.6099 38.6561L44.5171 37.795ZM21.6406 12.875C21.6406 13.0468 21.5003 13.1882 21.33 13.1882C21.2476 13.1879 21.1687 13.1549 21.1105 13.0962C21.0522 13.0375 21.0193 12.958 21.0189 12.875C21.0189 12.7026 21.159 12.5615 21.33 12.5615C21.5003 12.5619 21.6406 12.7031 21.6406 12.875Z" fill="#38B871"/>
<path d="M21.3293 11.9193L21.2359 12.7807L20.3886 12.8749L21.2434 12.9681L21.3368 13.8616L21.4298 12.9681L22.269 12.859L21.4218 12.7803L21.3293 11.9193ZM33.2026 5.29432C33.2026 5.4662 33.0621 5.60774 32.8915 5.60774C32.7209 5.60774 32.581 5.4662 32.581 5.29432C32.581 5.12201 32.7207 4.98047 32.8915 4.98047C33.0623 4.98047 33.2026 5.12243 33.2026 5.29432Z" fill="#38B871"/>
<path d="M32.8915 4.33838L32.799 5.20035L31.9521 5.29457L32.8068 5.38816L32.8993 6.28111L32.9927 5.38816L33.8315 5.27823L32.9845 5.19993L32.8915 4.33838ZM19.146 43.7645C19.146 43.9369 19.0057 44.078 18.8353 44.078C18.7529 44.0777 18.674 44.0446 18.6158 43.9859C18.5575 43.9272 18.5246 43.8476 18.5242 43.7645C18.5242 43.5929 18.6645 43.4509 18.8353 43.4509C19.0057 43.4511 19.146 43.5931 19.146 43.7645Z" fill="#38B871"/>
<path d="M18.8426 42.8076L18.7496 43.6696L17.9026 43.7634L18.7572 43.857L18.8504 44.7499L18.9434 43.857L19.7826 43.7475L18.9358 43.669L18.8426 42.8076Z" fill="#38B871"/>
<path d="M59.9978 2.90894C56.2178 14.222 41.0758 22.9578 28.3294 31.2971C20.6396 36.3299 13.005 42.1225 7.7491 47.0511C6.36382 48.3509 8.03138 46.565 7.50048 47.114C14.8354 38.5937 23.2728 33.5186 27.9354 30.3239C35.8207 24.9192 40.3058 23.5571 53.91 10.915" fill="white"/>
<path d="M3.60519 30.9368C2.24768 31.6063 1.03172 32.2681 1.52588e-05 32.9143L0.627661 33.1448C1.53001 32.5843 2.61324 31.9997 3.75432 31.4847L3.60519 30.9368ZM10.7718 43.5967C9.48027 44.7329 8.2101 45.8936 6.96196 47.0781L6.90517 47.942C8.08306 46.7174 9.52997 45.396 11.1998 43.9933" fill="#60AA81"/>
<path d="M33.4043 38.6566C44.0009 43.0546 42.1623 31.9412 36.5137 23.4316C33.3119 18.6107 29.3639 14.7863 26.5033 12.6558C23.1632 10.1677 22.8371 9.96143 22.8371 9.96143C30.2961 13.533 37.0724 22.3043 39.8684 28.7664C41.1601 31.7502 44.6809 43.5551 33.4661 38.7822" fill="#38B871"/>
</g>
<defs>
<clipPath id="clip0_10917_4688">
<rect width="60" height="50" fill="white" transform="translate(0 0.5)"/>
</clipPath>
</defs>
</svg>
 