<svg width="112" height="37" viewBox="0 0 112 37" fill="none" xmlns="http://www.w3.org/2000/svg">
<g clip-path="url(#clip0_10917_4739)">
<path fill-rule="evenodd" clip-rule="evenodd" d="M41.332 21.7413V12.1592H37.47V9.75073H47.79V12.1592H43.9797V21.7413H41.332Z" fill="#BEF1D5"/>
<path fill-rule="evenodd" clip-rule="evenodd" d="M49.8137 21.7413V9.75073H54.8342C55.9516 9.75073 56.9146 10.1293 57.7053 10.9036C58.5134 11.6602 58.9092 12.5892 58.9092 13.7075C58.9092 15.2387 58.0663 16.5632 56.7768 17.1139L59.6995 21.7413H56.7083L54.215 17.7503H54.1811H52.4442V21.7413H49.8137ZM52.4442 15.4103H54.5417C55.5735 15.4103 56.2615 14.7568 56.2615 13.7415C56.2615 12.8302 55.6081 12.1592 54.7652 12.1592H52.4442V15.4103Z" fill="#9D5757"/>
<path fill-rule="evenodd" clip-rule="evenodd" d="M60.7174 9.75073H63.3651V16.6145C63.3651 18.5585 64.1903 19.5218 65.8239 19.5218C67.4572 19.5218 68.2653 18.5585 68.2653 16.6145V9.75073H70.9129V16.8901C70.9129 18.5072 70.4316 19.7457 69.4688 20.623C68.5058 21.5004 67.2851 21.9303 65.8239 21.9303C64.345 21.9303 63.1243 21.5004 62.1618 20.6402C61.1988 19.7628 60.7174 18.5243 60.7174 16.8901V9.75073Z" fill="#9D5757"/>
<path fill-rule="evenodd" clip-rule="evenodd" d="M73.1409 21.7414V9.3208L79.4683 16.2192L85.7948 9.3208V21.7414H83.2507V15.6513L79.4683 19.9004L75.6858 15.6513V21.7414H73.1409Z" fill="#9D5757"/>
<path fill-rule="evenodd" clip-rule="evenodd" d="M87.4112 21.7412L93.6521 9.0625L99.8934 21.7412H97.0737L96.1452 19.8317H91.1417L90.2135 21.7412H87.4112ZM92.1222 17.5777H95.1653L93.635 14.4297L92.1222 17.5777Z" fill="#9D5757"/>
<mask id="mask0_10917_4739" style="mask-type:alpha" maskUnits="userSpaceOnUse" x="101" y="9" width="11" height="14">
<path d="M101.181 9.28638H111.84V22.2057H101.181V9.28638Z" fill="white"/>
</mask>
<g mask="url(#mask0_10917_4739)">
<path fill-rule="evenodd" clip-rule="evenodd" d="M101.181 21.7412V9.28638L109.227 16.563V9.7506H111.841V22.2057L103.795 14.9459V21.7412H101.181Z" fill="#9D5757"/>
</g>
<path fill-rule="evenodd" clip-rule="evenodd" d="M41.3187 26.8275C41.5935 27.0685 41.9283 27.189 42.3276 27.189C42.6575 27.189 42.8507 27.0685 42.8507 26.892C42.8507 26.793 42.8034 26.7157 42.7135 26.6597C42.6233 26.6037 42.4431 26.5265 42.1816 26.4318C41.671 26.2466 41.3744 25.9841 41.3744 25.5367C41.3744 25.2743 41.4777 25.0719 41.6791 24.9216C41.8854 24.7709 42.1384 24.6934 42.4431 24.6934C42.748 24.6934 43.0138 24.7622 43.2456 24.8957V25.5539C43.0399 25.3861 42.782 25.3001 42.4689 25.3001C42.1944 25.3001 42.0395 25.3948 42.0395 25.5324C42.0395 25.6186 42.0784 25.6831 42.1944 25.7519L42.3404 25.825L42.5374 25.9023L42.7266 25.9757C43.0138 26.0918 43.2155 26.2167 43.3315 26.3496C43.4517 26.4829 43.5117 26.6641 43.5117 26.892C43.5117 27.4212 43.1081 27.787 42.3572 27.787C41.9756 27.787 41.6277 27.6967 41.3187 27.5159V26.8275Z" fill="#9D5757"/>
<path fill-rule="evenodd" clip-rule="evenodd" d="M46.4817 27.7397V25.3431H45.6707V24.741H47.9406V25.3431H47.1424V27.7397H46.4817Z" fill="#9D5757"/>
<path fill-rule="evenodd" clip-rule="evenodd" d="M49.7734 27.7397L51.331 24.5688L52.8885 27.7397H52.1852L51.9534 27.2622H50.7045L50.473 27.7397H49.7734ZM50.9494 26.6987H51.7085L51.3269 25.9113L50.9494 26.6987Z" fill="#9D5757"/>
<path fill-rule="evenodd" clip-rule="evenodd" d="M55.5329 27.7397V25.3431H54.7219V24.741H56.9918V25.3431H56.1936V27.7397H55.5329Z" fill="#9D5757"/>
<path fill-rule="evenodd" clip-rule="evenodd" d="M59.4469 27.7397V24.741H61.4893V25.3431H60.1076V25.9072H61.3994V26.4963H60.1076V27.1373H61.5198V27.7397H59.4469Z" fill="#9D5757"/>
<path fill-rule="evenodd" clip-rule="evenodd" d="M67.9274 24.741H68.5881V26.4576C68.5881 26.9439 68.7941 27.1849 69.2018 27.1849C69.6095 27.1849 69.8111 26.9439 69.8111 26.4576V24.741H70.4721V26.5262C70.4721 26.9309 70.3514 27.2404 70.1114 27.4601C69.8712 27.6796 69.5662 27.7873 69.2018 27.7873C68.8327 27.7873 68.5281 27.6796 68.2878 27.4645C68.0476 27.245 67.9274 26.9352 67.9274 26.5262V24.741Z" fill="#9D5757"/>
<path fill-rule="evenodd" clip-rule="evenodd" d="M73.1332 27.7396V24.6248L75.1414 26.4445V24.7409H75.7937V27.8558L73.7855 26.0401V27.7396H73.1332Z" fill="#9D5757"/>
<path fill-rule="evenodd" clip-rule="evenodd" d="M78.5021 27.7392H79.1628V24.7405H78.5021V27.7392Z" fill="#9D5757"/>
<path fill-rule="evenodd" clip-rule="evenodd" d="M83.171 27.886L81.6349 24.741H82.3389L83.171 26.5009L84.0081 24.741H84.7121L83.171 27.886Z" fill="#9D5757"/>
<path fill-rule="evenodd" clip-rule="evenodd" d="M87.1627 27.7397V24.741H89.2051V25.3431H87.8236V25.9072H89.1151V26.4963H87.8236V27.1373H89.2355V27.7397H87.1627Z" fill="#9D5757"/>
<path fill-rule="evenodd" clip-rule="evenodd" d="M91.8321 27.7397V24.741H93.085C93.3638 24.741 93.6041 24.8356 93.8017 25.029C94.0033 25.2185 94.102 25.4508 94.102 25.7304C94.102 26.1133 93.8922 26.4446 93.5698 26.5822L94.2993 27.7397H93.553L92.9306 26.7416H92.9222H92.489V27.7397H91.8321ZM92.489 26.1563H93.0119C93.2695 26.1563 93.441 25.9928 93.441 25.7391C93.441 25.5109 93.2782 25.3431 93.0682 25.3431H92.489V26.1563Z" fill="#9D5757"/>
<path fill-rule="evenodd" clip-rule="evenodd" d="M96.6262 26.8275C96.9006 27.0685 97.2355 27.189 97.6345 27.189C97.9649 27.189 98.1579 27.0685 98.1579 26.892C98.1579 26.793 98.1106 26.7157 98.0207 26.6597C97.9307 26.6037 97.7505 26.5265 97.4885 26.4318C96.9778 26.2466 96.6816 25.9841 96.6816 25.5367C96.6816 25.2743 96.7849 25.0719 96.9865 24.9216C97.1925 24.7709 97.4456 24.6934 97.7505 24.6934C98.0549 24.6934 98.321 24.7622 98.5528 24.8957V25.5539C98.3468 25.3861 98.0891 25.3001 97.7761 25.3001C97.5016 25.3001 97.3466 25.3948 97.3466 25.5324C97.3466 25.6186 97.3855 25.6831 97.5016 25.7519L97.6472 25.825L97.8448 25.9023L98.0337 25.9757C98.321 26.0918 98.5229 26.2167 98.6387 26.3496C98.7588 26.4829 98.8189 26.6641 98.8189 26.892C98.8189 27.4212 98.4156 27.787 97.6646 27.787C97.2825 27.787 96.9346 27.6967 96.6262 27.5159V26.8275Z" fill="#9D5757"/>
<path fill-rule="evenodd" clip-rule="evenodd" d="M101.351 27.7392H102.012V24.7405H101.351V27.7392Z" fill="#9D5757"/>
<path fill-rule="evenodd" clip-rule="evenodd" d="M105.299 27.7397V25.3431H104.489V24.741H106.758V25.3431H105.96V27.7397H105.299Z" fill="#9D5757"/>
<path fill-rule="evenodd" clip-rule="evenodd" d="M110.067 27.7397V26.6211L108.969 24.741H109.686L110.398 25.9885L111.11 24.741H111.827L110.728 26.6211V27.7397H110.067Z" fill="#9D5757"/>
<path fill-rule="evenodd" clip-rule="evenodd" d="M49.8137 21.7413V9.75073H54.8342C55.9516 9.75073 56.9146 10.1293 57.7053 10.9036C58.5134 11.6602 58.9092 12.5892 58.9092 13.7075C58.9092 15.2387 58.0663 16.5632 56.7768 17.1139L59.6995 21.7413H56.7083L54.215 17.7503H54.1811H52.4442V21.7413H49.8137ZM52.4442 15.4103H54.5417C55.5735 15.4103 56.2615 14.7568 56.2615 13.7415C56.2615 12.8302 55.6081 12.1592 54.7652 12.1592H52.4442V15.4103Z" fill="#BEF1D5"/>
<path fill-rule="evenodd" clip-rule="evenodd" d="M60.7174 9.75073H63.3651V16.6145C63.3651 18.5585 64.1903 19.5218 65.8239 19.5218C67.4572 19.5218 68.2653 18.5585 68.2653 16.6145V9.75073H70.9129V16.8901C70.9129 18.5072 70.4316 19.7457 69.4688 20.623C68.5058 21.5004 67.2851 21.9303 65.8239 21.9303C64.345 21.9303 63.1243 21.5004 62.1618 20.6402C61.1988 19.7628 60.7174 18.5243 60.7174 16.8901V9.75073Z" fill="#BEF1D5"/>
<path fill-rule="evenodd" clip-rule="evenodd" d="M73.1409 21.7414V9.3208L79.4683 16.2192L85.7948 9.3208V21.7414H83.2507V15.6513L79.4683 19.9004L75.6858 15.6513V21.7414H73.1409Z" fill="#BEF1D5"/>
<path fill-rule="evenodd" clip-rule="evenodd" d="M87.4112 21.7412L93.6521 9.0625L99.8934 21.7412H97.0737L96.1452 19.8317H91.1417L90.2135 21.7412H87.4112ZM92.1222 17.5777H95.1653L93.635 14.4297L92.1222 17.5777Z" fill="#BEF1D5"/>
<path fill-rule="evenodd" clip-rule="evenodd" d="M101.181 21.7412V9.28638L109.227 16.563V9.7506H111.841V22.2057L103.795 14.9459V21.7412H101.181Z" fill="#BEF1D5"/>
<path fill-rule="evenodd" clip-rule="evenodd" d="M41.3187 26.8275C41.5935 27.0685 41.9283 27.189 42.3276 27.189C42.6575 27.189 42.8507 27.0685 42.8507 26.892C42.8507 26.793 42.8034 26.7157 42.7135 26.6597C42.6233 26.6037 42.4431 26.5265 42.1816 26.4318C41.671 26.2466 41.3744 25.9841 41.3744 25.5367C41.3744 25.2743 41.4777 25.0719 41.6791 24.9216C41.8854 24.7709 42.1384 24.6934 42.4431 24.6934C42.748 24.6934 43.0138 24.7622 43.2456 24.8957V25.5539C43.0399 25.3861 42.782 25.3001 42.4689 25.3001C42.1944 25.3001 42.0395 25.3948 42.0395 25.5324C42.0395 25.6186 42.0784 25.6831 42.1944 25.7519L42.3404 25.825L42.5374 25.9023L42.7266 25.9757C43.0138 26.0918 43.2155 26.2167 43.3315 26.3496C43.4517 26.4829 43.5117 26.6641 43.5117 26.892C43.5117 27.4212 43.1081 27.787 42.3572 27.787C41.9756 27.787 41.6277 27.6967 41.3187 27.5159V26.8275Z" fill="#BEF1D5"/>
<path fill-rule="evenodd" clip-rule="evenodd" d="M46.4817 27.7397V25.3431H45.6707V24.741H47.9406V25.3431H47.1424V27.7397H46.4817Z" fill="#BEF1D5"/>
<path fill-rule="evenodd" clip-rule="evenodd" d="M49.7734 27.7397L51.331 24.5688L52.8885 27.7397H52.1852L51.9534 27.2622H50.7045L50.473 27.7397H49.7734ZM50.9494 26.6987H51.7085L51.3269 25.9113L50.9494 26.6987Z" fill="#BEF1D5"/>
<path fill-rule="evenodd" clip-rule="evenodd" d="M55.5329 27.7397V25.3431H54.7219V24.741H56.9918V25.3431H56.1936V27.7397H55.5329Z" fill="#BEF1D5"/>
<path fill-rule="evenodd" clip-rule="evenodd" d="M59.4469 27.7397V24.741H61.4893V25.3431H60.1076V25.9072H61.3994V26.4963H60.1076V27.1373H61.5198V27.7397H59.4469Z" fill="#BEF1D5"/>
<path fill-rule="evenodd" clip-rule="evenodd" d="M67.9274 24.741H68.5881V26.4576C68.5881 26.9439 68.7941 27.1849 69.2018 27.1849C69.6095 27.1849 69.8111 26.9439 69.8111 26.4576V24.741H70.4721V26.5262C70.4721 26.9309 70.3514 27.2404 70.1114 27.4601C69.8712 27.6796 69.5662 27.7873 69.2018 27.7873C68.8327 27.7873 68.5281 27.6796 68.2878 27.4645C68.0476 27.245 67.9274 26.9352 67.9274 26.5262V24.741Z" fill="#BEF1D5"/>
<path fill-rule="evenodd" clip-rule="evenodd" d="M73.1332 27.7396V24.6248L75.1414 26.4445V24.7409H75.7937V27.8558L73.7855 26.0401V27.7396H73.1332Z" fill="#BEF1D5"/>
<path fill-rule="evenodd" clip-rule="evenodd" d="M78.5021 27.7392H79.1628V24.7405H78.5021V27.7392Z" fill="#BEF1D5"/>
<path fill-rule="evenodd" clip-rule="evenodd" d="M83.171 27.886L81.6349 24.741H82.3389L83.171 26.5009L84.0081 24.741H84.7121L83.171 27.886Z" fill="#BEF1D5"/>
<path fill-rule="evenodd" clip-rule="evenodd" d="M87.1627 27.7397V24.741H89.2051V25.3431H87.8236V25.9072H89.1151V26.4963H87.8236V27.1373H89.2355V27.7397H87.1627Z" fill="#BEF1D5"/>
<path fill-rule="evenodd" clip-rule="evenodd" d="M91.8321 27.7397V24.741H93.085C93.3638 24.741 93.6041 24.8356 93.8017 25.029C94.0033 25.2185 94.102 25.4508 94.102 25.7304C94.102 26.1133 93.8922 26.4446 93.5698 26.5822L94.2993 27.7397H93.553L92.9306 26.7416H92.9222H92.489V27.7397H91.8321ZM92.489 26.1563H93.0119C93.2695 26.1563 93.441 25.9928 93.441 25.7391C93.441 25.5109 93.2782 25.3431 93.0682 25.3431H92.489V26.1563Z" fill="#BEF1D5"/>
<path fill-rule="evenodd" clip-rule="evenodd" d="M96.6262 26.8275C96.9006 27.0685 97.2355 27.189 97.6345 27.189C97.9649 27.189 98.1579 27.0685 98.1579 26.892C98.1579 26.793 98.1106 26.7157 98.0207 26.6597C97.9307 26.6037 97.7505 26.5265 97.4885 26.4318C96.9778 26.2466 96.6816 25.9841 96.6816 25.5367C96.6816 25.2743 96.7849 25.0719 96.9865 24.9216C97.1925 24.7709 97.4456 24.6934 97.7505 24.6934C98.0549 24.6934 98.321 24.7622 98.5528 24.8957V25.5539C98.3468 25.3861 98.0891 25.3001 97.7761 25.3001C97.5016 25.3001 97.3466 25.3948 97.3466 25.5324C97.3466 25.6186 97.3855 25.6831 97.5016 25.7519L97.6472 25.825L97.8448 25.9023L98.0337 25.9757C98.321 26.0918 98.5229 26.2167 98.6387 26.3496C98.7588 26.4829 98.8189 26.6641 98.8189 26.892C98.8189 27.4212 98.4156 27.787 97.6646 27.787C97.2825 27.787 96.9346 27.6967 96.6262 27.5159V26.8275Z" fill="#BEF1D5"/>
<path fill-rule="evenodd" clip-rule="evenodd" d="M101.351 27.7392H102.012V24.7405H101.351V27.7392Z" fill="#BEF1D5"/>
<path fill-rule="evenodd" clip-rule="evenodd" d="M105.299 27.7397V25.3431H104.489V24.741H106.758V25.3431H105.96V27.7397H105.299Z" fill="#BEF1D5"/>
<path fill-rule="evenodd" clip-rule="evenodd" d="M110.067 27.7397V26.6211L108.969 24.741H109.686L110.398 25.9885L111.11 24.741H111.827L110.728 26.6211V27.7397H110.067Z" fill="#BEF1D5"/>
<path fill-rule="evenodd" clip-rule="evenodd" d="M-0.000488281 0.499756V9.73433L20.3879 0.499756H-0.000488281Z" fill="#BEF1D5"/>
<path fill-rule="evenodd" clip-rule="evenodd" d="M3.18369 10.238H31.4765V2.20337L3.18369 10.238Z" fill="#BEF1D5"/>
<path fill-rule="evenodd" clip-rule="evenodd" d="M11.323 36.4487H20.1536V18.125L11.323 12.6626V36.4487Z" fill="#BEF1D5"/>
</g>
<defs>
<clipPath id="clip0_10917_4739">
<rect width="112" height="36" fill="white" transform="translate(0 0.5)"/>
</clipPath>
</defs>
</svg>
