<svg width="88" height="55" viewBox="0 0 88 55" fill="none" xmlns="http://www.w3.org/2000/svg">
<path fill-rule="evenodd" clip-rule="evenodd" d="M8.08375 43.8406L5.72118 50.6991L3.30444 43.8406H0.323212L4.00808 53.8694H7.28113L10.987 43.8406H8.08375ZM26.1201 48.8674C26.1201 48.3313 26.279 47.8073 26.5769 47.3615C26.8747 46.9158 27.2981 46.5684 27.7934 46.3633C28.2887 46.1581 28.8337 46.1045 29.3594 46.2091C29.8852 46.3137 30.3682 46.5719 30.7472 46.951C31.1263 47.3301 31.3844 47.8131 31.4889 48.3389C31.5934 48.8647 31.5397 49.4097 31.3345 49.905C31.1292 50.4002 30.7818 50.8235 30.336 51.1213C29.8902 51.419 29.3661 51.5779 28.83 51.5778C28.1113 51.5775 27.4222 51.2918 26.914 50.7835C26.4059 50.2753 26.1203 49.5861 26.1201 48.8674ZM31.4265 39.7514V44.675C31.4209 44.6722 31.4172 44.6685 31.413 44.6652C30.5893 44.0568 29.5822 43.6777 28.492 43.6777C25.7199 43.6777 23.4727 45.9931 23.4727 48.8501C23.4727 51.7062 25.7195 54.0216 28.492 54.0216C29.5883 54.0216 30.602 53.6598 31.4265 53.0458V53.883H34.0039V39.7514H31.4265ZM38.3793 48.8674C38.3925 48.1574 38.6838 47.4809 39.1906 46.9835C39.6973 46.486 40.3791 46.2073 41.0893 46.2073C41.7994 46.2073 42.4812 46.486 42.9879 46.9835C43.4947 47.4809 43.786 48.1574 43.7992 48.8674C43.7991 49.5863 43.5134 50.2757 43.005 50.784C42.4967 51.2923 41.8072 51.5778 41.0883 51.5778C40.3698 51.5773 39.6808 51.2916 39.1728 50.7833C38.6648 50.2751 38.3794 49.586 38.3793 48.8674ZM43.6848 43.8514V44.675L43.6713 44.6652C42.8495 44.0568 41.84 43.6777 40.7503 43.6777C37.9782 43.6777 35.731 45.9931 35.731 48.8501C35.731 51.7062 37.9778 54.0216 40.7503 54.0216C41.8466 54.0216 42.8593 53.6598 43.6848 53.0458V53.883H46.2631V43.8518H43.6848V43.8514ZM53.2878 43.8514H51.7437C51.7437 43.8514 51.7381 43.5301 51.7381 43.2421C51.7381 42.6066 51.7381 41.7993 52.7504 41.7993C53.0104 41.7993 53.2602 41.8432 53.2602 41.8432V39.5105C53.2602 39.5105 52.8372 39.4988 52.5491 39.5105C50.1791 39.6025 49.1355 40.4116 49.1355 42.7807V43.8514H47.9818V46.1631H49.1355V53.8671H51.7437V46.1631H53.2878V43.8514ZM68.8892 44.7254C69.6213 44.0587 70.69 43.6431 71.8372 43.6431C74.2003 43.6431 75.5534 45.148 75.5599 47.1352L75.5609 48.2586V53.8699H72.9009V48.0162C72.9009 46.5426 71.8741 46.0939 71.0622 46.0939C70.3142 46.0939 68.8845 46.5062 68.9648 48.3052V53.8699H66.3001V43.8514H68.8892V44.7254ZM80.0577 49.6453C80.1842 50.9045 81.2376 51.8229 82.5281 51.8229C83.546 51.8229 84.2207 51.4209 84.6208 50.6902H87.4059C86.96 52.2516 85.2045 54.017 82.6173 54.017C79.5039 54.017 77.3099 51.6988 77.3099 48.8389C77.3099 45.9791 79.6617 43.6599 82.6173 43.6599C85.5738 43.6599 87.6768 46.1803 87.6768 48.8389C87.6768 49.3927 87.6147 49.6415 87.6147 49.6415L80.0577 49.6453ZM84.8659 47.7071C84.6409 46.5697 83.687 45.9151 82.5276 45.9151C81.3314 45.9151 80.3957 46.6118 80.1263 47.6997L84.8659 47.7071ZM18.5967 43.9928C18.1241 44.0965 17.701 44.3582 17.3973 44.7347C17.0935 45.1113 16.9273 45.5802 16.9261 46.0641C16.9261 46.086 16.9317 46.1126 16.9322 46.1332C18.4384 46.4544 19.1981 47.4699 19.1981 48.8081C19.1981 50.313 17.9678 51.533 16.4634 51.533C14.959 51.533 13.5536 50.2775 13.5536 48.4168C13.5536 46.1453 15.5011 44.0129 18.2769 43.9466C18.3264 43.9457 18.4058 43.9476 18.4865 43.9513C17.8577 43.7122 17.1904 43.5902 16.5176 43.5913C13.5396 43.5913 11.1257 45.9277 11.1257 48.8086C11.1257 51.6903 13.5396 54.0258 16.5176 54.0258C19.496 54.0258 21.9099 51.6903 21.9099 48.8086C21.9099 46.6402 20.5423 44.7819 18.5967 43.9928ZM59.2605 43.6347C56.2821 43.6347 53.8672 45.9702 53.8672 48.852C53.8672 51.0199 55.2353 52.8791 57.1823 53.6663C57.6546 53.5628 58.0774 53.3011 58.3808 52.9247C58.6843 52.5483 58.8501 52.0795 58.851 51.596C58.851 51.5741 58.8464 51.5484 58.8454 51.5269C57.3387 51.2066 56.579 50.1911 56.579 48.852C56.579 47.3462 57.8094 46.128 59.3137 46.128C60.8181 46.128 62.2235 47.3822 62.2235 49.2433C62.2235 51.5157 60.2756 53.6462 57.5007 53.7144C57.4308 53.7145 57.3609 53.7126 57.2911 53.7088C57.9004 53.9404 58.5644 54.0688 59.2601 54.0688C62.2375 54.0688 64.6515 51.7324 64.6515 48.8515C64.6519 45.9702 62.238 43.6347 59.2605 43.6347ZM50.5143 2.22107C47.4831 2.88828 45.1995 5.60618 45.1995 8.85962C45.1995 8.92965 45.2158 9.01276 45.2186 9.0828C50.0119 10.11 52.4291 13.3634 52.4291 17.6576C52.4291 22.4804 48.5141 26.3917 43.7268 26.3917C38.9405 26.3917 34.4689 22.3678 34.4689 16.4016C34.4689 9.11782 40.6653 2.2855 49.4951 2.06885C49.6547 2.06558 49.9064 2.07166 50.1646 2.08286C48.1644 1.31928 46.041 0.929324 43.9001 0.932391C34.4246 0.932391 26.742 8.42072 26.742 17.6581C26.742 26.8959 34.4246 34.3838 43.9001 34.3838C53.3742 34.3838 61.0563 26.8955 61.0563 17.6581C61.0563 10.7058 56.7056 4.74426 50.5143 2.22107Z" fill="#BEF1D5"/>
</svg>
